<svg width="110" height="29" viewBox="0 0 110 29" fill="none" xmlns="http://www.w3.org/2000/svg" id="accent-logo">
<path d="M36.6492 9.70905V8.17564L36.5498 7.84908V5.16561C36.5498 4.64501 36.3937 4.24272 36.0813 3.95876C35.7689 3.66533 35.2957 3.51861 34.6615 3.51861C34.2355 3.51861 33.8143 3.58487 33.3978 3.71739C32.9908 3.8499 32.6453 4.03448 32.3614 4.27112L31.6656 2.97908C32.0727 2.66672 32.5554 2.43481 33.1139 2.28336C33.6818 2.12245 34.2687 2.04199 34.8745 2.04199C35.9725 2.04199 36.8196 2.30703 37.4159 2.83709C38.0217 3.3577 38.3246 4.167 38.3246 5.265V9.70905H36.6492ZM34.2639 9.80844C33.696 9.80844 33.1991 9.71378 32.7731 9.52447C32.3472 9.3257 32.0159 9.05593 31.7792 8.71517C31.5521 8.36495 31.4385 7.97213 31.4385 7.53672C31.4385 7.11077 31.5379 6.72742 31.7366 6.38666C31.9449 6.0459 32.2809 5.77613 32.7447 5.57736C33.2085 5.37858 33.8238 5.2792 34.5905 5.2792H36.7912V6.45765H34.7183C34.1125 6.45765 33.7055 6.55704 33.4972 6.75581C33.289 6.94512 33.1849 7.18176 33.1849 7.46573C33.1849 7.78755 33.3126 8.04312 33.5682 8.23243C33.8238 8.42174 34.1787 8.5164 34.6331 8.5164C35.0685 8.5164 35.4566 8.41701 35.7973 8.21823C36.1476 8.01946 36.3984 7.72603 36.5498 7.33794L36.848 8.40281C36.6776 8.84769 36.37 9.19318 35.9251 9.43928C35.4897 9.68539 34.936 9.80844 34.2639 9.80844Z" fill="white"/>
<path d="M46.4557 9.70905L43.7154 6.0743L45.1636 5.17981L48.5428 9.70905H46.4557ZM41.0178 9.70905V2.12718H42.7925V9.70905H41.0178ZM42.2672 6.67062V5.19401H44.8371V6.67062H42.2672ZM45.334 6.13109L43.6728 5.93231L46.4557 2.12718H48.3582L45.334 6.13109Z" fill="white"/>
<path d="M50.2915 9.70905V2.12718H52.0663V8.20404H55.6869V2.12718H57.4617V9.70905H50.2915ZM56.9505 11.3986V9.66646L57.3623 9.70905H55.6869V8.20404H58.6117V11.3986H56.9505Z" fill="white"/>
<path d="M64.2238 9.80844C63.3814 9.80844 62.6431 9.64279 62.0089 9.3115C61.3841 8.97074 60.8967 8.50693 60.5465 7.92007C60.2057 7.33321 60.0353 6.66589 60.0353 5.91812C60.0353 5.16088 60.201 4.49356 60.5323 3.91616C60.873 3.3293 61.3368 2.87022 61.9237 2.53893C62.52 2.20764 63.1968 2.04199 63.954 2.04199C64.6923 2.04199 65.3502 2.20291 65.9276 2.52473C66.505 2.84656 66.9593 3.3009 67.2906 3.88777C67.6219 4.47463 67.7876 5.16561 67.7876 5.96071C67.7876 6.03644 67.7828 6.12162 67.7734 6.21628C67.7734 6.31094 67.7686 6.40086 67.7592 6.48605H61.4409V5.30759H66.8221L66.1264 5.67675C66.1358 5.24133 66.0459 4.85798 65.8566 4.52669C65.6673 4.19539 65.407 3.93509 65.0757 3.74578C64.7539 3.55647 64.38 3.46182 63.954 3.46182C63.5186 3.46182 63.1353 3.55647 62.804 3.74578C62.4821 3.93509 62.2266 4.20013 62.0373 4.54089C61.8574 4.87218 61.7675 5.265 61.7675 5.71934V6.00331C61.7675 6.45765 61.8716 6.85993 62.0799 7.21016C62.2881 7.56038 62.5815 7.83015 62.9602 8.01946C63.3388 8.20877 63.7742 8.30342 64.2664 8.30342C64.6923 8.30342 65.0757 8.23717 65.4165 8.10465C65.7572 7.97213 66.0601 7.76389 66.3251 7.47993L67.2764 8.57319C66.9357 8.97074 66.505 9.27837 65.9844 9.49608C65.4732 9.70432 64.8864 9.80844 64.2238 9.80844Z" fill="white"/>
<path d="M70.2257 9.70905V2.12718H72.0005V5.2082H75.8198V2.12718H77.5946V9.70905H75.8198V6.71322H72.0005V9.70905H70.2257Z" fill="white"/>
<path d="M82.0461 9.70905V3.20625L82.4578 3.6322H79.3768V2.12718H86.4759V3.6322H83.4091L83.8208 3.20625V9.70905H82.0461Z" fill="white"/>
<path d="M31.4385 19.8497V14.0053H32.8065V16.3803H35.7506V14.0053H37.1187V19.8497H35.7506V17.5404H32.8065V19.8497H31.4385Z" fill="white"/>
<path d="M42.3887 19.8497V18.6677L42.3121 18.416V16.3475C42.3121 15.9462 42.1917 15.6361 41.9509 15.4172C41.7101 15.191 41.3453 15.0779 40.8565 15.0779C40.5281 15.0779 40.2034 15.129 39.8824 15.2311C39.5687 15.3333 39.3023 15.4755 39.0835 15.658L38.5472 14.662C38.8609 14.4212 39.233 14.2425 39.6635 14.1257C40.1013 14.0017 40.5537 13.9397 41.0206 13.9397C41.867 13.9397 42.52 14.144 42.9797 14.5526C43.4467 14.9539 43.6801 15.5777 43.6801 16.4241V19.8497H42.3887ZM40.55 19.9263C40.1122 19.9263 39.7292 19.8533 39.4008 19.7074C39.0725 19.5542 38.8171 19.3462 38.6347 19.0836C38.4596 18.8136 38.3721 18.5108 38.3721 18.1752C38.3721 17.8468 38.4487 17.5513 38.6019 17.2887C38.7624 17.026 39.0214 16.8181 39.379 16.6648C39.7365 16.5116 40.2107 16.435 40.8017 16.435H42.4981V17.3434H40.9002C40.4333 17.3434 40.1195 17.42 39.959 17.5732C39.7985 17.7192 39.7182 17.9016 39.7182 18.1205C39.7182 18.3685 39.8167 18.5655 40.0137 18.7115C40.2107 18.8574 40.4844 18.9304 40.8346 18.9304C41.1702 18.9304 41.4694 18.8537 41.732 18.7005C42.002 18.5473 42.1953 18.3211 42.3121 18.022L42.5419 18.8428C42.4106 19.1857 42.1735 19.452 41.8305 19.6417C41.4949 19.8314 41.0681 19.9263 40.55 19.9263Z" fill="white"/>
<path d="M51.4184 19.9263C50.9441 19.9263 50.51 19.8169 50.116 19.598C49.7293 19.3791 49.4192 19.0507 49.1857 18.613C48.9595 18.1679 48.8465 17.6061 48.8465 16.9275C48.8465 16.2417 48.9559 15.6798 49.1748 15.2421C49.401 14.8043 49.7074 14.4796 50.0941 14.268C50.4808 14.0491 50.9223 13.9397 51.4184 13.9397C51.9948 13.9397 52.5019 14.0637 52.9397 14.3118C53.3848 14.5599 53.735 14.9064 53.9904 15.3515C54.253 15.7966 54.3844 16.3219 54.3844 16.9275C54.3844 17.5331 54.253 18.0621 53.9904 18.5145C53.735 18.9595 53.3848 19.3061 52.9397 19.5542C52.5019 19.8023 51.9948 19.9263 51.4184 19.9263ZM48.1788 21.9729V14.0053H49.4812V15.3843L49.4375 16.9385L49.5469 18.4926V21.9729H48.1788ZM51.2652 18.7552C51.5935 18.7552 51.8854 18.6823 52.1407 18.5364C52.4034 18.3904 52.6114 18.1788 52.7646 17.9016C52.9178 17.6243 52.9944 17.2996 52.9944 16.9275C52.9944 16.5481 52.9178 16.2234 52.7646 15.9535C52.6114 15.6762 52.4034 15.4646 52.1407 15.3187C51.8854 15.1727 51.5935 15.0998 51.2652 15.0998C50.9369 15.0998 50.6413 15.1727 50.3787 15.3187C50.116 15.4646 49.9081 15.6762 49.7548 15.9535C49.6016 16.2234 49.525 16.5481 49.525 16.9275C49.525 17.2996 49.6016 17.6243 49.7548 17.9016C49.9081 18.1788 50.116 18.3904 50.3787 18.5364C50.6413 18.6823 50.9369 18.7552 51.2652 18.7552Z" fill="white"/>
<path d="M58.3617 19.9263C57.7123 19.9263 57.1432 19.7986 56.6543 19.5432C56.1728 19.2806 55.797 18.9231 55.527 18.4707C55.2644 18.0183 55.133 17.5039 55.133 16.9275C55.133 16.3438 55.2607 15.8294 55.5161 15.3843C55.7788 14.932 56.1363 14.5781 56.5887 14.3227C57.0483 14.0674 57.57 13.9397 58.1537 13.9397C58.7228 13.9397 59.2299 14.0637 59.675 14.3118C60.1201 14.5599 60.4703 14.9101 60.7257 15.3624C60.981 15.8148 61.1087 16.3475 61.1087 16.9603C61.1087 17.0187 61.1051 17.0844 61.0978 17.1573C61.0978 17.2303 61.0941 17.2996 61.0868 17.3653H56.2165V16.4569H60.3645L59.8282 16.7415C59.8355 16.4058 59.7662 16.1103 59.6203 15.855C59.4744 15.5996 59.2737 15.3989 59.0183 15.253C58.7703 15.1071 58.482 15.0341 58.1537 15.0341C57.8181 15.0341 57.5226 15.1071 57.2672 15.253C57.0191 15.3989 56.8221 15.6032 56.6762 15.8659C56.5376 16.1213 56.4683 16.4241 56.4683 16.7743V16.9932C56.4683 17.3434 56.5485 17.6535 56.709 17.9235C56.8696 18.1934 57.0957 18.4014 57.3876 18.5473C57.6795 18.6932 58.0151 18.7662 58.3945 18.7662C58.7228 18.7662 59.0183 18.7151 59.281 18.613C59.5437 18.5108 59.7771 18.3503 59.9814 18.1314L60.7147 18.9741C60.4521 19.2806 60.1201 19.5177 59.7188 19.6855C59.3248 19.846 58.8724 19.9263 58.3617 19.9263Z" fill="white"/>
<path d="M64.249 19.9482C64.789 19.9482 65.2669 19.8716 65.6828 19.7184C66.1059 19.5651 66.4379 19.3535 66.6787 19.0836C66.9195 18.8063 67.0399 18.4889 67.0399 18.1314C67.0399 17.6863 66.8538 17.3361 66.4817 17.0807C66.1096 16.8181 65.5988 16.6867 64.9495 16.6867L64.9057 16.9822C65.2851 16.9822 65.6207 16.9202 65.9126 16.7962C66.2117 16.6721 66.4452 16.5007 66.613 16.2818C66.7881 16.0556 66.8757 15.8039 66.8757 15.5266C66.8757 15.191 66.7553 14.8991 66.5145 14.6511C66.2738 14.403 65.9454 14.2133 65.5295 14.0819C65.1136 13.9506 64.6394 13.8959 64.1067 13.9178C63.7565 13.9251 63.4027 13.9761 63.0451 14.071C62.6949 14.1586 62.3337 14.2862 61.9616 14.4541L62.3118 15.4609C62.6329 15.3223 62.9466 15.2165 63.2531 15.1436C63.5668 15.0706 63.8696 15.0341 64.1615 15.0341C64.4387 15.0341 64.6759 15.0633 64.8729 15.1217C65.0699 15.1727 65.2194 15.253 65.3216 15.3624C65.431 15.4646 65.4858 15.585 65.4858 15.7236C65.4858 15.8622 65.442 15.9826 65.3544 16.0848C65.2669 16.1869 65.1392 16.2635 64.9714 16.3146C64.8108 16.3657 64.6138 16.3912 64.3804 16.3912H63.3625V17.3106H64.4898C64.8619 17.3106 65.1465 17.3726 65.3435 17.4966C65.5478 17.6134 65.6499 17.7885 65.6499 18.022C65.6499 18.1825 65.5879 18.3248 65.4639 18.4488C65.3471 18.5728 65.1793 18.6677 64.9604 18.7334C64.7415 18.7917 64.4789 18.8209 64.1724 18.8209C63.8149 18.8209 63.4574 18.7771 63.0999 18.6896C62.7423 18.602 62.4213 18.478 62.1367 18.3175L61.7537 19.3353C62.1039 19.5323 62.4943 19.6855 62.9247 19.795C63.3625 19.8971 63.8039 19.9482 64.249 19.9482Z" fill="white"/>
<path d="M68.8647 22.0495C68.5801 22.0495 68.2956 22.0021 68.011 21.9073C67.7265 21.8124 67.4893 21.6811 67.2996 21.5133L67.8469 20.5064C67.9855 20.6304 68.1424 20.7289 68.3175 20.8019C68.4926 20.8748 68.6713 20.9113 68.8537 20.9113C69.1018 20.9113 69.3025 20.8493 69.4557 20.7252C69.6089 20.6012 69.7512 20.3933 69.8825 20.1014L70.2218 19.3353L70.3313 19.1711L72.542 14.0053H73.8554L71.1193 20.3203C70.9369 20.7581 70.7326 21.1047 70.5064 21.36C70.2875 21.6154 70.0394 21.7942 69.7621 21.8963C69.4922 21.9985 69.193 22.0495 68.8647 22.0495ZM70.0686 20.0576L67.431 14.0053H68.8537L70.9989 19.0507L70.0686 20.0576Z" fill="white"/>
<path d="M73.4898 19.8387L73.5554 18.6896C73.6065 18.6969 73.6539 18.7042 73.6977 18.7115C73.7415 18.7188 73.7816 18.7224 73.8181 18.7224C74.0443 18.7224 74.2194 18.6531 74.3434 18.5145C74.4675 18.3758 74.5587 18.1898 74.617 17.9563C74.6827 17.7155 74.7265 17.4492 74.7484 17.1573C74.7776 16.8582 74.7995 16.559 74.814 16.2599L74.9125 14.0053H79.6406V19.8497H78.2725V14.7933L78.5899 15.1654H75.81L76.1055 14.7824L76.0289 16.3256C76.007 16.8436 75.9632 17.3252 75.8976 17.7702C75.8392 18.208 75.7443 18.5911 75.613 18.9194C75.489 19.2477 75.3138 19.5031 75.0877 19.6855C74.8688 19.8679 74.5879 19.9591 74.2449 19.9591C74.1355 19.9591 74.0151 19.9482 73.8838 19.9263C73.7597 19.9044 73.6284 19.8752 73.4898 19.8387Z" fill="white"/>
<path d="M84.3067 15.9316C85.0582 15.9316 85.631 16.0994 86.025 16.435C86.419 16.7706 86.616 17.2449 86.616 17.8578C86.616 18.4926 86.3971 18.9887 85.9593 19.3462C85.5215 19.6965 84.905 19.8679 84.1097 19.8606L81.3736 19.8497V14.0053H82.7416V15.9206L84.3067 15.9316ZM83.9893 18.8537C84.3906 18.861 84.697 18.7771 84.9086 18.602C85.1202 18.4269 85.226 18.1715 85.226 17.8359C85.226 17.5003 85.1202 17.2595 84.9086 17.1136C84.7043 16.9603 84.3979 16.8801 83.9893 16.8728L82.7416 16.8618V18.8428L83.9893 18.8537Z" fill="white"/>
<path d="M88.3787 19.8497V14.8371L88.6961 15.1654H86.3211V14.0053H91.7934V15.1654H89.4294L89.7468 14.8371V19.8497H88.3787Z" fill="white"/>
<path d="M96.2223 19.8497V18.6677L96.1457 18.416V16.3475C96.1457 15.9462 96.0253 15.6361 95.7845 15.4172C95.5438 15.191 95.1789 15.0779 94.6901 15.0779C94.3618 15.0779 94.0371 15.129 93.716 15.2311C93.4023 15.3333 93.136 15.4755 92.9171 15.658L92.3808 14.662C92.6945 14.4212 93.0667 14.2425 93.4971 14.1257C93.9349 14.0017 94.3873 13.9397 94.8543 13.9397C95.7006 13.9397 96.3537 14.144 96.8133 14.5526C97.2803 14.9539 97.5138 15.5777 97.5138 16.4241V19.8497H96.2223ZM94.3836 19.9263C93.9459 19.9263 93.5628 19.8533 93.2345 19.7074C92.9061 19.5542 92.6508 19.3462 92.4684 19.0836C92.2933 18.8136 92.2057 18.5108 92.2057 18.1752C92.2057 17.8468 92.2823 17.5513 92.4355 17.2887C92.5961 17.026 92.8551 16.8181 93.2126 16.6648C93.5701 16.5116 94.0444 16.435 94.6354 16.435H96.3318V17.3434H94.7339C94.2669 17.3434 93.9532 17.42 93.7926 17.5732C93.6321 17.7192 93.5519 17.9016 93.5519 18.1205C93.5519 18.3685 93.6504 18.5655 93.8474 18.7115C94.0444 18.8574 94.318 18.9304 94.6682 18.9304C95.0038 18.9304 95.303 18.8537 95.5657 18.7005C95.8356 18.5473 96.029 18.3211 96.1457 18.022L96.3755 18.8428C96.2442 19.1857 96.0071 19.452 95.6642 19.6417C95.3285 19.8314 94.9017 19.9263 94.3836 19.9263Z" fill="white"/>
<path d="M100.312 19.8497V14.8371L100.629 15.1654H98.2545V14.0053H103.727V15.1654H101.363L101.68 14.8371V19.8497H100.312Z" fill="white"/>
<path d="M107.5 13.7646L104.965 19.8496H106.993L109.529 13.7646H107.5Z" fill="#FF1864"/>
<circle cx="13.1841" cy="14.7769" r="13.1841" fill="#FF1864"/>
<path d="M7.09863 20.8628L11.7184 7.67871H14.6338L19.2686 20.8628H16.1887L12.5706 9.50565H13.7368L10.1187 20.8628H7.09863ZM9.62531 18.3013L10.3878 15.5515H15.501L16.2635 18.3013H9.62531Z" fill="white"/>
<path d="M17.7483 0.581055L15.2129 6.66602H17.2412L19.7766 0.581055H17.7483Z" fill="white"/>
</svg>
