<svg id="advatage-6" viewBox="0 0 36 36" fill="none" xmlns="http://www.w3.org/2000/svg">
    <path d="M16.9101 0.110643C16.6907 0.169155 16.3469 0.308125 16.1421 0.410522C15.6667 0.666515 14.7964 1.52958 14.5477 2.01231C14.1235 2.80224 14.1235 2.81686 14.1235 7.966V12.6909L13.5456 13.1517C12.2145 14.1976 11.3368 15.6678 10.9711 17.4378C10.854 17.9936 10.854 19.4199 10.9711 20.0123C11.8634 24.6934 16.9321 27.2167 21.1889 25.103C24.0341 23.6986 25.5847 20.5682 25.0142 17.4012C24.7216 15.7994 23.7415 14.161 22.4689 13.159L21.8764 12.6909V7.966C21.8764 2.81686 21.8764 2.80224 21.4522 2.01231C21.2035 1.52958 20.3404 0.666515 19.8577 0.417835C19.6529 0.308125 19.2945 0.169155 19.0605 0.103329C18.5192 -0.0356388 17.4367 -0.0356388 16.9101 0.110643ZM18.7679 4.08952C19.1263 4.24312 19.4847 4.58688 19.7041 4.99647C19.865 5.29635 19.865 5.31829 19.887 9.5751L19.9089 13.8539L20.5745 14.2927C21.7667 15.0826 22.5127 16.0554 22.915 17.3281C23.1564 18.1107 23.1564 19.3248 22.915 20.1074C22.6224 21.0436 22.2714 21.6141 21.5838 22.3017C20.8524 23.0404 20.1137 23.4646 19.1629 23.6913C17.978 23.9693 16.9248 23.8449 15.7326 23.2744C15.1547 22.9965 14.9499 22.8429 14.416 22.309C13.7285 21.6141 13.3774 21.0363 13.0848 20.1074C12.8435 19.3248 12.8435 18.1107 13.0848 17.3281C13.4871 16.0554 14.2332 15.0826 15.4254 14.2927L16.0909 13.8539L16.1129 9.5751C16.1348 5.31829 16.1348 5.29635 16.2957 4.99647C16.8077 4.03832 17.8024 3.67262 18.7679 4.08952Z" fill="#F14C1C"/>
    <path d="M17.5682 5.30368L17.3415 5.49385V9.85306C17.3415 13.2029 17.3196 14.2635 17.2464 14.4024C17.1952 14.4975 16.7783 14.834 16.3175 15.1412C14.7084 16.2017 14.1233 17.1672 14.1233 18.7178C14.1306 19.8953 14.4451 20.656 15.2497 21.4679C16.0615 22.2724 16.8295 22.5942 17.9998 22.5942C19.17 22.5942 19.938 22.2724 20.7499 21.4679C21.5544 20.656 21.8762 19.888 21.8762 18.7178C21.8762 17.9717 21.7885 17.5914 21.5032 16.9843C21.1887 16.326 20.6475 15.7775 19.682 15.1412C19.2212 14.834 18.8043 14.4975 18.7531 14.4024C18.68 14.2635 18.658 13.2029 18.658 9.85306V5.49385L18.4313 5.30368C18.307 5.19397 18.1168 5.11351 17.9998 5.11351C17.8827 5.11351 17.6926 5.19397 17.5682 5.30368Z" fill="#F14C1C"/>
    <path d="M1.83649 17.3269C0.155711 19.4212 -0.0276462 19.6856 0.00291337 19.9923L0.0334729 20.3413L0.98082 20.3942C1.66332 20.4365 1.94854 20.4894 2.01984 20.6058C2.07078 20.6904 2.12171 21.875 2.12171 23.25C2.12171 25.0481 2.15227 25.7779 2.24395 25.8731C2.32544 25.9577 2.85514 26 3.95528 26C5.05543 26 5.58513 25.9577 5.66662 25.8731C5.7583 25.7779 5.78886 25.0481 5.78886 23.25C5.78886 20.2462 5.72774 20.3942 7.00105 20.3942C7.78542 20.3942 7.83635 20.3837 7.9484 20.1298C8.09101 19.7913 8.08083 19.7702 5.96203 17.1471C4.51554 15.3385 4.19976 15 3.96547 15C3.74137 15 3.4154 15.3596 1.83649 17.3269Z" fill="#F14C1C"/>
    <path d="M29.8365 17.3269C28.1557 19.4212 27.9724 19.6856 28.0029 19.9923L28.0335 20.3413L28.9808 20.3942C29.6633 20.4365 29.9485 20.4894 30.0198 20.6058C30.0708 20.6904 30.1217 21.875 30.1217 23.25C30.1217 25.0481 30.1523 25.7779 30.2439 25.8731C30.3254 25.9577 30.8551 26 31.9553 26C33.0554 26 33.5851 25.9577 33.6666 25.8731C33.7583 25.7779 33.7889 25.0481 33.7889 23.25C33.7889 20.2462 33.7277 20.3942 35.0011 20.3942C35.7854 20.3942 35.8363 20.3837 35.9484 20.1298C36.091 19.7913 36.0808 19.7702 33.962 17.1471C32.5155 15.3385 32.1998 15 31.9655 15C31.7414 15 31.4154 15.3596 29.8365 17.3269Z" fill="#F14C1C"/>
    <path d="M0.646875 27.4289C0.175781 27.6609 0.0351562 27.9211 0.0351562 28.5469C0.0351562 29.1656 0.182813 29.4398 0.632813 29.6719C0.907031 29.8125 1.11094 29.8125 18 29.8125C34.8891 29.8125 35.093 29.8125 35.3672 29.6719C35.782 29.4609 35.9578 29.1586 35.9859 28.6172C36.0141 28.0336 35.8313 27.682 35.3742 27.443L35.0648 27.2812H18.007H0.949219L0.646875 27.4289Z" fill="#F14C1C"/>
    <path d="M1.68046 31.6477C1.2164 32.3438 0.843745 32.9273 0.857807 32.9344C0.87187 32.9414 1.23046 32.9344 1.65937 32.9203L2.44687 32.8922L3.26249 31.6688C3.71249 30.9938 4.07812 30.4313 4.07812 30.4102C4.07812 30.3891 3.73359 30.375 3.30468 30.375H2.53124L1.68046 31.6477Z" fill="#F14C1C"/>
    <path d="M4.83047 31.6055C4.37344 32.2805 4.00781 32.85 4.00781 32.8711C4.00781 32.8922 4.35234 32.9062 4.78125 32.9062H5.55469L6.32812 31.7391C6.75703 31.0992 7.12969 30.5297 7.15078 30.4734C7.17891 30.3891 7.05937 30.375 6.41953 30.375H5.64609L4.83047 31.6055Z" fill="#F14C1C"/>
    <path d="M7.92422 31.6055C7.46719 32.2805 7.10156 32.85 7.10156 32.8711C7.10156 32.8922 7.44609 32.9062 7.875 32.9062H8.64844L9.42188 31.7391C9.85078 31.0992 10.2234 30.5297 10.2445 30.4734C10.2727 30.3891 10.1531 30.375 9.51328 30.375H8.73984L7.92422 31.6055Z" fill="#F14C1C"/>
    <path d="M11.1444 31.4367C10.7577 32.0203 10.3851 32.5898 10.3147 32.7023L10.1812 32.9062H10.9827H11.7772L12.4804 31.8445C12.8671 31.2609 13.2397 30.6914 13.3101 30.5789L13.4437 30.375H12.6421H11.8476L11.1444 31.4367Z" fill="#F14C1C"/>
    <path d="M14.2382 31.4367C13.8515 32.0203 13.4788 32.5898 13.4085 32.7023L13.2749 32.9062H14.0765H14.871L15.5741 31.8445C15.9608 31.2609 16.3335 30.6914 16.4038 30.5789L16.5374 30.375H15.7358H14.9413L14.2382 31.4367Z" fill="#F14C1C"/>
    <path d="M17.3319 31.4367C16.9452 32.0203 16.5726 32.5898 16.5022 32.7023L16.3687 32.9062H17.1702H17.9647L18.6679 31.8445C19.0546 31.2609 19.4272 30.6914 19.4976 30.5789L19.6312 30.375H18.8296H18.0351L17.3319 31.4367Z" fill="#F14C1C"/>
    <path d="M20.3203 31.6406L19.4766 32.9062H20.2711H21.0727L21.8883 31.6758C22.3453 31.0008 22.7109 30.4313 22.7109 30.4102C22.7109 30.3891 22.3664 30.375 21.9375 30.375H21.1641L20.3203 31.6406Z" fill="#F14C1C"/>
    <path d="M23.4141 31.6406L22.5703 32.9062H23.3648H24.1664L24.982 31.6758C25.4391 31.0008 25.8047 30.4313 25.8047 30.4102C25.8047 30.3891 25.4602 30.375 25.0312 30.375H24.2578L23.4141 31.6406Z" fill="#F14C1C"/>
    <path d="M26.557 31.6055C26.1 32.2805 25.7344 32.85 25.7344 32.8711C25.7344 32.8922 26.0789 32.9062 26.5078 32.9062H27.2812L28.0547 31.7391C28.4836 31.0992 28.8562 30.5297 28.8773 30.4734C28.9055 30.3891 28.7859 30.375 28.1461 30.375H27.3727L26.557 31.6055Z" fill="#F14C1C"/>
    <path d="M29.6508 31.6055C29.1937 32.2805 28.8281 32.85 28.8281 32.8711C28.8281 32.8922 29.1727 32.9062 29.6016 32.9062H30.375L31.1484 31.7391C31.5773 31.0992 31.95 30.5297 31.9711 30.4734C31.9992 30.3891 31.8797 30.375 31.2398 30.375H30.4664L29.6508 31.6055Z" fill="#F14C1C"/>
    <path d="M32.7657 31.5773C32.3227 32.2383 31.95 32.8078 31.936 32.843C31.9219 32.8781 32.2524 32.9062 32.6813 32.9062H33.4618L34.2563 31.725C34.6993 31.0781 35.086 30.5086 35.1141 30.4594C35.1563 30.3961 34.9875 30.375 34.3688 30.375L33.5743 30.382L32.7657 31.5773Z" fill="#F14C1C"/>
    <path d="M0.808594 33.5531C0.555469 33.6445 0.232031 33.9258 0.0984375 34.1859C0.0421875 34.2914 0 34.5656 0 34.7906C0 35.2688 0.161719 35.5781 0.555469 35.8383L0.794531 36H18H35.2055L35.4445 35.8383C35.8383 35.5781 36 35.2688 36 34.7906C36 34.1789 35.7609 33.8063 35.2125 33.5742C34.9805 33.4828 33.1453 33.4688 17.9859 33.4758C6.37734 33.4758 0.95625 33.5039 0.808594 33.5531Z" fill="#F14C1C"/>
    <rect y="27.2637" width="36.0176" height="2.53125" fill="#F14C1C"/>
    <rect x="-0.0527344" y="33.5391" width="36.0176" height="2.53125" fill="#F14C1C"/>
</svg>
