<svg width="36" height="36" viewBox="0 0 36 36" fill="none" xmlns="http://www.w3.org/2000/svg" id="advatage-1">
  <path d="M4.70312 1.14359C4.5459 1.22562 4.38867 1.38284 4.30664 1.54691C4.18359 1.793 4.16992 1.94339 4.16992 3.49515V5.16995H8.27148H12.373V3.49515C12.373 1.94339 12.3594 1.793 12.2363 1.54691C12.1475 1.36917 12.0039 1.22562 11.8262 1.13675C11.5664 1.00687 11.4365 1.00003 8.25781 1.00003C5.10645 1.00687 4.94238 1.0137 4.70312 1.14359Z" fill="#F14C1C"/>
  <path d="M21.2598 3.16702C21.2051 3.19437 19.6943 4.18558 17.9033 5.38187C15.1758 7.20023 14.6357 7.58987 14.54 7.78812C14.4375 8.00003 14.4238 8.41702 14.4238 11.7256V15.4239H13.3984H12.373V11.3223V7.22073H8.27148H4.16992V11.3223V15.4239H2.49512C0.943359 15.4239 0.792969 15.4375 0.546875 15.5606C0.0683594 15.8067 0 16.0391 0 17.4746C0 18.9102 0.0683594 19.1426 0.546875 19.3887C0.813477 19.5254 0.90918 19.5254 17.5 19.5254C34.0908 19.5254 34.1865 19.5254 34.4531 19.3887C34.6309 19.2998 34.7744 19.1563 34.8633 18.9785C35 18.7119 35 18.5889 35 11.3223C35 4.05569 35 3.93265 34.8633 3.66605C34.7744 3.48831 34.6309 3.34476 34.4395 3.24905C33.9062 2.97562 33.8447 3.00296 31.2061 4.73929L28.8135 6.31155L28.7793 5.07425C28.7383 3.65237 28.6904 3.48831 28.2188 3.24905C27.6787 2.97562 27.624 3.00296 24.999 4.75296L22.627 6.33206V5.13577C22.627 4.06937 22.6133 3.9053 22.4902 3.66605C22.2783 3.24905 21.6768 3.0098 21.2598 3.16702ZM30.2832 10.4336C30.4609 10.5225 30.6045 10.666 30.6934 10.8438C30.8232 11.0967 30.8301 11.2403 30.8301 13.3731C30.8301 15.5059 30.8232 15.6494 30.6934 15.9024C30.6045 16.0801 30.4609 16.2237 30.2832 16.3125C30.0234 16.4492 29.8936 16.4492 24.6709 16.4492H19.332L19.0586 16.2989C18.5322 16.0049 18.5254 15.9434 18.5254 13.3594C18.5322 10.7959 18.5391 10.7686 19.0449 10.461L19.3115 10.2969H24.6641C29.8936 10.2969 30.0234 10.2969 30.2832 10.4336Z" fill="#F14C1C"/>
  <path d="M20.5762 13.3731V14.3985H22.1143H23.6523V13.3731V12.3477H22.1143H20.5762V13.3731Z" fill="#F14C1C"/>
  <path d="M25.7031 13.3731V14.3985H27.2412H28.7793V13.3731V12.3477H27.2412H25.7031V13.3731Z" fill="#F14C1C"/>
  <path d="M4.70312 21.7198C4.23828 21.959 4.16992 22.2051 4.16992 23.627C4.16992 25.4932 4.27246 25.6162 5.76953 25.6778L6.64453 25.7119L6.86328 26.3272C6.98633 26.6621 7.21191 27.2022 7.36914 27.5235L7.65625 28.1045L7.08203 28.6856C6.76758 29.0069 6.47363 29.335 6.43262 29.417C6.33008 29.6221 6.33691 30.0938 6.45312 30.3125C6.57617 30.5313 9.61133 33.5596 9.82324 33.669C10.0146 33.7647 10.4932 33.7647 10.6846 33.669C10.7666 33.628 11.1016 33.334 11.4229 33.0196L12.0039 32.4385L12.5781 32.7256C12.8926 32.8828 13.4326 33.1153 13.7744 33.2383L14.3896 33.4571L14.4238 34.3731C14.458 35.2549 14.4648 35.3028 14.6562 35.5489C14.9912 35.9932 15.0459 36 17.5342 36C19.6328 36 19.7764 35.9932 20.0293 35.8633C20.4531 35.6446 20.5352 35.4258 20.5762 34.3662L20.6104 33.4571L21.2529 33.2246C21.6084 33.1016 22.1484 32.876 22.4492 32.7188L23.0029 32.4453L23.584 33.0196C23.9053 33.334 24.2334 33.628 24.3154 33.669C24.5068 33.7647 24.9854 33.7647 25.1768 33.669C25.3887 33.5596 28.4238 30.5313 28.5469 30.3125C28.6631 30.0938 28.6699 29.6221 28.5674 29.417C28.5264 29.335 28.2324 29.0069 27.918 28.6856L27.3438 28.1045L27.6309 27.5235C27.7881 27.2022 28.0137 26.6621 28.1367 26.3272L28.3555 25.7119L29.2305 25.6778C30.7275 25.6162 30.8301 25.4932 30.8301 23.627C30.8301 22.1914 30.7617 21.959 30.2832 21.7129C30.0303 21.583 29.8867 21.5762 27.3301 21.5762H24.6436L24.6367 22.6563C24.6299 23.8252 24.5547 24.2354 24.1377 25.3018C23.4951 26.9629 21.8613 28.5967 20.2002 29.2393C19.1064 29.6631 18.7305 29.7315 17.5 29.7315C16.2695 29.7315 15.8936 29.6631 14.7998 29.2393C13.1387 28.5967 11.5049 26.9629 10.8623 25.3018C10.4453 24.2354 10.3701 23.8252 10.3633 22.6563L10.3564 21.5762H7.65625C5.09961 21.583 4.94238 21.5899 4.70312 21.7198Z" fill="#F14C1C"/>
  <path d="M12.4756 21.6446C12.4482 21.6856 12.4141 22 12.3935 22.3487C12.2432 24.8301 14.0137 27.1065 16.4883 27.6192C18.1699 27.9678 19.8994 27.4415 21.1162 26.2041C21.7861 25.5206 22.2236 24.7754 22.4697 23.8731C22.5859 23.4424 22.6406 21.9317 22.5449 21.6924C22.4971 21.5831 22.1894 21.5762 17.5068 21.5762C14.1299 21.5762 12.5029 21.5967 12.4756 21.6446Z" fill="#F14C1C"/>
</svg>
