<svg id="advatage-13" width="36" height="37" viewBox="0 0 36 37" fill="none" xmlns="http://www.w3.org/2000/svg">
<path d="M15.075 3.38394C14.8922 3.86206 14.6602 4.46675 14.5547 4.73394L14.3648 5.21206L13.5984 5.45112C12.6352 5.73941 11.9742 6.01362 11.0531 6.49878L10.3359 6.8855L9.07031 6.323C8.37422 6.01362 7.77656 5.7605 7.74844 5.7605C7.72031 5.7605 6.99609 6.46362 6.13828 7.32144L4.58437 8.8894L4.85156 9.48706C4.99922 9.81753 5.25937 10.4011 5.42812 10.7878L5.74453 11.498L5.46328 11.9832C5.07656 12.6652 4.53516 13.9308 4.28906 14.7746C4.16953 15.1613 4.07812 15.4917 4.07812 15.4988C4.07812 15.5058 3.48047 15.7449 2.74219 16.0261L1.40625 16.5394V18.7683V20.9972L2.74219 21.5105C3.48047 21.7917 4.07812 22.0308 4.07812 22.0378C4.07812 22.0449 4.17656 22.3753 4.28906 22.7691C4.53516 23.5988 5.06953 24.8574 5.46328 25.5535L5.74453 26.0386L5.42812 26.7488C5.25937 27.1355 4.99922 27.7191 4.85156 28.0496L4.58437 28.6472L6.13828 30.2082C6.99609 31.073 7.72031 31.7761 7.74844 31.7761C7.77656 31.7761 8.37422 31.523 9.07031 31.2136L10.3359 30.6511L11.0531 31.0378C11.9742 31.523 12.6352 31.7972 13.5984 32.0855L14.3648 32.3246L14.5547 32.8027C14.6602 33.0699 14.8922 33.6746 15.075 34.1527L15.4125 35.0105L17.6273 34.9964L19.8422 34.9753L20.0391 34.4832C20.1445 34.2089 20.3766 33.6042 20.5594 33.1261C20.8055 32.5074 20.925 32.2683 21.0094 32.2683C21.4453 32.2613 23.8359 31.291 24.6586 30.7847L24.8836 30.6441L26.1633 31.2066C26.8664 31.523 27.4781 31.7761 27.5203 31.7761C27.5625 31.7761 28.2937 31.08 29.1375 30.2363L30.6773 28.6964L30.1008 27.3886L29.5172 26.0878L29.25 26.0457C29.0883 26.0175 28.4695 26.0808 27.6258 26.2144C24.7219 26.6714 23.6531 26.6644 22.2047 26.1722L21.6633 25.9894L21.0305 26.2777C18.0492 27.6628 14.5125 27.1003 12.0305 24.8433C10.8422 23.7605 10.0406 22.3964 9.57656 20.6738C9.41484 20.0691 9.40078 19.8652 9.40078 18.7683C9.40078 17.6714 9.41484 17.4675 9.57656 16.8628C10.0406 15.1402 10.8422 13.7761 12.0305 12.6933C14.5055 10.4363 18.0492 9.87378 21.0234 11.2519L21.6492 11.5472L21.9867 11.2589C22.6055 10.7457 23.0695 10.1972 23.2945 9.71909L23.5195 9.24097L23.5406 7.70816L23.5687 6.18237L23.1187 5.97847C22.6477 5.7605 21.1641 5.26831 20.9953 5.26831C20.932 5.26831 20.7703 4.95191 20.5594 4.40347C20.3766 3.93237 20.1445 3.32066 20.0391 3.05347L19.8422 2.56128L17.6273 2.54019L15.4125 2.52612L15.075 3.38394Z" fill="#F14C1C"/>
<path d="M24.6094 7.11046C24.6094 9.10031 24.5531 9.47999 24.1734 10.2605C23.9344 10.7526 23.7727 10.9706 23.2453 11.4909C22.8867 11.8355 22.2469 12.3769 21.8109 12.6862L21.0234 13.2487V18.8105V24.3792L21.4102 24.6394C22.2891 25.223 23.1398 25.455 24.4336 25.4691C25.2984 25.4761 27.2391 25.2792 27.4219 25.1667C27.4781 25.1316 27.457 25.0261 27.3445 24.8081C27.2039 24.555 27.1758 24.3933 27.1758 23.9011C27.1758 23.2612 27.2813 22.9659 27.675 22.5019L27.8648 22.2769L27.682 22.087C27.3094 21.6862 27.1758 21.3136 27.1758 20.6667C27.1758 20.1323 27.1969 20.0269 27.3867 19.6964C27.5836 19.3308 27.5906 19.3167 27.457 19.2464C27.1758 19.0917 26.7328 18.5644 26.6063 18.2339C26.543 18.0441 26.4797 17.8823 26.4656 17.8683C26.4586 17.8542 26.3461 17.9105 26.2195 17.9878C26.0859 18.0722 25.8961 18.1355 25.7977 18.1355C25.4391 18.1355 25.1789 17.6292 25.4039 17.348C25.4461 17.2847 25.7133 17.1019 25.9805 16.9401C27.0773 16.2792 27.3234 15.9628 27.2531 15.33C27.1195 14.1417 27.1195 13.8956 27.2813 13.4808C27.3797 13.2206 27.5766 12.9183 27.8438 12.6159C28.0758 12.3628 28.2867 12.0745 28.3148 11.9691C28.35 11.8566 28.3711 11.062 28.3711 10.1901C28.3641 8.76984 28.35 8.5589 28.2094 8.11593C27.7594 6.65343 26.2969 5.48624 24.9117 5.47921H24.6094V7.11046Z" fill="#F14C1C"/>
<path d="M29.0738 7.42695C29.334 8.0457 29.4043 8.50977 29.4394 10.0004L29.4816 11.5332L30.0793 10.1902L30.6769 8.84023L29.9105 8.07383C29.1722 7.32852 28.9683 7.17383 29.0738 7.42695Z" fill="#F14C1C"/>
<path d="M28.7016 13.284C28.2094 13.5863 28.0477 14.2332 28.343 14.7605C28.6313 15.2738 28.6805 15.2879 30.9586 15.309C32.9063 15.3301 32.9977 15.323 33.293 15.1824C33.6938 14.9855 33.8907 14.6691 33.8907 14.2262C33.8907 13.8183 33.7079 13.4879 33.3844 13.284C33.1664 13.1504 33.0258 13.1433 31.043 13.1433C29.0602 13.1433 28.9196 13.1504 28.7016 13.284Z" fill="#F14C1C"/>
<path d="M16.5234 18.7683V23.9011H18.2461H19.9687V18.7683V13.6355H18.2461H16.5234V18.7683Z" fill="#F14C1C"/>
<path d="M28.0548 16.5042C27.7032 16.68 27.4782 17.0948 27.5134 17.5237C27.5485 17.9456 27.7243 18.1917 28.1321 18.4026C28.4415 18.5644 28.4485 18.5644 31.1626 18.5433C33.7852 18.5222 33.8907 18.5151 34.0735 18.3745C34.3899 18.1425 34.5446 17.8823 34.5727 17.5237C34.6079 17.1089 34.4462 16.7644 34.1087 16.5394C33.8696 16.3776 33.8626 16.3776 31.0852 16.3776C28.5751 16.3776 28.2798 16.3917 28.0548 16.5042Z" fill="#F14C1C"/>
<path d="M28.7014 19.7527C28.0193 20.1675 28.0264 21.1027 28.7084 21.6089C28.8983 21.7496 28.9897 21.7566 30.7826 21.7566C32.5334 21.7566 32.674 21.7496 32.899 21.616C33.6162 21.1941 33.6514 20.2308 32.9764 19.7667C32.7514 19.6191 32.7022 19.6121 30.8389 19.6121C29.06 19.6121 28.9193 19.6191 28.7014 19.7527Z" fill="#F14C1C"/>
<path d="M28.7016 22.9871C28.0266 23.4019 28.0266 24.4003 28.7016 24.8152C28.9125 24.9417 29.0602 24.9558 30.3398 24.9558C31.9078 24.9558 32.0555 24.9207 32.3438 24.4496C32.6391 23.9644 32.4633 23.2824 31.9781 22.9871C31.7672 22.8605 31.6195 22.8464 30.3398 22.8464C29.0602 22.8464 28.9125 22.8605 28.7016 22.9871Z" fill="#F14C1C"/>
</svg>
