<svg id="advatage-11" width="36" height="36" viewBox="0 0 36 36" fill="none" xmlns="http://www.w3.org/2000/svg">
<path fill-rule="evenodd" clip-rule="evenodd" d="M26.6667 2.18921H1V32.9892H26.6667V2.18921ZM12.9958 3.90037L2.71133 14.1848L3.3163 14.7898L13.6008 4.50534L12.9958 3.90037ZM2.71133 18.4626L12.9958 8.17815L13.6008 8.78312L3.3163 19.0676L2.71133 18.4626ZM24.1002 3.90032V12.4559H24.9558V3.90032H24.1002Z" fill="#F14C1C"/>
<path d="M19.2059 30.5738C19.483 29.4662 20.2668 27.777 21.0634 26.5069C21.2073 26.2766 21.3509 26.0588 21.4697 25.8954C21.5254 25.8189 21.5952 25.727 21.6679 25.6484C21.6964 25.6176 21.7718 25.537 21.8787 25.4642C21.9255 25.4322 22.055 25.3476 22.243 25.3068C22.4626 25.2592 22.8546 25.2627 23.1707 25.5789C23.2965 25.7046 23.3595 25.8377 23.3706 25.8613C23.3711 25.8623 23.3715 25.8631 23.3718 25.8637C23.3937 25.9093 23.4092 25.9494 23.4181 25.9736C23.4367 26.0238 23.4522 26.0743 23.4638 26.1142C23.4881 26.1976 23.5144 26.3001 23.5406 26.4089C23.594 26.6299 23.6574 26.9186 23.7198 27.2248L23.7199 27.2248L23.7218 27.2349C23.9414 28.3725 24.1952 28.9161 24.6965 29.5322C24.7133 29.5526 24.7299 29.5728 24.7464 29.5929C25.3754 30.3577 25.7797 30.8492 26.0055 31.2447C26.301 31.7624 26.3231 32.166 26.3448 32.561C26.3455 32.573 26.3462 32.5849 26.3468 32.5968C26.4401 34.2768 25.7709 35.8601 24.3624 36.6868L24.3625 36.6868L24.3589 36.6889C22.2609 37.9086 19.8271 36.5882 19.162 34.3521L19.162 34.3522L19.1605 34.347C18.866 33.3374 18.9098 31.7468 19.2059 30.5738Z" fill="#F14C1C" stroke="#F9F9F9" stroke-width="2"/>
<path d="M22.09 14.7644C25.7979 16.7859 28.1263 19.3731 28.8921 22.6091C29.815 22.0249 30.7053 21.7018 31.6736 21.6201L31.6736 21.6201L31.6819 21.6194C32.5749 21.5516 33.4776 21.6028 34.1146 22.2114C34.443 22.5202 34.7004 22.9623 34.6462 23.5511C34.604 24.0085 34.3751 24.442 34.1491 24.8149C33.7648 25.45 33.6398 25.9457 33.7059 26.938L33.706 26.9379L33.7065 26.9477C33.752 27.7477 33.8577 28.1786 34.9647 31.2647L34.9661 31.2687C35.1804 31.8742 35.3281 32.2973 35.4086 32.714C35.4926 33.1484 35.4987 33.5468 35.4987 34.0892C35.4987 35.0298 35.4643 35.5544 35.172 36.1391L34.951 36.5812L34.6768 37.1296L34.0636 37.1339L29.3884 37.1671L29.3854 37.1671C28.0495 37.1726 26.876 37.1671 26.0337 37.1532C25.6141 37.1462 25.2689 37.137 25.0246 37.1256C24.9055 37.12 24.7943 37.1132 24.7057 37.1041C24.667 37.1001 24.6006 37.0926 24.5309 37.0777C24.504 37.0719 24.4204 37.0538 24.3238 37.0117C24.2794 36.9924 24.1714 36.9426 24.059 36.844C23.9517 36.7499 23.7171 36.4982 23.7171 36.0897C23.7171 35.7471 23.8819 35.497 23.9381 35.4156C24.0034 35.3208 24.0838 35.229 24.1764 35.1466C24.1885 35.1279 24.2115 35.0907 24.2446 35.028C24.3148 34.8951 24.3968 34.7122 24.4789 34.499C24.6471 34.0627 24.7787 33.5974 24.82 33.2946C24.9036 32.6484 24.8749 32.2886 24.761 31.9629C24.6368 31.6079 24.3765 31.192 23.7969 30.4995C23.3167 29.931 22.9622 29.4843 22.702 28.9332C22.4462 28.3914 22.3053 27.7984 22.1357 26.9884L22.1357 26.9884C21.9775 26.2331 21.8343 25.7366 21.7097 25.4231C21.4933 25.7057 21.231 26.0881 20.9546 26.525C20.3638 27.4589 19.765 28.5528 19.4535 29.3164L19.4527 29.3184C18.883 30.7064 18.7198 31.4859 18.7097 32.6014C18.7103 33.7217 18.9459 34.4863 19.3469 35.0367L19.3533 35.0455L19.3596 35.0545C19.4516 35.1868 19.5404 35.3181 19.6089 35.4258C19.642 35.4778 19.6782 35.5365 19.7091 35.5924C19.7237 35.6188 19.7463 35.6609 19.768 35.7103C19.7787 35.7346 19.7959 35.7757 19.8119 35.827C19.8229 35.8621 19.8592 35.9797 19.8592 36.1339C19.8592 36.4526 19.7127 36.6799 19.6049 36.8006C19.5025 36.9153 19.3976 36.9794 19.3457 37.0084C19.2407 37.0671 19.149 37.0929 19.1217 37.1004C19.0515 37.12 18.9922 37.1281 18.9738 37.1307C18.9237 37.1376 18.874 37.1413 18.8405 37.1436C18.7661 37.1486 18.6688 37.1526 18.5593 37.1561C18.3365 37.1631 18.0206 37.1691 17.6381 37.1739C16.8712 37.1837 15.8167 37.1892 14.6592 37.1892H10.4592H9.90213L9.60892 36.7156L9.32444 36.256C8.40733 34.8092 7.98805 33.2372 8.00026 31.4298L8.00027 31.4291C8.0126 29.7891 8.33305 28.5586 9.11925 26.962C9.47963 26.2243 9.83281 25.6094 10.1749 25.1582C10.3458 24.9329 10.5352 24.7197 10.7449 24.55C10.944 24.389 11.2363 24.206 11.6071 24.165C11.797 24.1429 12.1035 24.1242 12.4218 24.2456C12.7958 24.3884 13.0375 24.6629 13.1806 24.9543C13.2519 25.0996 13.3013 25.2537 13.3372 25.4053C13.3797 25.3261 13.4241 25.2472 13.4706 25.1685C14.1311 24.0494 15.1499 23.0645 16.5966 21.9037C18.2109 20.6011 18.4758 20.2268 18.6459 19.7521C18.7991 19.3123 18.7742 18.6592 17.9961 17.0696C17.7343 16.5461 17.4452 15.9597 17.3652 15.7708C17.3441 15.7222 17.2955 15.6046 17.2749 15.4548C17.2498 15.2728 17.2604 14.9959 17.4366 14.7262C17.5985 14.4784 17.8185 14.3642 17.9433 14.3135C18.07 14.262 18.188 14.2398 18.2635 14.2283C18.5197 14.1892 18.9363 14.1892 19.4723 14.1892H19.4892H19.5618L19.6337 14.1997L20.9203 14.3876L21.0009 14.3994L21.0784 14.424L21.9139 14.6893L22.0055 14.7183L22.09 14.7644ZM21.5199 25.0599C21.5199 25.0599 21.5203 25.0603 21.521 25.0611C21.5203 25.0602 21.5199 25.0599 21.5199 25.0599Z" fill="#F14C1C" stroke="#F9F9F9" stroke-width="2"/>
</svg>
