<svg id="advatage-9" width="36" height="37" viewBox="0 0 36 37" fill="none" xmlns="http://www.w3.org/2000/svg">
    <path d="M3 9.44444C3 8.53092 3.3629 7.65481 4.00885 7.00885C4.65481 6.3629 5.53092 6 6.44444 6H12.0933C12.4546 6.00027 12.8067 6.11418 13.0997 6.32559C13.3927 6.537 13.6118 6.8352 13.726 7.178L16.3059 14.9159C16.4366 15.3092 16.4211 15.7364 16.2623 16.1192C16.1035 16.5019 15.812 16.8146 15.4413 16.9998L11.5543 18.9459C13.4596 23.1629 16.8371 26.5404 21.0541 28.4457L23.0002 24.5587C23.1854 24.188 23.4981 23.8965 23.8808 23.7377C24.2636 23.5789 24.6908 23.5634 25.0841 23.6941L32.822 26.274C33.1651 26.3883 33.4635 26.6076 33.6749 26.901C33.8864 27.1943 34.0001 27.5468 34 27.9084V33.5556C34 34.4691 33.6371 35.3452 32.9911 35.9911C32.3452 36.6371 31.4691 37 30.5556 37H28.8333C14.5664 37 3 25.4336 3 11.1667V9.44444Z" fill="#F14C1C"/>
</svg>
