<svg width="36" height="36" viewBox="0 0 36 36" fill="none" xmlns="http://www.w3.org/2000/svg" id="advatage-2">
  <path d="M17.2813 2.11624C17.3086 2.1846 17.4795 2.53323 17.6573 2.8887C18.1494 3.89359 18.2725 4.50198 18.0879 5.02835C17.917 5.50687 17.6162 5.83499 16.625 6.6348C14.8614 8.04984 14.3965 8.8428 14.294 10.5791L14.2461 11.3994L14.0889 11.0576C13.8633 10.5518 13.7471 9.98441 13.6924 9.12991C13.6446 8.27542 13.5694 8.12503 13.2207 8.16605C12.961 8.19339 12.5987 8.67191 12.168 9.55374C11.7168 10.4698 11.5459 11.1397 11.5391 12.0489C11.5323 13.0606 11.7647 13.9151 12.2637 14.7012L12.4414 14.9883H15.0391C16.4678 14.9883 17.6367 14.9746 17.6367 14.9541C17.6367 14.9336 17.5479 14.7969 17.4385 14.6397C17.0899 14.1612 16.9258 13.5459 16.9258 12.7666C16.9326 11.9805 17.0557 11.42 17.4317 10.5039C17.8555 9.46487 18.9971 7.66019 19.291 7.56448C19.7285 7.42776 19.9951 7.86526 20.2686 9.17093C20.4805 10.1826 20.5694 10.3672 21.1641 11.0713C21.9024 11.9532 22.0528 12.3838 21.9365 13.2793C21.8682 13.7852 21.5401 14.6328 21.3555 14.7901C21.3008 14.8311 21.2598 14.8926 21.2598 14.9268C21.2598 14.961 22.4971 14.9815 24.1446 14.9746L27.0362 14.9541L27.1729 14.6807C27.2823 14.4619 27.3096 14.2705 27.3096 13.6895C27.3096 13.0127 27.2891 12.9239 27.0156 12.1514C26.3389 10.2647 26.2364 9.90921 26.2022 9.30765C26.1543 8.58987 26.25 8.15237 26.5645 7.63284C26.8379 7.18167 26.8516 6.98343 26.6465 6.79202C26.4619 6.61429 26.1543 6.55276 25.6143 6.59378C25.0469 6.64163 24.5137 6.85355 23.8985 7.29788L23.3926 7.66019L23.3448 7.30472C23.0781 5.26077 21.7588 3.59964 19.3389 2.2803L18.8222 2.11624L18.0264 2.00003C17.2949 2.00003 17.2334 2.00687 17.2813 2.11624Z" fill="#F14C1C"/>
  <path d="M18.9834 9.32816C18.5117 10.0801 18.0606 11.0645 17.9102 11.6661C17.7461 12.3155 17.7324 13.1836 17.876 13.6758C18.1973 14.7559 19.3047 15.2754 20.1865 14.7627C20.8155 14.3936 21.1573 13.6621 21.1094 12.8008C21.0821 12.3086 21.0821 12.3018 20.2276 11.2627C19.8379 10.7842 19.6465 10.3467 19.4961 9.56742C19.4209 9.19828 19.3457 8.88383 19.3252 8.86332C19.3047 8.84281 19.1543 9.05472 18.9834 9.32816Z" fill="#F14C1C"/>
  <path d="M4.30664 18.0987V20.3887H7.75879H11.2109V18.0987V15.8086H7.75879H4.30664V18.0987Z" fill="#F14C1C"/>
  <path d="M12.0996 18.0987V20.3887H15.5518H19.0039V18.0987V15.8086H15.5518H12.0996V18.0987Z" fill="#F14C1C"/>
  <path d="M19.8926 18.0987V20.3887H23.3447H26.7969V18.0987V15.8086H23.3447H19.8926V18.0987Z" fill="#F14C1C"/>
  <path d="M27.6855 18.0987V20.3887H31.1377H34.5898V18.0987V15.8086H31.1377H27.6855V18.0987Z" fill="#F14C1C"/>
  <path d="M0.410156 23.4991V25.7891H3.8623H7.31445V23.4991V21.209H3.8623H0.410156V23.4991Z" fill="#F14C1C"/>
  <path d="M8.20312 23.4991V25.7891H11.6553H15.1074V23.4991V21.209H11.6553H8.20312V23.4991Z" fill="#F14C1C"/>
  <path d="M15.9961 23.4991V25.7891H19.4482H22.9004V23.4991V21.209H19.4482H15.9961V23.4991Z" fill="#F14C1C"/>
  <path d="M23.7891 23.4991V25.7891H27.2412H30.6934V23.4991V21.209H27.2412H23.7891V23.4991Z" fill="#F14C1C"/>
  <path d="M4.30664 28.8994V31.1895H7.75879H11.2109V28.8994V26.6094H7.75879H4.30664V28.8994Z" fill="#F14C1C"/>
  <path d="M12.0996 28.8994V31.1895H15.5518H19.0039V28.8994V26.6094H15.5518H12.0996V28.8994Z" fill="#F14C1C"/>
  <path d="M19.8926 28.8994V31.1895H23.3447H26.7969V28.8994V26.6094H23.3447H19.8926V28.8994Z" fill="#F14C1C"/>
  <path d="M27.6855 28.8994V31.1895H31.1377H34.5898V28.8994V26.6094H31.1377H27.6855V28.8994Z" fill="#F14C1C"/>
  <path d="M0.410156 34.2998V36.5899H3.8623H7.31445V34.2998V32.0098H3.8623H0.410156V34.2998Z" fill="#F14C1C"/>
  <path d="M8.20312 34.2998V36.5899H11.6553H15.1074V34.2998V32.0098H11.6553H8.20312V34.2998Z" fill="#F14C1C"/>
  <path d="M15.9961 34.2998V36.5899H19.4482H22.9004V34.2998V32.0098H19.4482H15.9961V34.2998Z" fill="#F14C1C"/>
  <path d="M23.7891 34.2998V36.5899H27.2412H30.6934V34.2998V32.0098H27.2412H23.7891V34.2998Z" fill="#F14C1C"/>
</svg>
