<svg id="advatage-15" width="36" height="36" viewBox="0 0 36 36" fill="none" xmlns="http://www.w3.org/2000/svg">
    <path d="M29.25 2.47505C29.25 2.82661 29.0602 3.49458 28.8492 3.8813C28.7438 4.07114 28.4555 4.46489 28.2094 4.76723C27.3164 5.82895 27.0773 6.3352 27.0211 7.27739C26.9789 7.95942 27.1266 8.65552 27.4219 9.1688C27.5344 9.36567 27.8648 9.80864 28.1531 10.1602C28.9758 11.1446 29.25 11.8055 29.25 12.7899C29.25 13.6758 28.9617 14.3508 28.1391 15.3563C27.2602 16.4321 27 17.0438 27 18C27 18.9563 27.2602 19.568 28.1391 20.6438C29.0391 21.7547 29.3133 22.4579 29.2289 23.5055C29.1656 24.4125 28.8633 25.0102 27.9563 26.086C27.0984 27.0915 26.8102 28.2094 27.1055 29.3415C27.2602 29.9391 27.4852 30.3399 28.1109 31.1063C28.4203 31.486 28.7508 31.943 28.8563 32.1258C29.0883 32.5547 29.25 33.1875 29.25 33.6657V34.0383L31.1414 34.0172C32.9273 33.9961 33.0469 33.9891 33.2297 33.8485C33.3352 33.7711 33.4898 33.6165 33.5672 33.511L33.7148 33.3211V18.1407V2.9602L33.5672 2.77036C33.4898 2.66489 33.3352 2.5102 33.2297 2.43286C33.0469 2.29223 32.9273 2.2852 31.1414 2.26411L29.25 2.24302V2.47505Z" fill="#F14C1C"/>
    <path d="M11.8195 12.0867C10.0828 13.2469 8.61328 14.2664 8.55 14.3508C8.45156 14.4984 8.4375 14.9273 8.4375 18.2602V22.0008L8.59922 22.1766C8.85938 22.4789 14.9625 26.0859 15.2016 26.0859C15.3211 26.0859 15.4758 26.0156 15.5742 25.9102L15.75 25.7414V18.0352V10.3289L15.5742 10.1602C15.2367 9.81563 15.2086 9.82969 11.8195 12.0867Z" fill="#F14C1C"/>
    <path d="M22.8587 11.2992C22.6899 11.3695 18.8157 14.1398 18.6892 14.2875C18.4009 14.6109 18.6751 15.1875 19.104 15.1875C19.2446 15.1875 19.8634 14.7867 21.3751 13.7109C22.5142 12.8953 23.4704 12.1922 23.4985 12.143C23.604 11.9813 23.5548 11.6016 23.4142 11.4609C23.3368 11.3836 23.2454 11.3203 23.2103 11.3203C23.1751 11.3203 23.1048 11.3063 23.0485 11.2922C22.9993 11.2711 22.9149 11.2781 22.8587 11.2992Z" fill="#F14C1C"/>
    <path d="M3.37539 14.7164C3.03086 14.8289 2.44023 15.4336 2.33477 15.7922C2.21523 16.2 2.21523 20.3625 2.33477 20.7703C2.44727 21.157 3.03086 21.7406 3.41758 21.8531C3.61445 21.9094 4.30352 21.9375 5.51289 21.9375H7.31289V18.2812V14.625L5.4707 14.632C4.33867 14.6391 3.52305 14.6672 3.37539 14.7164Z" fill="#F14C1C"/>
    <path d="M18.7383 17.6133C18.6258 17.7188 18.5625 17.8664 18.5625 18C18.5625 18.1336 18.6258 18.2812 18.7383 18.3867L18.907 18.5625H21.0938H23.2805L23.4492 18.3867C23.5617 18.2812 23.625 18.1336 23.625 18C23.625 17.8664 23.5617 17.7188 23.4492 17.6133L23.2805 17.4375H21.0938H18.907L18.7383 17.6133Z" fill="#F14C1C"/>
    <path d="M18.7525 20.8969C18.5978 21.0234 18.5064 21.3047 18.5626 21.5156C18.6189 21.7617 22.7954 24.75 23.0837 24.75C23.4845 24.75 23.7728 24.2016 23.5407 23.8852C23.4915 23.8219 22.5142 23.1047 21.3751 22.2891C19.2306 20.7633 19.0548 20.6719 18.7525 20.8969Z" fill="#F14C1C"/>
</svg>
