<svg id="advatage-14" width="29" height="32" viewBox="0 0 29 32" fill="none" xmlns="http://www.w3.org/2000/svg">
<path d="M3.75625 1.20044V2.16919H1.88125H0L0.01875 9.49419C0.04375 16.0879 0.05625 16.9004 0.15 17.5754C0.9375 22.9379 3.69375 26.7129 9.1 29.8254C10.4187 30.5879 13.875 32.2317 14.1562 32.2317C14.2125 32.2317 14.6188 32.0754 15.0563 31.8817C19.0562 30.1129 21.7938 28.3879 23.8563 26.3317C24.7 25.4879 25.2063 24.8754 25.8188 23.9442C27.1812 21.8817 27.9688 19.4692 28.1875 16.6754C28.2313 16.1442 28.2563 13.2754 28.2563 9.00044V2.16919H26.3813H24.5063V1.20044V0.231689H14.1313H3.75625V1.20044ZM20.6938 6.85669V7.79419H19.7563H18.8188V9.33794C18.8125 10.3629 18.7875 11.0442 18.7313 11.3567C18.5438 12.3692 18.0938 13.2067 17.3313 13.9379L16.8875 14.3629L17.1438 14.5942C18.0375 15.4004 18.5312 16.2504 18.7313 17.3567C18.7875 17.6692 18.8125 18.3504 18.8188 19.3692V20.9192H19.7563H20.6938V21.8567V22.7942H14.1313H7.56875V21.8567V20.9192H8.50625H9.44375V19.3317C9.44375 17.6129 9.5 17.1004 9.775 16.4192C10.0312 15.8004 10.3188 15.3629 10.8375 14.8442L11.325 14.3504L10.8875 13.9192C10.3813 13.4254 10.0312 12.9129 9.7875 12.3129C9.5 11.5879 9.44375 11.1192 9.44375 9.38169V7.79419H8.50625H7.56875V6.85669V5.91919H14.1313H20.6938V6.85669Z" fill="#F14C1C"/>
<path d="M11.2559 9.37538C11.2559 11.0879 11.2996 11.4191 11.6059 11.9879C11.8559 12.4379 12.3496 12.8941 12.8746 13.1566C13.2996 13.3629 13.3934 13.3879 13.9684 13.4066C14.4934 13.4254 14.6684 13.4066 14.9996 13.2941C15.7871 13.0316 16.3684 12.5254 16.6996 11.8254C16.9621 11.2691 17.0059 10.9254 17.0059 9.28788V7.79413H14.1309H11.2559V9.37538Z" fill="#F14C1C"/>
<path d="M13.2246 15.4067C12.2809 15.7317 11.5934 16.4567 11.3496 17.3879C11.2809 17.6754 11.2559 18.1192 11.2559 19.3379V20.9192H14.1309H17.0059V19.4254C17.0059 17.7879 16.9621 17.4442 16.6996 16.8879C16.3684 16.1942 15.7809 15.6817 15.0184 15.4254C14.5246 15.2567 13.6809 15.2504 13.2246 15.4067Z" fill="#F14C1C"/>
</svg>
