<svg id="advatage-7" viewBox="0 0 36 36" fill="none" xmlns="http://www.w3.org/2000/svg">
    <path d="M19.8913 2.94042C17.5509 4.0041 15.6102 4.90018 15.578 4.93241C15.5329 4.97754 15.0364 8.11057 15.0235 8.4329C15.0235 8.45868 16.1002 8.47158 17.4219 8.46513L19.8203 8.44579L19.9364 7.93651C20.0009 7.65286 20.0653 7.40789 20.0847 7.395C20.1298 7.34987 21.8577 7.77535 21.8577 7.83981C21.8577 7.89783 21.3612 10.0445 21.3032 10.2315C21.271 10.3411 21.0582 10.3475 18.0215 10.3475H14.7657L14.727 10.5022C14.7076 10.5925 14.7141 10.7021 14.7399 10.7472C14.7657 10.7923 15.3524 11.5788 16.0358 12.4878L17.2801 14.151H20.1491H23.0182V15.5499V16.9553L23.2632 17.1229C23.6887 17.4259 24.4302 18.1479 24.8621 18.6894C25.5455 19.5403 26.1387 20.604 26.4997 21.6677L26.6158 22.0029L25.7454 22.2415C25.2554 22.3768 24.8557 22.4606 24.8299 22.4284C24.8041 22.3962 24.7267 22.2221 24.6623 22.0481C23.895 19.9142 22.1091 18.1672 19.9493 17.4452C16.0551 16.143 11.7741 18.1995 10.4137 22.0223L10.2396 22.5122L9.34992 22.2543L8.45375 21.9965L8.65361 21.4421C9.00821 20.4429 9.60781 19.3921 10.3041 18.554C10.4911 18.3348 10.6394 18.1285 10.6394 18.0963C10.6394 17.9867 9.12427 17.2518 8.44085 17.0262C7.07402 16.5749 6.24877 16.4718 3.82459 16.4718H2V25.2327V34L2.30302 33.9097C2.4771 33.8582 3.75367 33.4843 5.14628 33.0781L7.67362 32.3368L7.95086 32.4335C8.38283 32.5882 9.97531 33.033 10.6071 33.1748C12.9346 33.7035 14.727 33.9226 17.1512 33.9871C20.7939 34.0774 24.3979 33.5423 27.8859 32.3884C28.5242 32.1756 30.381 31.4729 32.0122 30.8218L34.9779 29.6421L34.9973 28.1981C35.0489 24.1883 34.3654 19.2696 33.1405 14.8601C32.5473 12.7263 31.5351 9.74155 30.6131 7.43368L30.3359 6.74389L27.2799 3.87517C25.6036 2.29576 24.2109 1 24.1852 1C24.1658 1 22.2316 1.87674 19.8913 2.94042Z" fill="#F14C1C"/>
</svg>
