<svg width="36" height="36" viewBox="0 0 36 36" fill="none" xmlns="http://www.w3.org/2000/svg" id="advatage-4">
<path fill-rule="evenodd" clip-rule="evenodd" d="M-1 7.00005C1.76142 7.00005 4 4.76148 4 2.00005C4 2.00004 4 2.00004 4 2.00003H28C28 2.00004 28 2.00004 28 2.00005C28 4.76148 30.2386 7.00005 33 7.00005V31.0001C30.2386 31.0001 28 33.2386 28 36.0001H4C4 33.2386 1.76142 31.0001 -1 31.0001V7.00005ZM15.9023 3.75865L18.1001 14.5938L24.3959 10.791L20.7805 16.7767L28.5057 19.0977L20.6849 21.4475L24.3959 27.5914L18.0663 23.7681L15.9023 34.4368L13.7587 23.8687L7.59558 27.5914L11.2779 21.495L3.29885 19.0977L11.1823 16.7291L7.59558 10.791L13.7249 14.4932L15.9023 3.75865ZM19.5172 19C19.5172 20.9425 17.9425 22.5173 16 22.5173C14.0575 22.5173 12.4828 20.9425 12.4828 19C12.4828 17.0575 14.0575 15.4828 16 15.4828L12.954 20.6121H19.046L16 15.4828C17.9425 15.4828 19.5172 17.0575 19.5172 19Z" fill="#F14C1C"/>
</svg>
