<svg ig="advatage-5" viewBox="0 0 36 36" fill="none" xmlns="http://www.w3.org/2000/svg">
    <path d="M16.5182 0.236883C14.336 0.492247 13.005 0.886902 11.3026 1.77681C10.0877 2.40362 9.12812 3.12328 8.04475 4.20665C6.86853 5.38288 6.20303 6.296 5.49884 7.72759C3.84284 11.0551 3.58747 14.6998 4.75596 18.1976C5.90897 21.6334 8.36203 24.4269 11.6431 26.0288C13.3997 26.8877 14.8468 27.2824 16.7194 27.4139C19.9773 27.6461 23.1268 26.7407 25.7423 24.8216C27.9478 23.2043 29.6579 20.875 30.5556 18.2672C32.1574 13.6165 31.136 8.47047 27.8704 4.77929C25.2858 1.84646 21.4321 0.136284 17.5474 0.190453C17.1063 0.198191 16.6498 0.221405 16.5182 0.236883ZM19.8612 2.88339C25.3864 4.01319 29.2633 9.15918 28.7835 14.7308C28.3347 19.8845 24.5042 24.0168 19.4201 24.8371C18.5689 24.9763 16.8355 24.9918 16.0539 24.868C13.7092 24.5043 11.6895 23.5061 9.9716 21.8655C7.21675 19.25 6.00183 15.4427 6.72924 11.7051C7.64236 6.96923 11.5425 3.34769 16.3712 2.73636C17.2224 2.62803 18.9713 2.70541 19.8612 2.88339Z" fill="#F14C1C"/>
    <path d="M16.4796 3.97453C12.417 4.493 9.09722 7.40261 8.07576 11.3182C6.62869 16.9053 10.2812 22.6084 15.9302 23.5835C16.8588 23.7382 18.4916 23.746 19.3892 23.5912C22.0744 23.1192 24.4656 21.5406 25.9591 19.2577C26.6942 18.1357 27.1353 17.0601 27.4061 15.6981C27.5918 14.7386 27.6073 13.0593 27.4371 12.092C27.0811 10.1033 26.1216 8.27705 24.6822 6.83772C23.2506 5.40612 21.5018 4.46205 19.5595 4.0906C18.7934 3.94358 17.1838 3.88167 16.4796 3.97453ZM18.2517 7.20916C18.5303 7.50321 18.9946 8.18419 19.8071 9.48423L20.2327 10.1575L21.2232 10.3973C22.531 10.7069 23.6066 11.0551 23.8542 11.2486C24.1173 11.4575 24.187 11.8367 24.0322 12.2081C23.9084 12.5099 23.7923 12.6569 22.531 14.1659L21.8036 15.0326L21.8887 16.0076C21.997 17.2613 21.997 18.6155 21.8887 18.8554C21.7881 19.0798 21.4399 19.2964 21.1845 19.2964C20.9446 19.2964 20.1398 19.0256 18.7469 18.4684L17.6558 18.0351L16.8123 18.3911C15.7058 18.8554 14.4212 19.2964 14.189 19.2964C13.9337 19.2964 13.5622 19.103 13.4616 18.9173C13.361 18.7238 13.361 17.122 13.4616 15.9535L13.5468 15.0481L12.7652 14.135C11.7824 12.9897 11.2175 12.1617 11.2175 11.8676C11.2175 11.2021 11.6354 10.9932 14.2742 10.3587L15.1254 10.1575L15.6671 9.25981C16.3094 8.19192 17.0135 7.21689 17.2612 7.03891C17.5862 6.8145 17.9421 6.87641 18.2517 7.20916Z" fill="#F14C1C"/>
    <path d="M17.5086 8.66396C17.4235 8.78778 17.0985 9.30624 16.7889 9.81698C15.9068 11.264 15.9455 11.2331 14.1734 11.6742C12.8424 12.0069 12.6954 12.0534 12.7805 12.1694C12.8346 12.2391 13.268 12.7653 13.7478 13.3457C14.2275 13.926 14.6532 14.4909 14.6996 14.607C14.7538 14.754 14.746 15.288 14.6841 16.3172C14.6299 17.1452 14.6067 17.8416 14.6299 17.8571C14.6532 17.8803 15.2877 17.6559 16.0383 17.3619C16.7967 17.0601 17.5086 16.8202 17.6324 16.8202C17.8878 16.8202 18.6152 17.0678 19.7992 17.5553C20.2789 17.7488 20.6891 17.8958 20.7123 17.8726C20.7355 17.8494 20.7123 17.1607 20.6581 16.3327C20.5807 15.0326 20.5807 14.8005 20.6813 14.5683C20.7432 14.4213 21.2153 13.8022 21.7337 13.1909C22.2522 12.5796 22.6623 12.0688 22.6546 12.0611C22.6391 12.0456 21.9891 11.8754 21.1998 11.6742C20.4105 11.473 19.6676 11.2563 19.5515 11.1867C19.42 11.1015 19.0485 10.5985 18.6074 9.89436C17.6015 8.29252 17.6943 8.39312 17.5086 8.66396Z" fill="#F14C1C"/>
    <path d="M4.22972 27.7931C2.96837 29.9908 1.96239 31.8015 2.00108 31.817C2.03977 31.8325 3.22374 31.6081 4.63211 31.3295C7.02326 30.8575 7.20124 30.8265 7.41018 30.9348C7.65007 31.0587 7.73519 31.2908 9.0507 35.1832C9.23642 35.7249 9.40667 36.1427 9.43762 36.1118C9.54596 35.9957 13.8717 28.4663 13.9026 28.3502C13.9259 28.2651 13.7014 28.1645 13.005 27.9401C11.4883 27.4526 9.7162 26.5008 8.43164 25.4793C8.19949 25.2936 7.68876 24.837 7.30184 24.4656C6.91492 24.0942 6.58217 23.7846 6.5667 23.7846C6.55122 23.7924 5.49881 25.5877 4.22972 27.7931Z" fill="#F14C1C"/>
    <path d="M28.2417 24.2954C26.6553 25.905 24.4963 27.2437 22.3064 27.9634C21.8189 28.1181 21.4165 28.2652 21.4088 28.2884C21.3933 28.3193 24.2797 33.357 25.5642 35.5392L25.9434 36.1892L26.7482 33.8368C27.1816 32.5445 27.5994 31.3682 27.6613 31.2289C27.8703 30.7724 27.9244 30.7724 30.7412 31.3295C32.1496 31.6081 33.3258 31.8248 33.3567 31.817C33.4109 31.7938 28.9536 24.0013 28.7989 23.8466C28.7679 23.8156 28.5125 24.0168 28.2417 24.2954Z" fill="#F14C1C"/>
</svg>
