<svg id="advatage-10" width="36" height="37" viewBox="0 0 36 37" fill="none" xmlns="http://www.w3.org/2000/svg">
<path d="M1.10625 12.2396C1.32049 11.3193 1.84714 10.4975 2.59996 9.90898C3.35277 9.32042 4.28713 8.99994 5.25 9H30.75C31.7129 8.99994 32.6472 9.32042 33.4 9.90898C34.1529 10.4975 34.6795 11.3193 34.8937 12.2396L18 22.3625L1.10625 12.2396ZM1 14.6187V29.4187L13.3314 22.0062L1 14.6187ZM15.3671 23.2292L1.40587 31.6187C1.75082 32.3318 2.29524 32.9342 2.97579 33.3558C3.65633 33.7774 4.445 34.0008 5.25 34H30.75C31.5549 34.0002 32.3432 33.7763 33.0234 33.3544C33.7036 32.9324 34.2475 32.3298 34.592 31.6167L20.6307 23.2271L18 24.8042L15.3671 23.2271V23.2292ZM22.6686 22.0083L35 29.4187V14.6187L22.6686 22.0062V22.0083Z" fill="#F14C1C"/>
</svg>
