<svg id="advatage-8" width="36" height="37" viewBox="0 0 36 37" fill="none" xmlns="http://www.w3.org/2000/svg">
    <path d="M18 37C18 37 31.5 24.2065 31.5 14.5C31.5 10.9196 30.0777 7.4858 27.5459 4.95406C25.0142 2.42232 21.5804 1 18 1C14.4196 1 10.9858 2.42232 8.45406 4.95406C5.92232 7.4858 4.5 10.9196 4.5 14.5C4.5 24.2065 18 37 18 37ZM18 21.25C16.2098 21.25 14.4929 20.5388 13.227 19.273C11.9612 18.0071 11.25 16.2902 11.25 14.5C11.25 12.7098 11.9612 10.9929 13.227 9.72703C14.4929 8.46116 16.2098 7.75 18 7.75C19.7902 7.75 21.5071 8.46116 22.773 9.72703C24.0388 10.9929 24.75 12.7098 24.75 14.5C24.75 16.2902 24.0388 18.0071 22.773 19.273C21.5071 20.5388 19.7902 21.25 18 21.25Z" fill="#F14C1C"/>
</svg>
