<svg id="advatage-12" width="36" height="36" viewBox="0 0 36 36" fill="none" xmlns="http://www.w3.org/2000/svg">
<path d="M7.12857 1.04049C7.12857 1.06073 7.09214 1.08096 7.04762 1.08096C7.0031 1.08096 6.96667 1.09715 6.96667 1.12144C6.96667 1.14168 6.93024 1.16192 6.88571 1.16192C6.84119 1.16192 6.80476 1.17811 6.80476 1.20239C6.80476 1.22263 6.75214 1.24287 6.69143 1.24287C6.62667 1.24287 6.55381 1.27525 6.52143 1.32382C6.48905 1.36834 6.43238 1.40477 6.3919 1.40477C6.35143 1.40477 6.31905 1.42096 6.31905 1.44525C6.31905 1.46549 6.28667 1.48573 6.24619 1.48573C6.20571 1.48573 6.14905 1.52215 6.11667 1.56668C6.08429 1.6112 6.03167 1.64763 5.99524 1.64763C5.95881 1.64763 5.90619 1.68406 5.87381 1.72858C5.84143 1.77311 5.78881 1.80954 5.76048 1.80954C5.7281 1.80954 5.65119 1.86215 5.59048 1.93096C5.52976 1.99573 5.4569 2.05239 5.43262 2.05239C5.3719 2.05239 4.45714 2.96715 4.45714 3.02787C4.45714 3.05215 4.40452 3.12501 4.33571 3.18573C4.27095 3.24644 4.21429 3.32334 4.21429 3.35573C4.21429 3.38406 4.17786 3.43668 4.13333 3.46906C4.08881 3.50144 4.05238 3.55406 4.05238 3.59049C4.05238 3.62692 4.01595 3.67953 3.97143 3.71192C3.9269 3.7443 3.89048 3.80096 3.89048 3.84144C3.89048 3.88192 3.87429 3.9143 3.85 3.9143C3.82976 3.9143 3.80952 3.95073 3.80952 3.99525C3.80952 4.03977 3.79333 4.0762 3.76905 4.0762C3.74881 4.0762 3.72857 4.11263 3.72857 4.15715C3.72857 4.20168 3.71238 4.23811 3.6881 4.23811C3.66786 4.23811 3.64762 4.27454 3.64762 4.31906C3.64762 4.36358 3.63143 4.40001 3.60714 4.40001C3.5869 4.40001 3.56667 4.43644 3.56667 4.48096C3.56667 4.52549 3.55048 4.56192 3.52619 4.56192C3.50595 4.56192 3.48571 4.59834 3.48571 4.64287C3.48571 4.68739 3.46952 4.72382 3.44524 4.72382C3.425 4.72382 3.40476 4.77644 3.40476 4.84525C3.40476 4.91001 3.38857 4.96668 3.36429 4.96668C3.34405 4.96668 3.32381 5.0193 3.32381 5.08811C3.32381 5.15287 3.30762 5.20954 3.28333 5.20954C3.2631 5.20954 3.24286 5.26215 3.24286 5.33096C3.24286 5.39573 3.22667 5.45239 3.20238 5.45239C3.18214 5.45239 3.1619 5.52525 3.1619 5.6143C3.1619 5.70334 3.14571 5.7762 3.12143 5.7762C3.10119 5.7762 3.08095 5.86525 3.08095 5.97858C3.08095 6.08787 3.06476 6.18096 3.04048 6.18096C3.01619 6.18096 3 6.55739 3 7.23334C3 7.9093 3.01619 8.28573 3.04048 8.28573C3.06476 8.28573 3.08095 8.37477 3.08095 8.48811C3.08095 8.59739 3.10119 8.69049 3.12143 8.69049C3.14571 8.69049 3.1619 8.76334 3.1619 8.85239C3.1619 8.94144 3.18214 9.0143 3.20238 9.0143C3.22667 9.0143 3.24286 9.06692 3.24286 9.13573C3.24286 9.20049 3.2631 9.25715 3.28333 9.25715C3.30762 9.25715 3.32381 9.30977 3.32381 9.37858C3.32381 9.44334 3.34405 9.50001 3.36429 9.50001C3.38857 9.50001 3.40476 9.55263 3.40476 9.62144C3.40476 9.6862 3.425 9.74287 3.44524 9.74287C3.46952 9.74287 3.48571 9.7793 3.48571 9.82382C3.48571 9.86834 3.50595 9.90477 3.52619 9.90477C3.55048 9.90477 3.56667 9.95739 3.56667 10.0262C3.56667 10.091 3.5869 10.1476 3.60714 10.1476C3.63143 10.1476 3.64762 10.18 3.64762 10.2205C3.64762 10.261 3.68405 10.3176 3.72857 10.35C3.7731 10.3824 3.80952 10.4391 3.80952 10.4795C3.80952 10.52 3.82976 10.5524 3.85 10.5524C3.87429 10.5524 3.89048 10.5888 3.89048 10.6333C3.89048 10.6779 3.91071 10.7143 3.93095 10.7143C3.95524 10.7143 3.97143 10.7426 3.97143 10.7791C3.97143 10.8155 4.0281 10.8964 4.09286 10.9572C4.16167 11.0179 4.21429 11.0948 4.21429 11.1272C4.21429 11.1555 4.25071 11.2081 4.29524 11.2405C4.33976 11.2729 4.37619 11.3214 4.37619 11.3498C4.37619 11.4145 5.44881 12.4952 5.51357 12.4952C5.53786 12.4952 5.61071 12.5479 5.67143 12.6167C5.73214 12.6814 5.80905 12.7381 5.84143 12.7381C5.86976 12.7381 5.92238 12.7745 5.95476 12.8191C5.98714 12.8636 6.04381 12.9 6.08429 12.9C6.12476 12.9 6.15714 12.9162 6.15714 12.9405C6.15714 12.9607 6.18952 12.981 6.23 12.981C6.27048 12.981 6.32714 13.0174 6.35952 13.0619C6.3919 13.1064 6.44857 13.1429 6.48905 13.1429C6.52952 13.1429 6.5619 13.1591 6.5619 13.1833C6.5619 13.2036 6.59833 13.2238 6.64286 13.2238C6.68738 13.2238 6.72381 13.24 6.72381 13.2643C6.72381 13.2845 6.76024 13.3048 6.80476 13.3048C6.84929 13.3048 6.88571 13.321 6.88571 13.3452C6.88571 13.3655 6.94238 13.3857 7.00714 13.3857C7.07595 13.3857 7.12857 13.4019 7.12857 13.4262C7.12857 13.4464 7.165 13.4667 7.20952 13.4667C7.25405 13.4667 7.29048 13.4829 7.29048 13.5072C7.29048 13.5274 7.34714 13.5476 7.4119 13.5476C7.48071 13.5476 7.53333 13.5638 7.53333 13.5881C7.53333 13.6083 7.59 13.6286 7.65476 13.6286C7.72357 13.6286 7.77619 13.6448 7.77619 13.6691C7.77619 13.6893 7.84905 13.7095 7.9381 13.7095C8.02714 13.7095 8.1 13.7257 8.1 13.75C8.1 13.7702 8.1931 13.7905 8.30238 13.7905C8.41571 13.7905 8.50476 13.8067 8.50476 13.831C8.50476 13.8552 8.63833 13.8714 8.82857 13.8714C9.01881 13.8714 9.15238 13.8876 9.15238 13.9119C9.15238 13.9362 9.34262 13.9524 9.6381 13.9524C9.93357 13.9524 10.1238 13.9362 10.1238 13.9119C10.1238 13.8876 10.2574 13.8714 10.4476 13.8714C10.6379 13.8714 10.7714 13.8552 10.7714 13.831C10.7714 13.8067 10.8645 13.7905 10.9738 13.7905C11.0871 13.7905 11.1762 13.7702 11.1762 13.75C11.1762 13.7257 11.249 13.7095 11.3381 13.7095C11.4271 13.7095 11.5 13.6893 11.5 13.6691C11.5 13.6448 11.5567 13.6286 11.6214 13.6286C11.6902 13.6286 11.7429 13.6083 11.7429 13.5881C11.7429 13.5638 11.7995 13.5476 11.8643 13.5476C11.9331 13.5476 11.9857 13.5274 11.9857 13.5072C11.9857 13.4829 12.0424 13.4667 12.1071 13.4667C12.176 13.4667 12.2286 13.4464 12.2286 13.4262C12.2286 13.4019 12.265 13.3857 12.3095 13.3857C12.354 13.3857 12.3905 13.3655 12.3905 13.3452C12.3905 13.321 12.4269 13.3048 12.4714 13.3048C12.516 13.3048 12.5524 13.2845 12.5524 13.2643C12.5524 13.24 12.5888 13.2238 12.6333 13.2238C12.6779 13.2238 12.7143 13.2036 12.7143 13.1833C12.7143 13.1591 12.7507 13.1429 12.7952 13.1429C12.8398 13.1429 12.8762 13.1226 12.8762 13.1024C12.8762 13.0781 12.9086 13.0619 12.949 13.0619C12.9895 13.0619 13.0462 13.0255 13.0786 12.981C13.111 12.9364 13.1636 12.9 13.2 12.9C13.2364 12.9 13.289 12.8636 13.3214 12.8191C13.3538 12.7745 13.4064 12.7381 13.4429 12.7381C13.4793 12.7381 13.5319 12.7017 13.5643 12.6572C13.5967 12.6126 13.6452 12.5762 13.6776 12.5762C13.706 12.5762 13.8557 12.4467 14.0095 12.2929C14.1633 12.135 14.3171 12.0095 14.3536 12.0095C14.386 12.0095 14.4143 11.9812 14.4143 11.9488C14.4143 11.9124 14.5438 11.7586 14.6976 11.6048C14.8555 11.451 14.981 11.3012 14.981 11.2729C14.981 11.2405 15.0174 11.1919 15.0619 11.1595C15.1064 11.1272 15.1429 11.0745 15.1429 11.0381C15.1429 11.0017 15.1793 10.9491 15.2238 10.9167C15.2683 10.8843 15.3048 10.8317 15.3048 10.7952C15.3048 10.7588 15.3412 10.7062 15.3857 10.6738C15.4302 10.6414 15.4667 10.5848 15.4667 10.5443C15.4667 10.5038 15.4869 10.4714 15.5071 10.4714C15.5314 10.4714 15.5476 10.435 15.5476 10.3905C15.5476 10.346 15.5679 10.3095 15.5881 10.3095C15.6124 10.3095 15.6286 10.2731 15.6286 10.2286C15.6286 10.1841 15.6488 10.1476 15.669 10.1476C15.6933 10.1476 15.7095 10.1112 15.7095 10.0667C15.7095 10.0222 15.7298 9.98573 15.75 9.98573C15.7743 9.98573 15.7905 9.9493 15.7905 9.90477C15.7905 9.86025 15.8107 9.82382 15.831 9.82382C15.8552 9.82382 15.8714 9.76715 15.8714 9.70239C15.8714 9.63358 15.8917 9.58096 15.9119 9.58096C15.9362 9.58096 15.9524 9.5243 15.9524 9.45954C15.9524 9.39073 15.9726 9.33811 15.9929 9.33811C16.0171 9.33811 16.0333 9.28144 16.0333 9.21668C16.0333 9.14787 16.0536 9.09525 16.0738 9.09525C16.0981 9.09525 16.1143 9.02239 16.1143 8.93334C16.1143 8.8443 16.1345 8.77144 16.1548 8.77144C16.179 8.77144 16.1952 8.67834 16.1952 8.56906C16.1952 8.45573 16.2155 8.36668 16.2357 8.36668C16.26 8.36668 16.2762 8.23311 16.2762 8.04287C16.2762 7.85263 16.2924 7.71906 16.3167 7.71906C16.341 7.71906 16.3571 7.52882 16.3571 7.23334C16.3571 6.93787 16.341 6.74763 16.3167 6.74763C16.2924 6.74763 16.2762 6.61406 16.2762 6.42382C16.2762 6.23358 16.26 6.10001 16.2357 6.10001C16.2155 6.10001 16.1952 6.00692 16.1952 5.89763C16.1952 5.7843 16.179 5.69525 16.1548 5.69525C16.1345 5.69525 16.1143 5.62239 16.1143 5.53334C16.1143 5.4443 16.0981 5.37144 16.0738 5.37144C16.0536 5.37144 16.0333 5.31477 16.0333 5.25001C16.0333 5.1812 16.0171 5.12858 15.9929 5.12858C15.9726 5.12858 15.9524 5.07192 15.9524 5.00715C15.9524 4.93834 15.9362 4.88573 15.9119 4.88573C15.8917 4.88573 15.8714 4.8493 15.8714 4.80477C15.8714 4.76025 15.8552 4.72382 15.831 4.72382C15.8107 4.72382 15.7905 4.66715 15.7905 4.60239C15.7905 4.53358 15.7743 4.48096 15.75 4.48096C15.7298 4.48096 15.7095 4.44454 15.7095 4.40001C15.7095 4.35549 15.6933 4.31906 15.669 4.31906C15.6488 4.31906 15.6286 4.28263 15.6286 4.23811C15.6286 4.19358 15.6124 4.15715 15.5881 4.15715C15.5679 4.15715 15.5476 4.12073 15.5476 4.0762C15.5476 4.03168 15.5314 3.99525 15.5071 3.99525C15.4869 3.99525 15.4667 3.96287 15.4667 3.92239C15.4667 3.88192 15.4302 3.82525 15.3857 3.79287C15.3412 3.76049 15.3048 3.70787 15.3048 3.67144C15.3048 3.63501 15.2683 3.58239 15.2238 3.55001C15.1793 3.51763 15.1429 3.46501 15.1429 3.42858C15.1429 3.39215 15.1064 3.33953 15.0619 3.30715C15.0174 3.27477 14.981 3.2262 14.981 3.19787C14.981 3.13311 13.8274 1.97144 13.7626 1.97144C13.7383 1.97144 13.6655 1.91477 13.6048 1.85001C13.544 1.7812 13.4671 1.72858 13.4348 1.72858C13.4064 1.72858 13.3538 1.69215 13.3214 1.64763C13.289 1.60311 13.2324 1.56668 13.1919 1.56668C13.1514 1.56668 13.119 1.54644 13.119 1.5262C13.119 1.50192 13.0867 1.48573 13.0462 1.48573C13.0057 1.48573 12.949 1.4493 12.9167 1.40477C12.8843 1.36025 12.8276 1.32382 12.7871 1.32382C12.7467 1.32382 12.7143 1.30358 12.7143 1.28334C12.7143 1.25906 12.6779 1.24287 12.6333 1.24287C12.5888 1.24287 12.5524 1.22263 12.5524 1.20239C12.5524 1.17811 12.516 1.16192 12.4714 1.16192C12.4269 1.16192 12.3905 1.14168 12.3905 1.12144C12.3905 1.09715 12.3379 1.08096 12.269 1.08096C12.2043 1.08096 12.1476 1.06073 12.1476 1.04049C12.1476 1.0162 12.095 1.00001 12.0262 1.00001C11.9614 1.00001 11.9048 1.0162 11.9048 1.04049C11.9048 1.06073 11.8764 1.08096 11.844 1.08096C11.8076 1.08096 11.7186 1.14573 11.6417 1.22263L11.5 1.36025V4.01549V6.66668H9.67857H7.85714V4.11668C7.85714 2.44501 7.845 1.56668 7.81667 1.56668C7.79643 1.56668 7.77619 1.51001 7.77619 1.44525C7.77619 1.37644 7.76 1.32382 7.73571 1.32382C7.71548 1.32382 7.69524 1.28739 7.69524 1.24287C7.69524 1.19025 7.6669 1.16192 7.61429 1.16192C7.56976 1.16192 7.53333 1.14168 7.53333 1.12144C7.53333 1.09715 7.4969 1.08096 7.45238 1.08096C7.40786 1.08096 7.37143 1.06073 7.37143 1.04049C7.37143 1.0162 7.31881 1.00001 7.25 1.00001C7.18524 1.00001 7.12857 1.0162 7.12857 1.04049Z" fill="#F14C1C"/>
<path d="M7.12842 18.9713C7.12842 22.1811 7.14056 23.8285 7.16889 23.8285C7.19318 23.8285 7.20937 23.8083 7.20937 23.788C7.20937 23.7637 7.2458 23.7475 7.29032 23.7475C7.33485 23.7475 7.37128 23.7273 7.37128 23.7071C7.37128 23.6828 7.42794 23.6666 7.4927 23.6666C7.56151 23.6666 7.61413 23.6463 7.61413 23.6261C7.61413 23.6018 7.6708 23.5856 7.73556 23.5856C7.80437 23.5856 7.85699 23.5654 7.85699 23.5452C7.85699 23.5209 7.92985 23.5047 8.01889 23.5047C8.10794 23.5047 8.1808 23.4844 8.1808 23.4642C8.1808 23.4399 8.25366 23.4237 8.3427 23.4237C8.43175 23.4237 8.50461 23.4035 8.50461 23.3833C8.50461 23.359 8.63818 23.3428 8.82842 23.3428C9.01866 23.3428 9.15223 23.3266 9.15223 23.3023C9.15223 23.278 9.34247 23.2618 9.63794 23.2618C9.93342 23.2618 10.1237 23.278 10.1237 23.3023C10.1237 23.3266 10.2572 23.3428 10.4475 23.3428C10.6377 23.3428 10.7713 23.359 10.7713 23.3833C10.7713 23.4035 10.8441 23.4237 10.9332 23.4237C11.0222 23.4237 11.0951 23.4399 11.0951 23.4642C11.0951 23.4844 11.1679 23.5047 11.257 23.5047C11.346 23.5047 11.4189 23.5209 11.4189 23.5452C11.4189 23.5654 11.4756 23.5856 11.5403 23.5856C11.6091 23.5856 11.6618 23.6018 11.6618 23.6261C11.6618 23.6463 11.7184 23.6666 11.7832 23.6666C11.852 23.6666 11.9046 23.6828 11.9046 23.7071C11.9046 23.7273 11.941 23.7475 11.9856 23.7475C12.0301 23.7475 12.0665 23.7637 12.0665 23.788C12.0665 23.8083 12.0868 23.8285 12.107 23.8285C12.1353 23.8285 12.1475 22.1811 12.1475 18.9713C12.1475 15.7616 12.1353 14.1142 12.107 14.1142C12.0868 14.1142 12.0665 14.1304 12.0665 14.1547C12.0665 14.1749 12.0139 14.1952 11.9451 14.1952C11.8803 14.1952 11.8237 14.2113 11.8237 14.2356C11.8237 14.2559 11.771 14.2761 11.7022 14.2761C11.6375 14.2761 11.5808 14.2923 11.5808 14.3166C11.5808 14.3368 11.5079 14.3571 11.4189 14.3571C11.3298 14.3571 11.257 14.3733 11.257 14.3975C11.257 14.4178 11.1679 14.438 11.0546 14.438C10.9453 14.438 10.8522 14.4542 10.8522 14.4785C10.8522 14.5028 10.6903 14.519 10.4475 14.519C10.2046 14.519 10.0427 14.5352 10.0427 14.5594C10.0427 14.5837 9.8808 14.5999 9.63794 14.5999C9.39508 14.5999 9.23318 14.5837 9.23318 14.5594C9.23318 14.5352 9.08342 14.519 8.86889 14.519C8.65437 14.519 8.50461 14.5028 8.50461 14.4785C8.50461 14.4542 8.39532 14.438 8.26175 14.438C8.12818 14.438 8.01889 14.4218 8.01889 14.3975C8.01889 14.3733 7.94604 14.3571 7.85699 14.3571C7.76794 14.3571 7.69508 14.3368 7.69508 14.3166C7.69508 14.2923 7.64247 14.2761 7.57366 14.2761C7.50889 14.2761 7.45223 14.2559 7.45223 14.2356C7.45223 14.2113 7.39961 14.1952 7.3308 14.1952C7.26604 14.1952 7.20937 14.1749 7.20937 14.1547C7.20937 14.1304 7.19318 14.1142 7.16889 14.1142C7.14056 14.1142 7.12842 15.7616 7.12842 18.9713ZM9.86056 16.4821L9.96175 16.5792V18.9713V21.3635L9.86056 21.4606C9.79985 21.5254 9.71485 21.5618 9.63794 21.5618C9.56104 21.5618 9.47604 21.5254 9.41532 21.4606L9.31413 21.3635V18.9713V16.5792L9.40723 16.4821C9.52866 16.3485 9.73104 16.3485 9.86056 16.4821Z" fill="#F14C1C"/>
<path d="M9.2333 23.95C9.2333 23.9743 9.09973 23.9905 8.90949 23.9905C8.71925 23.9905 8.58568 24.0067 8.58568 24.031C8.58568 24.0512 8.51282 24.0714 8.42378 24.0714C8.33473 24.0714 8.26187 24.0876 8.26187 24.1119C8.26187 24.1321 8.18901 24.1524 8.09997 24.1524C8.01092 24.1524 7.93806 24.1686 7.93806 24.1929C7.93806 24.2131 7.88544 24.2333 7.81663 24.2333C7.75187 24.2333 7.69521 24.2495 7.69521 24.2738C7.69521 24.294 7.65878 24.3143 7.61425 24.3143C7.56973 24.3143 7.5333 24.3305 7.5333 24.3548C7.5333 24.375 7.49687 24.3952 7.45235 24.3952C7.40782 24.3952 7.3714 24.4114 7.3714 24.4357C7.3714 24.456 7.33497 24.4762 7.29044 24.4762C7.24592 24.4762 7.20949 24.4924 7.20949 24.5167C7.20949 24.5369 7.17306 24.5571 7.12854 24.5571C7.08401 24.5571 7.04759 24.5733 7.04759 24.5976C7.04759 24.6179 7.01116 24.6381 6.96663 24.6381C6.92211 24.6381 6.88568 24.6543 6.88568 24.6786C6.88568 24.6988 6.8533 24.719 6.81282 24.719C6.77235 24.719 6.71568 24.7555 6.6833 24.8C6.65092 24.8445 6.5983 24.881 6.56997 24.881C6.53759 24.881 6.46068 24.9336 6.39997 25.0024C6.33925 25.0671 6.2664 25.1238 6.24211 25.1238C6.17735 25.1238 5.26663 26.0426 5.26663 26.1074C5.26663 26.1357 5.23021 26.1843 5.18568 26.2167C5.14116 26.249 5.10473 26.3017 5.10473 26.3381C5.10473 26.3745 5.0683 26.4271 5.02378 26.4595C4.97925 26.4919 4.94282 26.5445 4.94282 26.581C4.94282 26.6174 4.9064 26.67 4.86187 26.7024C4.81735 26.7348 4.78092 26.7914 4.78092 26.8319C4.78092 26.8724 4.76473 26.9048 4.74044 26.9048C4.72021 26.9048 4.69997 26.9412 4.69997 26.9857C4.69997 27.0302 4.68378 27.0667 4.65949 27.0667C4.63925 27.0667 4.61902 27.1031 4.61902 27.1476C4.61902 27.1921 4.60282 27.2286 4.57854 27.2286C4.5583 27.2286 4.53806 27.2812 4.53806 27.35C4.53806 27.4148 4.52187 27.4714 4.49759 27.4714C4.47735 27.4714 4.45711 27.524 4.45711 27.5929C4.45711 27.6576 4.44092 27.7143 4.41663 27.7143C4.3964 27.7143 4.37616 27.7669 4.37616 27.8357C4.37616 27.9005 4.35997 27.9571 4.33568 27.9571C4.31544 27.9571 4.29521 28.03 4.29521 28.119C4.29521 28.2081 4.27902 28.281 4.25473 28.281C4.23044 28.281 4.21425 28.3902 4.21425 28.5238C4.21425 28.6574 4.19806 28.7667 4.17378 28.7667C4.14949 28.7667 4.1333 29.0217 4.1333 29.4548C4.1333 29.8879 4.14949 30.1429 4.17378 30.1429C4.19806 30.1429 4.21425 30.2521 4.21425 30.3857C4.21425 30.5193 4.23044 30.6286 4.25473 30.6286C4.27902 30.6286 4.29521 30.7014 4.29521 30.7905C4.29521 30.8795 4.31544 30.9524 4.33568 30.9524C4.35997 30.9524 4.37616 31.005 4.37616 31.0738C4.37616 31.1386 4.3964 31.1952 4.41663 31.1952C4.44092 31.1952 4.45711 31.2479 4.45711 31.3167C4.45711 31.3814 4.47735 31.4381 4.49759 31.4381C4.52187 31.4381 4.53806 31.4745 4.53806 31.519C4.53806 31.5636 4.5583 31.6 4.57854 31.6C4.60282 31.6 4.61902 31.6526 4.61902 31.7214C4.61902 31.7862 4.63925 31.8429 4.65949 31.8429C4.68378 31.8429 4.69997 31.8752 4.69997 31.9157C4.69997 31.9562 4.7364 32.0129 4.78092 32.0452C4.82544 32.0776 4.86187 32.1343 4.86187 32.1748C4.86187 32.2152 4.88211 32.2476 4.90235 32.2476C4.92663 32.2476 4.94282 32.28 4.94282 32.3205C4.94282 32.361 4.97925 32.4176 5.02378 32.45C5.0683 32.4824 5.10473 32.535 5.10473 32.5633C5.10473 32.5957 5.1614 32.6726 5.22616 32.7333C5.29497 32.794 5.34759 32.8669 5.34759 32.8912C5.34759 32.9519 6.1814 33.7857 6.24211 33.7857C6.2664 33.7857 6.33925 33.8383 6.39997 33.9071C6.46068 33.9719 6.53759 34.0286 6.56997 34.0286C6.5983 34.0286 6.65092 34.065 6.6833 34.1095C6.71568 34.154 6.77235 34.1905 6.81282 34.1905C6.8533 34.1905 6.88568 34.2067 6.88568 34.231C6.88568 34.2512 6.92211 34.2714 6.96663 34.2714C7.01116 34.2714 7.04759 34.2876 7.04759 34.3119C7.04759 34.3321 7.08401 34.3524 7.12854 34.3524C7.17306 34.3524 7.20949 34.3686 7.20949 34.3929C7.20949 34.4131 7.24592 34.4333 7.29044 34.4333C7.33497 34.4333 7.3714 34.4495 7.3714 34.4738C7.3714 34.494 7.40782 34.5143 7.45235 34.5143C7.49687 34.5143 7.5333 34.5305 7.5333 34.5548C7.5333 34.575 7.58997 34.5952 7.65473 34.5952C7.72354 34.5952 7.77616 34.6114 7.77616 34.6357C7.77616 34.656 7.83282 34.6762 7.89759 34.6762C7.9664 34.6762 8.01901 34.6924 8.01901 34.7167C8.01901 34.7369 8.07568 34.7571 8.14044 34.7571C8.20925 34.7571 8.26187 34.7733 8.26187 34.7976C8.26187 34.8179 8.33473 34.8381 8.42378 34.8381C8.51282 34.8381 8.58568 34.8543 8.58568 34.8786C8.58568 34.9029 8.71925 34.919 8.90949 34.919C9.09973 34.919 9.2333 34.9352 9.2333 34.9595C9.2333 34.9838 9.39521 35 9.63806 35C9.88092 35 10.0428 34.9838 10.0428 34.9595C10.0428 34.9352 10.1764 34.919 10.3666 34.919C10.5569 34.919 10.6904 34.9029 10.6904 34.8786C10.6904 34.8543 10.7633 34.8381 10.8523 34.8381C10.9414 34.8381 11.0143 34.8179 11.0143 34.7976C11.0143 34.7733 11.0871 34.7571 11.1762 34.7571C11.2652 34.7571 11.3381 34.7369 11.3381 34.7167C11.3381 34.6924 11.3947 34.6762 11.4595 34.6762C11.5283 34.6762 11.5809 34.656 11.5809 34.6357C11.5809 34.6114 11.6173 34.5952 11.6619 34.5952C11.7064 34.5952 11.7428 34.575 11.7428 34.5548C11.7428 34.5305 11.7995 34.5143 11.8643 34.5143C11.9331 34.5143 11.9857 34.494 11.9857 34.4738C11.9857 34.4495 12.0181 34.4333 12.0585 34.4333C12.099 34.4333 12.1557 34.3969 12.1881 34.3524C12.2204 34.3079 12.2771 34.2714 12.3176 34.2714C12.3581 34.2714 12.3904 34.2512 12.3904 34.231C12.3904 34.2067 12.4269 34.1905 12.4714 34.1905C12.5159 34.1905 12.5523 34.1702 12.5523 34.15C12.5523 34.1257 12.5807 34.1095 12.6171 34.1095C12.6535 34.1095 12.7345 34.0529 12.7952 33.9881C12.8559 33.9193 12.9288 33.8667 12.9531 33.8667C13.0178 33.8667 14.0904 32.786 14.0904 32.7212C14.0904 32.6929 14.1269 32.6443 14.1714 32.6119C14.2159 32.5795 14.2523 32.5269 14.2523 32.4905C14.2523 32.454 14.2888 32.4014 14.3333 32.369C14.3778 32.3367 14.4143 32.28 14.4143 32.2395C14.4143 32.199 14.4345 32.1667 14.4547 32.1667C14.479 32.1667 14.4952 32.1302 14.4952 32.0857C14.4952 32.0412 14.5154 32.0048 14.5357 32.0048C14.56 32.0048 14.5762 31.9683 14.5762 31.9238C14.5762 31.8793 14.5964 31.8429 14.6166 31.8429C14.6409 31.8429 14.6571 31.8064 14.6571 31.7619C14.6571 31.7174 14.6773 31.681 14.6976 31.681C14.7219 31.681 14.7381 31.6445 14.7381 31.6C14.7381 31.5555 14.7583 31.519 14.7785 31.519C14.8028 31.519 14.819 31.4624 14.819 31.3976C14.819 31.3288 14.8393 31.2762 14.8595 31.2762C14.8838 31.2762 14.9 31.2195 14.9 31.1548C14.9 31.086 14.9202 31.0333 14.9404 31.0333C14.9647 31.0333 14.9809 30.9605 14.9809 30.8714C14.9809 30.7824 15.0012 30.7095 15.0214 30.7095C15.0457 30.7095 15.0619 30.6164 15.0619 30.5071C15.0619 30.3938 15.0821 30.3048 15.1023 30.3048C15.1266 30.3048 15.1428 29.9931 15.1428 29.4548C15.1428 28.9164 15.1266 28.6048 15.1023 28.6048C15.0821 28.6048 15.0619 28.5117 15.0619 28.4024C15.0619 28.289 15.0457 28.2 15.0214 28.2C15.0012 28.2 14.9809 28.1271 14.9809 28.0381C14.9809 27.949 14.9647 27.8762 14.9404 27.8762C14.9202 27.8762 14.9 27.8195 14.9 27.7548C14.9 27.686 14.8838 27.6333 14.8595 27.6333C14.8393 27.6333 14.819 27.5767 14.819 27.5119C14.819 27.4431 14.8028 27.3905 14.7785 27.3905C14.7583 27.3905 14.7381 27.354 14.7381 27.3095C14.7381 27.265 14.7219 27.2286 14.6976 27.2286C14.6773 27.2286 14.6571 27.1921 14.6571 27.1476C14.6571 27.1031 14.6409 27.0667 14.6166 27.0667C14.5964 27.0667 14.5762 27.0302 14.5762 26.9857C14.5762 26.9412 14.56 26.9048 14.5357 26.9048C14.5154 26.9048 14.4952 26.8683 14.4952 26.8238C14.4952 26.7793 14.479 26.7429 14.4547 26.7429C14.4345 26.7429 14.4143 26.7105 14.4143 26.67C14.4143 26.6295 14.3778 26.5729 14.3333 26.5405C14.2888 26.5081 14.2523 26.4555 14.2523 26.419C14.2523 26.3826 14.2159 26.33 14.1714 26.2976C14.1269 26.2652 14.0904 26.2167 14.0904 26.1843C14.0904 26.156 14.0014 26.0426 13.8881 25.9333C13.7788 25.824 13.6857 25.7148 13.6857 25.6905C13.6857 25.6338 13.4185 25.3667 13.3619 25.3667C13.3335 25.3667 13.2445 25.2938 13.1595 25.2048C13.0745 25.1157 12.9814 25.0429 12.9571 25.0429C12.9288 25.0429 12.8559 24.9862 12.7952 24.9214C12.7345 24.8526 12.6535 24.8 12.6171 24.8C12.5807 24.8 12.5523 24.7798 12.5523 24.7595C12.5523 24.7352 12.52 24.719 12.4795 24.719C12.439 24.719 12.3823 24.6826 12.35 24.6381C12.3176 24.5936 12.2609 24.5571 12.2204 24.5571C12.18 24.5571 12.1476 24.5369 12.1476 24.5167C12.1476 24.4924 12.1112 24.4762 12.0666 24.4762C12.0221 24.4762 11.9857 24.456 11.9857 24.4357C11.9857 24.4114 11.9331 24.3952 11.8643 24.3952C11.7995 24.3952 11.7428 24.375 11.7428 24.3548C11.7428 24.3305 11.7064 24.3143 11.6619 24.3143C11.6173 24.3143 11.5809 24.294 11.5809 24.2738C11.5809 24.2495 11.5283 24.2333 11.4595 24.2333C11.3947 24.2333 11.3381 24.2131 11.3381 24.1929C11.3381 24.1686 11.2652 24.1524 11.1762 24.1524C11.0871 24.1524 11.0143 24.1321 11.0143 24.1119C11.0143 24.0876 10.9414 24.0714 10.8523 24.0714C10.7633 24.0714 10.6904 24.0512 10.6904 24.031C10.6904 24.0067 10.5569 23.9905 10.3666 23.9905C10.1764 23.9905 10.0428 23.9743 10.0428 23.95C10.0428 23.9257 9.88092 23.9095 9.63806 23.9095C9.39521 23.9095 9.2333 23.9257 9.2333 23.95ZM9.79997 26.2976C9.79997 26.3179 9.83235 26.3381 9.87282 26.3381C9.9133 26.3381 9.96997 26.3745 10.0023 26.419C10.0347 26.4636 10.0914 26.5 10.1319 26.5C10.1723 26.5 10.2047 26.5162 10.2047 26.5405C10.2047 26.5607 10.2412 26.581 10.2857 26.581C10.3302 26.581 10.3666 26.5971 10.3666 26.6214C10.3666 26.6417 10.399 26.6619 10.4395 26.6619C10.48 26.6619 10.5366 26.6983 10.569 26.7429C10.6014 26.7874 10.6581 26.8238 10.6985 26.8238C10.739 26.8238 10.7714 26.84 10.7714 26.8643C10.7714 26.8845 10.8078 26.9048 10.8523 26.9048C10.8969 26.9048 10.9333 26.921 10.9333 26.9452C10.9333 26.9655 10.9657 26.9857 11.0062 26.9857C11.0466 26.9857 11.1033 27.0221 11.1357 27.0667C11.1681 27.1112 11.2247 27.1476 11.2652 27.1476C11.3057 27.1476 11.3381 27.1638 11.3381 27.1881C11.3381 27.2083 11.3704 27.2286 11.4109 27.2286C11.4514 27.2286 11.5081 27.265 11.5404 27.3095C11.5728 27.354 11.6295 27.3905 11.67 27.3905C11.7104 27.3905 11.7428 27.4067 11.7428 27.431C11.7428 27.4512 11.7793 27.4714 11.8238 27.4714C11.8683 27.4714 11.9047 27.4876 11.9047 27.5119C11.9047 27.5321 11.9371 27.5524 11.9776 27.5524C12.0181 27.5524 12.0747 27.5888 12.1071 27.6333C12.1395 27.6779 12.1881 27.7143 12.2204 27.7143C12.2933 27.7143 12.3904 27.8155 12.3904 27.8924C12.3904 27.9288 12.4107 27.9571 12.4309 27.9571C12.4552 27.9571 12.4714 28.4833 12.4714 29.4548C12.4714 30.4262 12.4552 30.9524 12.4309 30.9524C12.4107 30.9524 12.3904 30.9807 12.3904 31.0171C12.3904 31.0981 12.2933 31.1952 12.2123 31.1952C12.1759 31.1952 12.1476 31.2114 12.1476 31.2357C12.1476 31.256 12.1152 31.2762 12.0747 31.2762C12.0343 31.2762 11.9776 31.3126 11.9452 31.3571C11.9128 31.4017 11.8562 31.4381 11.8157 31.4381C11.7752 31.4381 11.7428 31.4543 11.7428 31.4786C11.7428 31.4988 11.7104 31.519 11.67 31.519C11.6295 31.519 11.5728 31.5555 11.5404 31.6C11.5081 31.6445 11.4514 31.681 11.4109 31.681C11.3704 31.681 11.3381 31.6971 11.3381 31.7214C11.3381 31.7417 11.3016 31.7619 11.2571 31.7619C11.2126 31.7619 11.1762 31.7781 11.1762 31.8024C11.1762 31.8226 11.1438 31.8429 11.1033 31.8429C11.0628 31.8429 11.0062 31.8793 10.9738 31.9238C10.9414 31.9683 10.8847 32.0048 10.8443 32.0048C10.8038 32.0048 10.7714 32.021 10.7714 32.0452C10.7714 32.0655 10.735 32.0857 10.6904 32.0857C10.6459 32.0857 10.6095 32.1019 10.6095 32.1262C10.6095 32.1464 10.5771 32.1667 10.5366 32.1667C10.4962 32.1667 10.4395 32.2031 10.4071 32.2476C10.3747 32.2921 10.3181 32.3286 10.2776 32.3286C10.2371 32.3286 10.2047 32.3448 10.2047 32.369C10.2047 32.3893 10.1683 32.4095 10.1238 32.4095C10.0793 32.4095 10.0428 32.4257 10.0428 32.45C10.0428 32.4702 10.0064 32.4905 9.96187 32.4905C9.91735 32.4905 9.88092 32.5067 9.88092 32.531C9.88092 32.5512 9.84449 32.5714 9.79997 32.5714C9.75544 32.5714 9.71901 32.5876 9.71901 32.6119C9.71901 32.6321 9.68259 32.6524 9.63806 32.6524C9.59354 32.6524 9.55711 32.6321 9.55711 32.6119C9.55711 32.5876 9.52068 32.5714 9.47616 32.5714C9.43163 32.5714 9.39521 32.5512 9.39521 32.531C9.39521 32.5067 9.35878 32.4905 9.31425 32.4905C9.26973 32.4905 9.2333 32.4702 9.2333 32.45C9.2333 32.4257 9.20092 32.4095 9.16044 32.4095C9.11997 32.4095 9.0633 32.3731 9.03092 32.3286C8.99854 32.284 8.94187 32.2476 8.9014 32.2476C8.86092 32.2476 8.82854 32.2274 8.82854 32.2071C8.82854 32.1829 8.79211 32.1667 8.74759 32.1667C8.70306 32.1667 8.66663 32.1464 8.66663 32.1262C8.66663 32.1019 8.63425 32.0857 8.59378 32.0857C8.5533 32.0857 8.49663 32.0493 8.46425 32.0048C8.43187 31.9602 8.37521 31.9238 8.33473 31.9238C8.29425 31.9238 8.26187 31.9036 8.26187 31.8833C8.26187 31.859 8.22949 31.8429 8.18901 31.8429C8.14854 31.8429 8.09187 31.8064 8.05949 31.7619C8.02711 31.7174 7.97044 31.681 7.92997 31.681C7.88949 31.681 7.85711 31.6607 7.85711 31.6405C7.85711 31.6162 7.82068 31.6 7.77616 31.6C7.73163 31.6 7.69521 31.5798 7.69521 31.5595C7.69521 31.5352 7.66282 31.519 7.62235 31.519C7.58187 31.519 7.52521 31.4826 7.49282 31.4381C7.46044 31.3936 7.40378 31.3571 7.3633 31.3571C7.32282 31.3571 7.29044 31.3369 7.29044 31.3167C7.29044 31.2924 7.25401 31.2762 7.20949 31.2762C7.16497 31.2762 7.12854 31.256 7.12854 31.2357C7.12854 31.2114 7.10021 31.1952 7.06378 31.1952C6.97068 31.1952 6.88568 31.094 6.88568 30.9767C6.88568 30.92 6.86949 30.8714 6.84521 30.8714C6.82092 30.8714 6.80473 30.3736 6.80473 29.4548C6.80473 28.536 6.82092 28.0381 6.84521 28.0381C6.86949 28.0381 6.88568 27.9895 6.88568 27.9329C6.88568 27.8155 6.97068 27.7143 7.06378 27.7143C7.10021 27.7143 7.12854 27.694 7.12854 27.6738C7.12854 27.6495 7.16092 27.6333 7.2014 27.6333C7.24187 27.6333 7.29854 27.5969 7.33092 27.5524C7.3633 27.5079 7.41997 27.4714 7.46044 27.4714C7.50092 27.4714 7.5333 27.4512 7.5333 27.431C7.5333 27.4067 7.56568 27.3905 7.60616 27.3905C7.64663 27.3905 7.7033 27.354 7.73568 27.3095C7.76806 27.265 7.82473 27.2286 7.86521 27.2286C7.90568 27.2286 7.93806 27.2083 7.93806 27.1881C7.93806 27.1638 7.97449 27.1476 8.01901 27.1476C8.06354 27.1476 8.09997 27.1274 8.09997 27.1071C8.09997 27.0829 8.13235 27.0667 8.17282 27.0667C8.2133 27.0667 8.26997 27.0302 8.30235 26.9857C8.33473 26.9412 8.3914 26.9048 8.43187 26.9048C8.47235 26.9048 8.50473 26.8845 8.50473 26.8643C8.50473 26.84 8.54116 26.8238 8.58568 26.8238C8.63021 26.8238 8.66663 26.8036 8.66663 26.7833C8.66663 26.759 8.69901 26.7429 8.73949 26.7429C8.77997 26.7429 8.83663 26.7064 8.86901 26.6619C8.9014 26.6174 8.95806 26.581 8.99854 26.581C9.03901 26.581 9.0714 26.5607 9.0714 26.5405C9.0714 26.5162 9.10782 26.5 9.15235 26.5C9.19687 26.5 9.2333 26.4798 9.2333 26.4595C9.2333 26.4352 9.26568 26.419 9.30616 26.419C9.34663 26.419 9.4033 26.3826 9.43568 26.3381C9.47616 26.2814 9.54092 26.2571 9.64616 26.2571C9.73116 26.2571 9.79997 26.2733 9.79997 26.2976Z" fill="#F14C1C"/>
<path d="M9.63786 26.9451C9.63786 26.9654 9.60143 26.9856 9.55691 26.9856C9.51239 26.9856 9.47596 27.0018 9.47596 27.0261C9.47596 27.0463 9.43953 27.0666 9.39501 27.0666C9.35048 27.0666 9.31405 27.0828 9.31405 27.107C9.31405 27.1273 9.28167 27.1475 9.2412 27.1475C9.20072 27.1475 9.14405 27.1839 9.11167 27.2285C9.07929 27.273 9.02262 27.3094 8.98215 27.3094C8.94167 27.3094 8.90929 27.3256 8.90929 27.3499C8.90929 27.3701 8.87691 27.3904 8.83643 27.3904C8.79596 27.3904 8.73929 27.4268 8.70691 27.4713C8.67453 27.5158 8.61786 27.5523 8.57739 27.5523C8.53691 27.5523 8.50453 27.5685 8.50453 27.5928C8.50453 27.613 8.4681 27.6332 8.42358 27.6332C8.37905 27.6332 8.34262 27.6494 8.34262 27.6737C8.34262 27.6939 8.31024 27.7142 8.26977 27.7142C8.22929 27.7142 8.17262 27.7506 8.14024 27.7951C8.10786 27.8397 8.0512 27.8761 8.01072 27.8761C7.97024 27.8761 7.93786 27.8923 7.93786 27.9166C7.93786 27.9368 7.90143 27.957 7.85691 27.957C7.81239 27.957 7.77596 27.9732 7.77596 27.9975C7.77596 28.0178 7.74762 28.038 7.71524 28.038C7.67882 28.038 7.60596 28.0825 7.55334 28.1392L7.45215 28.2363V29.4547C7.45215 30.7216 7.46024 30.7904 7.62215 30.7904C7.65453 30.7904 7.7031 30.8268 7.73548 30.8713C7.76786 30.9158 7.82453 30.9523 7.86501 30.9523C7.90548 30.9523 7.93786 30.9685 7.93786 30.9928C7.93786 31.013 7.97429 31.0332 8.01882 31.0332C8.06334 31.0332 8.09977 31.0494 8.09977 31.0737C8.09977 31.0939 8.13215 31.1142 8.17262 31.1142C8.2131 31.1142 8.26977 31.1506 8.30215 31.1951C8.33453 31.2397 8.3912 31.2761 8.43167 31.2761C8.47215 31.2761 8.50453 31.2923 8.50453 31.3166C8.50453 31.3368 8.54096 31.357 8.58548 31.357C8.63001 31.357 8.66643 31.3732 8.66643 31.3975C8.66643 31.4178 8.69882 31.438 8.73929 31.438C8.77977 31.438 8.83643 31.4744 8.86882 31.5189C8.9012 31.5635 8.95786 31.5999 8.99834 31.5999C9.03882 31.5999 9.0712 31.6161 9.0712 31.6404C9.0712 31.6606 9.10358 31.6808 9.14405 31.6808C9.18453 31.6808 9.2412 31.7173 9.27358 31.7618C9.30596 31.8063 9.36262 31.8428 9.4031 31.8428C9.44358 31.8428 9.47596 31.8589 9.47596 31.8832C9.47596 31.9035 9.54882 31.9237 9.63786 31.9237C9.72691 31.9237 9.79977 31.9035 9.79977 31.8832C9.79977 31.8589 9.8362 31.8428 9.88072 31.8428C9.92524 31.8428 9.96167 31.8225 9.96167 31.8023C9.96167 31.778 9.99405 31.7618 10.0345 31.7618C10.075 31.7618 10.1317 31.7254 10.1641 31.6808C10.1964 31.6363 10.2531 31.5999 10.2936 31.5999C10.3341 31.5999 10.3664 31.5797 10.3664 31.5594C10.3664 31.5351 10.4029 31.5189 10.4474 31.5189C10.4919 31.5189 10.5283 31.4987 10.5283 31.4785C10.5283 31.4542 10.5607 31.438 10.6012 31.438C10.6417 31.438 10.6983 31.4016 10.7307 31.357C10.7631 31.3125 10.8198 31.2761 10.8602 31.2761C10.9007 31.2761 10.9331 31.2558 10.9331 31.2356C10.9331 31.2113 10.9655 31.1951 11.006 31.1951C11.0464 31.1951 11.1031 31.1587 11.1355 31.1142C11.1679 31.0697 11.2245 31.0332 11.265 31.0332C11.3055 31.0332 11.3379 31.013 11.3379 30.9928C11.3379 30.9685 11.3743 30.9523 11.4188 30.9523C11.4633 30.9523 11.4998 30.932 11.4998 30.9118C11.4998 30.8875 11.5281 30.8713 11.5605 30.8713C11.5969 30.8713 11.6698 30.8268 11.7224 30.7701L11.8236 30.673V29.3939C11.8236 28.1473 11.8236 28.1189 11.7426 28.1189C11.6981 28.1189 11.6617 28.0987 11.6617 28.0785C11.6617 28.0542 11.6252 28.038 11.5807 28.038C11.5362 28.038 11.4998 28.0178 11.4998 27.9975C11.4998 27.9732 11.4674 27.957 11.4269 27.957C11.3864 27.957 11.3298 27.9206 11.2974 27.8761C11.265 27.8316 11.2083 27.7951 11.1679 27.7951C11.1274 27.7951 11.095 27.7749 11.095 27.7547C11.095 27.7304 11.0586 27.7142 11.0141 27.7142C10.9695 27.7142 10.9331 27.6939 10.9331 27.6737C10.9331 27.6494 10.9007 27.6332 10.8602 27.6332C10.8198 27.6332 10.7631 27.5968 10.7307 27.5523C10.6983 27.5078 10.6417 27.4713 10.6012 27.4713C10.5607 27.4713 10.5283 27.4511 10.5283 27.4308C10.5283 27.4066 10.4919 27.3904 10.4474 27.3904C10.4029 27.3904 10.3664 27.3701 10.3664 27.3499C10.3664 27.3256 10.3341 27.3094 10.2936 27.3094C10.2531 27.3094 10.1964 27.273 10.1641 27.2285C10.1317 27.1839 10.075 27.1475 10.0345 27.1475C9.99405 27.1475 9.96167 27.1273 9.96167 27.107C9.96167 27.0828 9.92929 27.0666 9.88882 27.0666C9.84834 27.0666 9.79167 27.0301 9.75929 26.9856C9.69858 26.9006 9.63786 26.8804 9.63786 26.9451Z" fill="#F14C1C"/>
<path d="M24.1325 34.9595C24.1325 34.9393 24.096 34.919 24.0515 34.919C24.007 34.919 23.9706 34.9028 23.9706 34.8786C23.9706 34.8583 23.9341 34.8381 23.8896 34.8381C23.8451 34.8381 23.8087 34.8219 23.8087 34.7976C23.8087 34.7774 23.756 34.7571 23.6953 34.7571C23.6306 34.7571 23.5577 34.7248 23.5253 34.6762C23.493 34.6317 23.4363 34.5952 23.3958 34.5952C23.3553 34.5952 23.323 34.579 23.323 34.5548C23.323 34.5345 23.2906 34.5143 23.2501 34.5143C23.2096 34.5143 23.153 34.4778 23.1206 34.4333C23.0882 34.3888 23.0356 34.3524 22.9991 34.3524C22.9627 34.3524 22.9101 34.3159 22.8777 34.2714C22.8453 34.2269 22.7927 34.1905 22.7644 34.1905C22.732 34.1905 22.6551 34.1378 22.5944 34.069C22.5337 34.0043 22.4608 33.9476 22.4365 33.9476C22.3758 33.9476 21.461 33.0328 21.461 32.9721C21.461 32.9478 21.4084 32.875 21.3396 32.8143C21.2749 32.7536 21.2182 32.6767 21.2182 32.6443C21.2182 32.6159 21.1818 32.5633 21.1372 32.5309C21.0927 32.4986 21.0563 32.4459 21.0563 32.4095C21.0563 32.3731 21.0199 32.3205 20.9753 32.2881C20.9308 32.2557 20.8944 32.199 20.8944 32.1586C20.8944 32.1181 20.8782 32.0857 20.8539 32.0857C20.8337 32.0857 20.8134 32.0493 20.8134 32.0048C20.8134 31.9602 20.7972 31.9238 20.773 31.9238C20.7527 31.9238 20.7325 31.8874 20.7325 31.8428C20.7325 31.7983 20.7163 31.7619 20.692 31.7619C20.6718 31.7619 20.6515 31.7255 20.6515 31.6809C20.6515 31.6364 20.6353 31.6 20.611 31.6C20.5908 31.6 20.5706 31.5636 20.5706 31.519C20.5706 31.4745 20.5544 31.4381 20.5301 31.4381C20.5099 31.4381 20.4896 31.4017 20.4896 31.3571C20.4896 31.3126 20.4734 31.2762 20.4491 31.2762C20.4289 31.2762 20.4087 31.2236 20.4087 31.1548C20.4087 31.09 20.3925 31.0333 20.3682 31.0333C20.348 31.0333 20.3277 30.9807 20.3277 30.9119C20.3277 30.8471 20.3115 30.7905 20.2872 30.7905C20.267 30.7905 20.2468 30.7378 20.2468 30.669C20.2468 30.6043 20.2306 30.5476 20.2063 30.5476C20.186 30.5476 20.1658 30.4748 20.1658 30.3857C20.1658 30.2967 20.1496 30.2238 20.1253 30.2238C20.1051 30.2238 20.0849 30.1348 20.0849 30.0214C20.0849 29.9121 20.0687 29.819 20.0444 29.819C20.0201 29.819 20.0039 29.4426 20.0039 28.7667C20.0039 28.0907 20.0201 27.7143 20.0444 27.7143C20.0687 27.7143 20.0849 27.6252 20.0849 27.5119C20.0849 27.4026 20.1051 27.3095 20.1253 27.3095C20.1496 27.3095 20.1658 27.2367 20.1658 27.1476C20.1658 27.0586 20.186 26.9857 20.2063 26.9857C20.2306 26.9857 20.2468 26.9331 20.2468 26.8643C20.2468 26.7995 20.267 26.7428 20.2872 26.7428C20.3115 26.7428 20.3277 26.6902 20.3277 26.6214C20.3277 26.5567 20.348 26.5 20.3682 26.5C20.3925 26.5 20.4087 26.4474 20.4087 26.3786C20.4087 26.3138 20.4289 26.2571 20.4491 26.2571C20.4734 26.2571 20.4896 26.2207 20.4896 26.1762C20.4896 26.1317 20.5099 26.0952 20.5301 26.0952C20.5544 26.0952 20.5706 26.0426 20.5706 25.9738C20.5706 25.909 20.5908 25.8524 20.611 25.8524C20.6353 25.8524 20.6515 25.82 20.6515 25.7795C20.6515 25.739 20.688 25.6824 20.7325 25.65C20.777 25.6176 20.8134 25.5609 20.8134 25.5205C20.8134 25.48 20.8337 25.4476 20.8539 25.4476C20.8782 25.4476 20.8944 25.4112 20.8944 25.3667C20.8944 25.3221 20.9146 25.2857 20.9349 25.2857C20.9591 25.2857 20.9753 25.2574 20.9753 25.2209C20.9753 25.1845 21.032 25.1036 21.0968 25.0428C21.1656 24.9821 21.2182 24.9052 21.2182 24.8728C21.2182 24.8445 21.2546 24.7919 21.2991 24.7595C21.3437 24.7271 21.3801 24.6786 21.3801 24.6502C21.3801 24.5855 22.4527 23.5048 22.5175 23.5048C22.5418 23.5048 22.6146 23.4521 22.6753 23.3833C22.736 23.3186 22.813 23.2619 22.8453 23.2619C22.8737 23.2619 22.9263 23.2255 22.9587 23.1809C22.991 23.1364 23.0477 23.1 23.0882 23.1C23.1287 23.1 23.161 23.0838 23.161 23.0595C23.161 23.0393 23.1934 23.019 23.2339 23.019C23.2744 23.019 23.331 22.9826 23.3634 22.9381C23.3958 22.8936 23.4525 22.8571 23.493 22.8571C23.5334 22.8571 23.5658 22.8409 23.5658 22.8167C23.5658 22.7964 23.6022 22.7762 23.6468 22.7762C23.6913 22.7762 23.7277 22.76 23.7277 22.7357C23.7277 22.7155 23.7641 22.6952 23.8087 22.6952C23.8532 22.6952 23.8896 22.679 23.8896 22.6548C23.8896 22.6345 23.9463 22.6143 24.011 22.6143C24.0799 22.6143 24.1325 22.5981 24.1325 22.5738C24.1325 22.5536 24.1689 22.5333 24.2134 22.5333C24.258 22.5333 24.2944 22.5171 24.2944 22.4928C24.2944 22.4726 24.351 22.4524 24.4158 22.4524C24.4846 22.4524 24.5372 22.4362 24.5372 22.4119C24.5372 22.3917 24.5939 22.3714 24.6587 22.3714C24.7275 22.3714 24.7801 22.3552 24.7801 22.3309C24.7801 22.3107 24.853 22.2905 24.942 22.2905C25.031 22.2905 25.1039 22.2743 25.1039 22.25C25.1039 22.2298 25.197 22.2095 25.3063 22.2095C25.4196 22.2095 25.5087 22.1933 25.5087 22.169C25.5087 22.1448 25.6422 22.1286 25.8325 22.1286C26.0227 22.1286 26.1563 22.1124 26.1563 22.0881C26.1563 22.0638 26.3465 22.0476 26.642 22.0476C26.9375 22.0476 27.1277 22.0638 27.1277 22.0881C27.1277 22.1124 27.2613 22.1286 27.4515 22.1286C27.6418 22.1286 27.7753 22.1448 27.7753 22.169C27.7753 22.1933 27.8684 22.2095 27.9777 22.2095C28.091 22.2095 28.1801 22.2298 28.1801 22.25C28.1801 22.2743 28.253 22.2905 28.342 22.2905C28.431 22.2905 28.5039 22.3107 28.5039 22.3309C28.5039 22.3552 28.5606 22.3714 28.6253 22.3714C28.6941 22.3714 28.7468 22.3917 28.7468 22.4119C28.7468 22.4362 28.8034 22.4524 28.8682 22.4524C28.937 22.4524 28.9896 22.4726 28.9896 22.4928C28.9896 22.5171 29.0463 22.5333 29.111 22.5333C29.1799 22.5333 29.2325 22.5536 29.2325 22.5738C29.2325 22.5981 29.2689 22.6143 29.3134 22.6143C29.358 22.6143 29.3944 22.6345 29.3944 22.6548C29.3944 22.679 29.4308 22.6952 29.4753 22.6952C29.5199 22.6952 29.5563 22.7155 29.5563 22.7357C29.5563 22.76 29.5927 22.7762 29.6372 22.7762C29.6818 22.7762 29.7182 22.7964 29.7182 22.8167C29.7182 22.8409 29.7546 22.8571 29.7991 22.8571C29.8437 22.8571 29.8801 22.8774 29.8801 22.8976C29.8801 22.9219 29.9125 22.9381 29.953 22.9381C29.9934 22.9381 30.0501 22.9745 30.0825 23.019C30.1149 23.0636 30.1675 23.1 30.2039 23.1C30.2403 23.1 30.293 23.1364 30.3253 23.1809C30.3577 23.2255 30.4103 23.2619 30.4468 23.2619C30.4832 23.2619 30.5358 23.2983 30.5682 23.3428C30.6006 23.3874 30.6491 23.4238 30.6815 23.4238C30.7099 23.4238 30.8596 23.5533 31.0134 23.7071C31.1672 23.865 31.321 23.9905 31.3575 23.9905C31.3899 23.9905 31.4182 24.0188 31.4182 24.0512C31.4182 24.0876 31.5477 24.2414 31.7015 24.3952C31.8594 24.549 31.9849 24.6988 31.9849 24.7271C31.9849 24.7595 32.0213 24.8081 32.0658 24.8405C32.1103 24.8728 32.1468 24.9255 32.1468 24.9619C32.1468 24.9983 32.1832 25.0509 32.2277 25.0833C32.2722 25.1157 32.3087 25.1683 32.3087 25.2048C32.3087 25.2412 32.3451 25.2938 32.3896 25.3262C32.4341 25.3586 32.4706 25.4152 32.4706 25.4557C32.4706 25.4962 32.4908 25.5286 32.511 25.5286C32.5353 25.5286 32.5515 25.565 32.5515 25.6095C32.5515 25.654 32.5718 25.6905 32.592 25.6905C32.6163 25.6905 32.6325 25.7269 32.6325 25.7714C32.6325 25.8159 32.6527 25.8524 32.673 25.8524C32.6972 25.8524 32.7134 25.8888 32.7134 25.9333C32.7134 25.9778 32.7337 26.0143 32.7539 26.0143C32.7782 26.0143 32.7944 26.0507 32.7944 26.0952C32.7944 26.1398 32.8146 26.1762 32.8349 26.1762C32.8591 26.1762 32.8753 26.2328 32.8753 26.2976C32.8753 26.3664 32.8956 26.419 32.9158 26.419C32.9401 26.419 32.9563 26.4757 32.9563 26.5405C32.9563 26.6093 32.9765 26.6619 32.9968 26.6619C33.021 26.6619 33.0372 26.7186 33.0372 26.7833C33.0372 26.8521 33.0575 26.9048 33.0777 26.9048C33.102 26.9048 33.1182 26.9776 33.1182 27.0667C33.1182 27.1557 33.1384 27.2286 33.1587 27.2286C33.183 27.2286 33.1991 27.3217 33.1991 27.4309C33.1991 27.5443 33.2194 27.6333 33.2396 27.6333C33.2639 27.6333 33.2801 27.7669 33.2801 27.9571C33.2801 28.1474 33.2963 28.2809 33.3206 28.2809C33.3449 28.2809 33.361 28.4712 33.361 28.7667C33.361 29.0621 33.3449 29.2524 33.3206 29.2524C33.2963 29.2524 33.2801 29.3859 33.2801 29.5762C33.2801 29.7664 33.2639 29.9 33.2396 29.9C33.2194 29.9 33.1991 29.9931 33.1991 30.1024C33.1991 30.2157 33.183 30.3048 33.1587 30.3048C33.1384 30.3048 33.1182 30.3776 33.1182 30.4667C33.1182 30.5557 33.102 30.6286 33.0777 30.6286C33.0575 30.6286 33.0372 30.6852 33.0372 30.75C33.0372 30.8188 33.021 30.8714 32.9968 30.8714C32.9765 30.8714 32.9563 30.9281 32.9563 30.9928C32.9563 31.0617 32.9401 31.1143 32.9158 31.1143C32.8956 31.1143 32.8753 31.1507 32.8753 31.1952C32.8753 31.2398 32.8591 31.2762 32.8349 31.2762C32.8146 31.2762 32.7944 31.3328 32.7944 31.3976C32.7944 31.4664 32.7782 31.519 32.7539 31.519C32.7337 31.519 32.7134 31.5555 32.7134 31.6C32.7134 31.6445 32.6972 31.6809 32.673 31.6809C32.6527 31.6809 32.6325 31.7174 32.6325 31.7619C32.6325 31.8064 32.6163 31.8428 32.592 31.8428C32.5718 31.8428 32.5515 31.8793 32.5515 31.9238C32.5515 31.9683 32.5353 32.0048 32.511 32.0048C32.4908 32.0048 32.4706 32.0371 32.4706 32.0776C32.4706 32.1181 32.4341 32.1748 32.3896 32.2071C32.3451 32.2395 32.3087 32.2921 32.3087 32.3286C32.3087 32.365 32.2722 32.4176 32.2277 32.45C32.1832 32.4824 32.1468 32.535 32.1468 32.5714C32.1468 32.6078 32.1103 32.6605 32.0658 32.6928C32.0213 32.7252 31.9849 32.7738 31.9849 32.8021C31.9849 32.8669 30.8313 34.0286 30.7665 34.0286C30.7422 34.0286 30.6694 34.0852 30.6087 34.15C30.548 34.2188 30.471 34.2714 30.4387 34.2714C30.4103 34.2714 30.3577 34.3078 30.3253 34.3524C30.293 34.3969 30.2363 34.4333 30.1958 34.4333C30.1553 34.4333 30.123 34.4536 30.123 34.4738C30.123 34.4981 30.0906 34.5143 30.0501 34.5143C30.0096 34.5143 29.953 34.5507 29.9206 34.5952C29.8882 34.6398 29.8315 34.6762 29.791 34.6762C29.7506 34.6762 29.7182 34.6964 29.7182 34.7167C29.7182 34.7409 29.6818 34.7571 29.6372 34.7571C29.5927 34.7571 29.5563 34.7774 29.5563 34.7976C29.5563 34.8219 29.5199 34.8381 29.4753 34.8381C29.4308 34.8381 29.3944 34.8583 29.3944 34.8786C29.3944 34.9028 29.3418 34.919 29.273 34.919C29.2082 34.919 29.1515 34.9393 29.1515 34.9595C29.1515 34.9838 29.0989 35 29.0301 35C28.9653 35 28.9087 34.9838 28.9087 34.9595C28.9087 34.9393 28.8803 34.919 28.848 34.919C28.8115 34.919 28.7225 34.8543 28.6456 34.7774L28.5039 34.6398V31.9845V29.3333H26.6825H24.861V31.8833C24.861 33.555 24.8489 34.4333 24.8206 34.4333C24.8003 34.4333 24.7801 34.49 24.7801 34.5548C24.7801 34.6236 24.7639 34.6762 24.7396 34.6762C24.7194 34.6762 24.6991 34.7126 24.6991 34.7571C24.6991 34.8098 24.6708 34.8381 24.6182 34.8381C24.5737 34.8381 24.5372 34.8583 24.5372 34.8786C24.5372 34.9028 24.5008 34.919 24.4563 34.919C24.4118 34.919 24.3753 34.9393 24.3753 34.9595C24.3753 34.9838 24.3227 35 24.2539 35C24.1891 35 24.1325 34.9838 24.1325 34.9595Z" fill="#F14C1C"/>
<path d="M24.1328 17.0287C24.1328 13.8189 24.145 12.1715 24.1733 12.1715C24.1976 12.1715 24.2138 12.1917 24.2138 12.212C24.2138 12.2363 24.2502 12.2525 24.2947 12.2525C24.3392 12.2525 24.3757 12.2727 24.3757 12.2929C24.3757 12.3172 24.4323 12.3334 24.4971 12.3334C24.5659 12.3334 24.6185 12.3537 24.6185 12.3739C24.6185 12.3982 24.6752 12.4144 24.74 12.4144C24.8088 12.4144 24.8614 12.4346 24.8614 12.4548C24.8614 12.4791 24.9342 12.4953 25.0233 12.4953C25.1123 12.4953 25.1852 12.5156 25.1852 12.5358C25.1852 12.5601 25.2581 12.5763 25.3471 12.5763C25.4361 12.5763 25.509 12.5965 25.509 12.6167C25.509 12.641 25.6426 12.6572 25.8328 12.6572C26.0231 12.6572 26.1566 12.6734 26.1566 12.6977C26.1566 12.722 26.3469 12.7382 26.6423 12.7382C26.9378 12.7382 27.1281 12.722 27.1281 12.6977C27.1281 12.6734 27.2616 12.6572 27.4519 12.6572C27.6421 12.6572 27.7757 12.641 27.7757 12.6167C27.7757 12.5965 27.8485 12.5763 27.9376 12.5763C28.0266 12.5763 28.0995 12.5601 28.0995 12.5358C28.0995 12.5156 28.1723 12.4953 28.2614 12.4953C28.3504 12.4953 28.4233 12.4791 28.4233 12.4548C28.4233 12.4346 28.48 12.4144 28.5447 12.4144C28.6135 12.4144 28.6661 12.3982 28.6661 12.3739C28.6661 12.3537 28.7228 12.3334 28.7876 12.3334C28.8564 12.3334 28.909 12.3172 28.909 12.2929C28.909 12.2727 28.9454 12.2525 28.99 12.2525C29.0345 12.2525 29.0709 12.2363 29.0709 12.212C29.0709 12.1917 29.0911 12.1715 29.1114 12.1715C29.1397 12.1715 29.1519 13.8189 29.1519 17.0287C29.1519 20.2384 29.1397 21.8858 29.1114 21.8858C29.0911 21.8858 29.0709 21.8696 29.0709 21.8453C29.0709 21.8251 29.0183 21.8048 28.9495 21.8048C28.8847 21.8048 28.8281 21.7887 28.8281 21.7644C28.8281 21.7441 28.7754 21.7239 28.7066 21.7239C28.6419 21.7239 28.5852 21.7077 28.5852 21.6834C28.5852 21.6632 28.5123 21.6429 28.4233 21.6429C28.3342 21.6429 28.2614 21.6267 28.2614 21.6025C28.2614 21.5822 28.1723 21.562 28.059 21.562C27.9497 21.562 27.8566 21.5458 27.8566 21.5215C27.8566 21.4972 27.6947 21.481 27.4519 21.481C27.209 21.481 27.0471 21.4648 27.0471 21.4406C27.0471 21.4163 26.8852 21.4001 26.6423 21.4001C26.3995 21.4001 26.2376 21.4163 26.2376 21.4406C26.2376 21.4648 26.0878 21.481 25.8733 21.481C25.6588 21.481 25.509 21.4972 25.509 21.5215C25.509 21.5458 25.3997 21.562 25.2661 21.562C25.1326 21.562 25.0233 21.5782 25.0233 21.6025C25.0233 21.6267 24.9504 21.6429 24.8614 21.6429C24.7723 21.6429 24.6995 21.6632 24.6995 21.6834C24.6995 21.7077 24.6469 21.7239 24.5781 21.7239C24.5133 21.7239 24.4566 21.7441 24.4566 21.7644C24.4566 21.7887 24.404 21.8048 24.3352 21.8048C24.2704 21.8048 24.2138 21.8251 24.2138 21.8453C24.2138 21.8696 24.1976 21.8858 24.1733 21.8858C24.145 21.8858 24.1328 20.2384 24.1328 17.0287ZM26.865 19.5179L26.9661 19.4208V17.0287V14.6365L26.865 14.5394C26.8042 14.4746 26.7192 14.4382 26.6423 14.4382C26.5654 14.4382 26.4804 14.4746 26.4197 14.5394L26.3185 14.6365V17.0287V19.4208L26.4116 19.5179C26.5331 19.6515 26.7354 19.6515 26.865 19.5179Z" fill="#F14C1C"/>
<path d="M26.2377 12.05C26.2377 12.0257 26.1041 12.0095 25.9139 12.0095C25.7236 12.0095 25.5901 11.9933 25.5901 11.969C25.5901 11.9488 25.5172 11.9286 25.4282 11.9286C25.3391 11.9286 25.2663 11.9124 25.2663 11.8881C25.2663 11.8679 25.1934 11.8476 25.1044 11.8476C25.0153 11.8476 24.9425 11.8314 24.9425 11.8071C24.9425 11.7869 24.8898 11.7667 24.821 11.7667C24.7563 11.7667 24.6996 11.7505 24.6996 11.7262C24.6996 11.706 24.6632 11.6857 24.6186 11.6857C24.5741 11.6857 24.5377 11.6695 24.5377 11.6452C24.5377 11.625 24.5013 11.6048 24.4567 11.6048C24.4122 11.6048 24.3758 11.5886 24.3758 11.5643C24.3758 11.544 24.3394 11.5238 24.2948 11.5238C24.2503 11.5238 24.2139 11.5076 24.2139 11.4833C24.2139 11.4631 24.1775 11.4429 24.1329 11.4429C24.0884 11.4429 24.052 11.4267 24.052 11.4024C24.052 11.3821 24.0156 11.3619 23.971 11.3619C23.9265 11.3619 23.8901 11.3457 23.8901 11.3214C23.8901 11.3012 23.8577 11.281 23.8172 11.281C23.7767 11.281 23.7201 11.2445 23.6877 11.2C23.6553 11.1555 23.6027 11.119 23.5744 11.119C23.542 11.119 23.4651 11.0664 23.4044 10.9976C23.3436 10.9329 23.2708 10.8762 23.2465 10.8762C23.1817 10.8762 22.271 9.95738 22.271 9.89262C22.271 9.86429 22.2346 9.81571 22.1901 9.78333C22.1456 9.75095 22.1091 9.69833 22.1091 9.66191C22.1091 9.62548 22.0727 9.57286 22.0282 9.54048C21.9836 9.5081 21.9472 9.45548 21.9472 9.41905C21.9472 9.38262 21.9108 9.33 21.8663 9.29762C21.8217 9.26524 21.7853 9.20857 21.7853 9.1681C21.7853 9.12762 21.7691 9.09524 21.7448 9.09524C21.7246 9.09524 21.7044 9.05881 21.7044 9.01429C21.7044 8.96976 21.6882 8.93333 21.6639 8.93333C21.6436 8.93333 21.6234 8.8969 21.6234 8.85238C21.6234 8.80786 21.6072 8.77143 21.5829 8.77143C21.5627 8.77143 21.5425 8.71881 21.5425 8.65C21.5425 8.58524 21.5263 8.52857 21.502 8.52857C21.4817 8.52857 21.4615 8.47595 21.4615 8.40714C21.4615 8.34238 21.4453 8.28571 21.421 8.28571C21.4008 8.28571 21.3806 8.2331 21.3806 8.16429C21.3806 8.09952 21.3644 8.04286 21.3401 8.04286C21.3198 8.04286 21.2996 7.97 21.2996 7.88095C21.2996 7.7919 21.2834 7.71905 21.2591 7.71905C21.2348 7.71905 21.2186 7.60976 21.2186 7.47619C21.2186 7.34262 21.2025 7.23333 21.1782 7.23333C21.1539 7.23333 21.1377 6.97833 21.1377 6.54524C21.1377 6.11214 21.1539 5.85714 21.1782 5.85714C21.2025 5.85714 21.2186 5.74786 21.2186 5.61429C21.2186 5.48071 21.2348 5.37143 21.2591 5.37143C21.2834 5.37143 21.2996 5.29857 21.2996 5.20952C21.2996 5.12048 21.3198 5.04762 21.3401 5.04762C21.3644 5.04762 21.3806 4.995 21.3806 4.92619C21.3806 4.86143 21.4008 4.80476 21.421 4.80476C21.4453 4.80476 21.4615 4.75214 21.4615 4.68333C21.4615 4.61857 21.4817 4.5619 21.502 4.5619C21.5263 4.5619 21.5425 4.52548 21.5425 4.48095C21.5425 4.43643 21.5627 4.4 21.5829 4.4C21.6072 4.4 21.6234 4.34738 21.6234 4.27857C21.6234 4.21381 21.6436 4.15714 21.6639 4.15714C21.6882 4.15714 21.7044 4.12476 21.7044 4.08429C21.7044 4.04381 21.7408 3.98714 21.7853 3.95476C21.8298 3.92238 21.8663 3.86571 21.8663 3.82524C21.8663 3.78476 21.8865 3.75238 21.9067 3.75238C21.931 3.75238 21.9472 3.72 21.9472 3.67952C21.9472 3.63905 21.9836 3.58238 22.0282 3.55C22.0727 3.51762 22.1091 3.465 22.1091 3.43667C22.1091 3.40429 22.1658 3.32738 22.2306 3.26667C22.2994 3.20595 22.352 3.1331 22.352 3.10881C22.352 3.0481 23.1858 2.21429 23.2465 2.21429C23.2708 2.21429 23.3436 2.16167 23.4044 2.09286C23.4651 2.0281 23.542 1.97143 23.5744 1.97143C23.6027 1.97143 23.6553 1.935 23.6877 1.89048C23.7201 1.84595 23.7767 1.80952 23.8172 1.80952C23.8577 1.80952 23.8901 1.79333 23.8901 1.76905C23.8901 1.74881 23.9265 1.72857 23.971 1.72857C24.0156 1.72857 24.052 1.71238 24.052 1.6881C24.052 1.66786 24.0884 1.64762 24.1329 1.64762C24.1775 1.64762 24.2139 1.63143 24.2139 1.60714C24.2139 1.5869 24.2503 1.56667 24.2948 1.56667C24.3394 1.56667 24.3758 1.55048 24.3758 1.52619C24.3758 1.50595 24.4122 1.48571 24.4567 1.48571C24.5013 1.48571 24.5377 1.46952 24.5377 1.44524C24.5377 1.425 24.5944 1.40476 24.6591 1.40476C24.7279 1.40476 24.7806 1.38857 24.7806 1.36429C24.7806 1.34405 24.8372 1.32381 24.902 1.32381C24.9708 1.32381 25.0234 1.30762 25.0234 1.28333C25.0234 1.2631 25.0801 1.24286 25.1448 1.24286C25.2136 1.24286 25.2663 1.22667 25.2663 1.20238C25.2663 1.18214 25.3391 1.1619 25.4282 1.1619C25.5172 1.1619 25.5901 1.14571 25.5901 1.12143C25.5901 1.09714 25.7236 1.08095 25.9139 1.08095C26.1041 1.08095 26.2377 1.06476 26.2377 1.04048C26.2377 1.01619 26.3996 1 26.6425 1C26.8853 1 27.0472 1.01619 27.0472 1.04048C27.0472 1.06476 27.1808 1.08095 27.371 1.08095C27.5613 1.08095 27.6948 1.09714 27.6948 1.12143C27.6948 1.14571 27.7677 1.1619 27.8567 1.1619C27.9458 1.1619 28.0186 1.18214 28.0186 1.20238C28.0186 1.22667 28.0915 1.24286 28.1806 1.24286C28.2696 1.24286 28.3425 1.2631 28.3425 1.28333C28.3425 1.30762 28.3991 1.32381 28.4639 1.32381C28.5327 1.32381 28.5853 1.34405 28.5853 1.36429C28.5853 1.38857 28.6217 1.40476 28.6663 1.40476C28.7108 1.40476 28.7472 1.425 28.7472 1.44524C28.7472 1.46952 28.8039 1.48571 28.8686 1.48571C28.9375 1.48571 28.9901 1.50595 28.9901 1.52619C28.9901 1.55048 29.0225 1.56667 29.0629 1.56667C29.1034 1.56667 29.1601 1.6031 29.1925 1.64762C29.2248 1.69214 29.2815 1.72857 29.322 1.72857C29.3625 1.72857 29.3948 1.74881 29.3948 1.76905C29.3948 1.79333 29.4313 1.80952 29.4758 1.80952C29.5203 1.80952 29.5567 1.82976 29.5567 1.85C29.5567 1.87429 29.5851 1.89048 29.6215 1.89048C29.6579 1.89048 29.7389 1.94714 29.7996 2.0119C29.8603 2.08071 29.9332 2.13333 29.9575 2.13333C30.0222 2.13333 31.0948 3.21405 31.0948 3.27881C31.0948 3.30714 31.1313 3.35571 31.1758 3.3881C31.2203 3.42048 31.2567 3.4731 31.2567 3.50952C31.2567 3.54595 31.2932 3.59857 31.3377 3.63095C31.3822 3.66333 31.4186 3.72 31.4186 3.76048C31.4186 3.80095 31.4389 3.83333 31.4591 3.83333C31.4834 3.83333 31.4996 3.86976 31.4996 3.91429C31.4996 3.95881 31.5198 3.99524 31.5401 3.99524C31.5644 3.99524 31.5806 4.03167 31.5806 4.07619C31.5806 4.12071 31.6008 4.15714 31.621 4.15714C31.6453 4.15714 31.6615 4.19357 31.6615 4.2381C31.6615 4.28262 31.6817 4.31905 31.702 4.31905C31.7263 4.31905 31.7425 4.35548 31.7425 4.4C31.7425 4.44452 31.7627 4.48095 31.7829 4.48095C31.8072 4.48095 31.8234 4.53762 31.8234 4.60238C31.8234 4.67119 31.8436 4.72381 31.8639 4.72381C31.8882 4.72381 31.9044 4.78048 31.9044 4.84524C31.9044 4.91405 31.9246 4.96667 31.9448 4.96667C31.9691 4.96667 31.9853 5.03952 31.9853 5.12857C31.9853 5.21762 32.0056 5.29048 32.0258 5.29048C32.0501 5.29048 32.0663 5.38357 32.0663 5.49286C32.0663 5.60619 32.0865 5.69524 32.1067 5.69524C32.131 5.69524 32.1472 6.00691 32.1472 6.54524C32.1472 7.08357 32.131 7.39524 32.1067 7.39524C32.0865 7.39524 32.0663 7.48833 32.0663 7.59762C32.0663 7.71095 32.0501 7.8 32.0258 7.8C32.0056 7.8 31.9853 7.87286 31.9853 7.96191C31.9853 8.05095 31.9691 8.12381 31.9448 8.12381C31.9246 8.12381 31.9044 8.18048 31.9044 8.24524C31.9044 8.31405 31.8882 8.36667 31.8639 8.36667C31.8436 8.36667 31.8234 8.42333 31.8234 8.4881C31.8234 8.5569 31.8072 8.60952 31.7829 8.60952C31.7627 8.60952 31.7425 8.64595 31.7425 8.69048C31.7425 8.735 31.7263 8.77143 31.702 8.77143C31.6817 8.77143 31.6615 8.80786 31.6615 8.85238C31.6615 8.8969 31.6453 8.93333 31.621 8.93333C31.6008 8.93333 31.5806 8.96976 31.5806 9.01429C31.5806 9.05881 31.5644 9.09524 31.5401 9.09524C31.5198 9.09524 31.4996 9.13167 31.4996 9.17619C31.4996 9.22071 31.4834 9.25714 31.4591 9.25714C31.4389 9.25714 31.4186 9.28952 31.4186 9.33C31.4186 9.37048 31.3822 9.42714 31.3377 9.45952C31.2932 9.49191 31.2567 9.54452 31.2567 9.58095C31.2567 9.61738 31.2203 9.67 31.1758 9.70238C31.1313 9.73476 31.0948 9.78333 31.0948 9.81571C31.0948 9.84405 31.0058 9.95738 30.8925 10.0667C30.7832 10.176 30.6901 10.2852 30.6901 10.3095C30.6901 10.3662 30.4229 10.6333 30.3663 10.6333C30.3379 10.6333 30.2489 10.7062 30.1639 10.7952C30.0789 10.8843 29.9858 10.9571 29.9615 10.9571C29.9332 10.9571 29.8603 11.0138 29.7996 11.0786C29.7389 11.1474 29.6579 11.2 29.6215 11.2C29.5851 11.2 29.5567 11.2202 29.5567 11.2405C29.5567 11.2648 29.5244 11.281 29.4839 11.281C29.4434 11.281 29.3867 11.3174 29.3544 11.3619C29.322 11.4064 29.2653 11.4429 29.2248 11.4429C29.1844 11.4429 29.152 11.4631 29.152 11.4833C29.152 11.5076 29.1156 11.5238 29.071 11.5238C29.0265 11.5238 28.9901 11.544 28.9901 11.5643C28.9901 11.5886 28.9375 11.6048 28.8686 11.6048C28.8039 11.6048 28.7472 11.625 28.7472 11.6452C28.7472 11.6695 28.7108 11.6857 28.6663 11.6857C28.6217 11.6857 28.5853 11.706 28.5853 11.7262C28.5853 11.7505 28.5327 11.7667 28.4639 11.7667C28.3991 11.7667 28.3425 11.7869 28.3425 11.8071C28.3425 11.8314 28.2696 11.8476 28.1806 11.8476C28.0915 11.8476 28.0186 11.8679 28.0186 11.8881C28.0186 11.9124 27.9458 11.9286 27.8567 11.9286C27.7677 11.9286 27.6948 11.9488 27.6948 11.969C27.6948 11.9933 27.5613 12.0095 27.371 12.0095C27.1808 12.0095 27.0472 12.0257 27.0472 12.05C27.0472 12.0743 26.8853 12.0905 26.6425 12.0905C26.3996 12.0905 26.2377 12.0743 26.2377 12.05ZM26.8044 9.70238C26.8044 9.68214 26.8367 9.66191 26.8772 9.66191C26.9177 9.66191 26.9744 9.62548 27.0067 9.58095C27.0391 9.53643 27.0958 9.5 27.1363 9.5C27.1767 9.5 27.2091 9.48381 27.2091 9.45952C27.2091 9.43929 27.2456 9.41905 27.2901 9.41905C27.3346 9.41905 27.371 9.40286 27.371 9.37857C27.371 9.35833 27.4034 9.3381 27.4439 9.3381C27.4844 9.3381 27.541 9.30167 27.5734 9.25714C27.6058 9.21262 27.6625 9.17619 27.7029 9.17619C27.7434 9.17619 27.7758 9.16 27.7758 9.13571C27.7758 9.11548 27.8122 9.09524 27.8567 9.09524C27.9013 9.09524 27.9377 9.07905 27.9377 9.05476C27.9377 9.03452 27.9701 9.01429 28.0106 9.01429C28.051 9.01429 28.1077 8.97786 28.1401 8.93333C28.1725 8.88881 28.2291 8.85238 28.2696 8.85238C28.3101 8.85238 28.3425 8.83619 28.3425 8.8119C28.3425 8.79167 28.3748 8.77143 28.4153 8.77143C28.4558 8.77143 28.5125 8.735 28.5448 8.69048C28.5772 8.64595 28.6339 8.60952 28.6744 8.60952C28.7148 8.60952 28.7472 8.59333 28.7472 8.56905C28.7472 8.54881 28.7836 8.52857 28.8282 8.52857C28.8727 8.52857 28.9091 8.51238 28.9091 8.4881C28.9091 8.46786 28.9415 8.44762 28.982 8.44762C29.0225 8.44762 29.0791 8.41119 29.1115 8.36667C29.1439 8.32214 29.1925 8.28571 29.2248 8.28571C29.2977 8.28571 29.3948 8.18452 29.3948 8.10762C29.3948 8.07119 29.4151 8.04286 29.4353 8.04286C29.4596 8.04286 29.4758 7.51667 29.4758 6.54524C29.4758 5.57381 29.4596 5.04762 29.4353 5.04762C29.4151 5.04762 29.3948 5.01929 29.3948 4.98286C29.3948 4.9019 29.2977 4.80476 29.2167 4.80476C29.1803 4.80476 29.152 4.78857 29.152 4.76429C29.152 4.74405 29.1196 4.72381 29.0791 4.72381C29.0386 4.72381 28.982 4.68738 28.9496 4.64286C28.9172 4.59833 28.8606 4.5619 28.8201 4.5619C28.7796 4.5619 28.7472 4.54571 28.7472 4.52143C28.7472 4.50119 28.7148 4.48095 28.6744 4.48095C28.6339 4.48095 28.5772 4.44452 28.5448 4.4C28.5125 4.35548 28.4558 4.31905 28.4153 4.31905C28.3748 4.31905 28.3425 4.30286 28.3425 4.27857C28.3425 4.25833 28.306 4.2381 28.2615 4.2381C28.217 4.2381 28.1806 4.2219 28.1806 4.19762C28.1806 4.17738 28.1482 4.15714 28.1077 4.15714C28.0672 4.15714 28.0106 4.12071 27.9782 4.07619C27.9458 4.03167 27.8891 3.99524 27.8486 3.99524C27.8082 3.99524 27.7758 3.97905 27.7758 3.95476C27.7758 3.93452 27.7394 3.91429 27.6948 3.91429C27.6503 3.91429 27.6139 3.8981 27.6139 3.87381C27.6139 3.85357 27.5815 3.83333 27.541 3.83333C27.5006 3.83333 27.4439 3.7969 27.4115 3.75238C27.3791 3.70786 27.3225 3.67143 27.282 3.67143C27.2415 3.67143 27.2091 3.65524 27.2091 3.63095C27.2091 3.61071 27.1727 3.59048 27.1282 3.59048C27.0836 3.59048 27.0472 3.57429 27.0472 3.55C27.0472 3.52976 27.0108 3.50952 26.9663 3.50952C26.9217 3.50952 26.8853 3.49333 26.8853 3.46905C26.8853 3.44881 26.8489 3.42857 26.8044 3.42857C26.7598 3.42857 26.7234 3.41238 26.7234 3.3881C26.7234 3.36786 26.687 3.34762 26.6425 3.34762C26.5979 3.34762 26.5615 3.36786 26.5615 3.3881C26.5615 3.41238 26.5251 3.42857 26.4806 3.42857C26.436 3.42857 26.3996 3.44881 26.3996 3.46905C26.3996 3.49333 26.3632 3.50952 26.3186 3.50952C26.2741 3.50952 26.2377 3.52976 26.2377 3.55C26.2377 3.57429 26.2053 3.59048 26.1648 3.59048C26.1244 3.59048 26.0677 3.6269 26.0353 3.67143C26.0029 3.71595 25.9463 3.75238 25.9058 3.75238C25.8653 3.75238 25.8329 3.77262 25.8329 3.79286C25.8329 3.81714 25.7965 3.83333 25.752 3.83333C25.7075 3.83333 25.671 3.85357 25.671 3.87381C25.671 3.8981 25.6386 3.91429 25.5982 3.91429C25.5577 3.91429 25.501 3.95071 25.4686 3.99524C25.4363 4.03976 25.3796 4.07619 25.3391 4.07619C25.2986 4.07619 25.2663 4.09643 25.2663 4.11667C25.2663 4.14095 25.2339 4.15714 25.1934 4.15714C25.1529 4.15714 25.0963 4.19357 25.0639 4.2381C25.0315 4.28262 24.9748 4.31905 24.9344 4.31905C24.8939 4.31905 24.8615 4.33929 24.8615 4.35952C24.8615 4.38381 24.8251 4.4 24.7806 4.4C24.736 4.4 24.6996 4.42024 24.6996 4.44048C24.6996 4.46476 24.6672 4.48095 24.6267 4.48095C24.5863 4.48095 24.5296 4.51738 24.4972 4.5619C24.4648 4.60643 24.4082 4.64286 24.3677 4.64286C24.3272 4.64286 24.2948 4.6631 24.2948 4.68333C24.2948 4.70762 24.2584 4.72381 24.2139 4.72381C24.1694 4.72381 24.1329 4.74405 24.1329 4.76429C24.1329 4.78857 24.1046 4.80476 24.0682 4.80476C23.9751 4.80476 23.8901 4.90595 23.8901 5.02333C23.8901 5.08 23.8739 5.12857 23.8496 5.12857C23.8253 5.12857 23.8091 5.62643 23.8091 6.54524C23.8091 7.46405 23.8253 7.96191 23.8496 7.96191C23.8739 7.96191 23.8901 8.01048 23.8901 8.06714C23.8901 8.18452 23.9751 8.28571 24.0682 8.28571C24.1046 8.28571 24.1329 8.30595 24.1329 8.32619C24.1329 8.35048 24.1653 8.36667 24.2058 8.36667C24.2463 8.36667 24.3029 8.4031 24.3353 8.44762C24.3677 8.49214 24.4244 8.52857 24.4648 8.52857C24.5053 8.52857 24.5377 8.54881 24.5377 8.56905C24.5377 8.59333 24.5701 8.60952 24.6106 8.60952C24.651 8.60952 24.7077 8.64595 24.7401 8.69048C24.7725 8.735 24.8291 8.77143 24.8696 8.77143C24.9101 8.77143 24.9425 8.79167 24.9425 8.8119C24.9425 8.83619 24.9789 8.85238 25.0234 8.85238C25.0679 8.85238 25.1044 8.87262 25.1044 8.89286C25.1044 8.91714 25.1367 8.93333 25.1772 8.93333C25.2177 8.93333 25.2744 8.96976 25.3067 9.01429C25.3391 9.05881 25.3958 9.09524 25.4363 9.09524C25.4767 9.09524 25.5091 9.11548 25.5091 9.13571C25.5091 9.16 25.5456 9.17619 25.5901 9.17619C25.6346 9.17619 25.671 9.19643 25.671 9.21667C25.671 9.24095 25.7034 9.25714 25.7439 9.25714C25.7844 9.25714 25.841 9.29357 25.8734 9.3381C25.9058 9.38262 25.9625 9.41905 26.0029 9.41905C26.0434 9.41905 26.0758 9.43929 26.0758 9.45952C26.0758 9.48381 26.1122 9.5 26.1567 9.5C26.2013 9.5 26.2377 9.52024 26.2377 9.54048C26.2377 9.56476 26.2701 9.58095 26.3106 9.58095C26.351 9.58095 26.4077 9.61738 26.4401 9.66191C26.4806 9.71857 26.5453 9.74286 26.6506 9.74286C26.7356 9.74286 26.8044 9.72667 26.8044 9.70238Z" fill="#F14C1C"/>
<path d="M26.6423 9.05487C26.6423 9.03463 26.6058 9.01439 26.5613 9.01439C26.5168 9.01439 26.4804 8.9982 26.4804 8.97391C26.4804 8.95368 26.4439 8.93344 26.3994 8.93344C26.3549 8.93344 26.3184 8.91725 26.3184 8.89296C26.3184 8.87272 26.2861 8.85248 26.2456 8.85248C26.2051 8.85248 26.1484 8.81606 26.1161 8.77153C26.0837 8.72701 26.027 8.69058 25.9865 8.69058C25.9461 8.69058 25.9137 8.67439 25.9137 8.6501C25.9137 8.62987 25.8813 8.60963 25.8408 8.60963C25.8004 8.60963 25.7437 8.5732 25.7113 8.52868C25.6789 8.48415 25.6223 8.44772 25.5818 8.44772C25.5413 8.44772 25.5089 8.43153 25.5089 8.40725C25.5089 8.38701 25.4725 8.36677 25.428 8.36677C25.3834 8.36677 25.347 8.35058 25.347 8.32629C25.347 8.30606 25.3146 8.28582 25.2742 8.28582C25.2337 8.28582 25.177 8.24939 25.1446 8.20487C25.1123 8.16034 25.0556 8.12391 25.0151 8.12391C24.9746 8.12391 24.9423 8.10772 24.9423 8.08344C24.9423 8.0632 24.9058 8.04296 24.8613 8.04296C24.8168 8.04296 24.7804 8.02677 24.7804 8.00248C24.7804 7.98225 24.752 7.96201 24.7196 7.96201C24.6832 7.96201 24.6104 7.91748 24.5577 7.86082L24.4565 7.76367V6.54534C24.4565 5.27844 24.4646 5.20963 24.6265 5.20963C24.6589 5.20963 24.7075 5.1732 24.7399 5.12867C24.7723 5.08415 24.8289 5.04772 24.8694 5.04772C24.9099 5.04772 24.9423 5.03153 24.9423 5.00725C24.9423 4.98701 24.9787 4.96677 25.0232 4.96677C25.0677 4.96677 25.1042 4.95058 25.1042 4.92629C25.1042 4.90606 25.1365 4.88582 25.177 4.88582C25.2175 4.88582 25.2742 4.84939 25.3065 4.80487C25.3389 4.76034 25.3956 4.72391 25.4361 4.72391C25.4765 4.72391 25.5089 4.70772 25.5089 4.68344C25.5089 4.6632 25.5454 4.64296 25.5899 4.64296C25.6344 4.64296 25.6708 4.62677 25.6708 4.60248C25.6708 4.58225 25.7032 4.56201 25.7437 4.56201C25.7842 4.56201 25.8408 4.52558 25.8732 4.48106C25.9056 4.43653 25.9623 4.4001 26.0027 4.4001C26.0432 4.4001 26.0756 4.38391 26.0756 4.35963C26.0756 4.33939 26.108 4.31915 26.1484 4.31915C26.1889 4.31915 26.2456 4.28272 26.278 4.2382C26.3104 4.19367 26.367 4.15725 26.4075 4.15725C26.448 4.15725 26.4804 4.14106 26.4804 4.11677C26.4804 4.09653 26.5532 4.07629 26.6423 4.07629C26.7313 4.07629 26.8042 4.09653 26.8042 4.11677C26.8042 4.14106 26.8406 4.15725 26.8851 4.15725C26.9296 4.15725 26.9661 4.17748 26.9661 4.19772C26.9661 4.22201 26.9984 4.2382 27.0389 4.2382C27.0794 4.2382 27.1361 4.27463 27.1684 4.31915C27.2008 4.36367 27.2575 4.4001 27.298 4.4001C27.3384 4.4001 27.3708 4.42034 27.3708 4.44058C27.3708 4.46487 27.4073 4.48106 27.4518 4.48106C27.4963 4.48106 27.5327 4.50129 27.5327 4.52153C27.5327 4.54582 27.5651 4.56201 27.6056 4.56201C27.6461 4.56201 27.7027 4.59844 27.7351 4.64296C27.7675 4.68748 27.8242 4.72391 27.8646 4.72391C27.9051 4.72391 27.9375 4.74415 27.9375 4.76439C27.9375 4.78867 27.9699 4.80487 28.0104 4.80487C28.0508 4.80487 28.1075 4.84129 28.1399 4.88582C28.1723 4.93034 28.2289 4.96677 28.2694 4.96677C28.3099 4.96677 28.3423 4.98701 28.3423 5.00725C28.3423 5.03153 28.3787 5.04772 28.4232 5.04772C28.4677 5.04772 28.5042 5.06796 28.5042 5.0882C28.5042 5.11248 28.5325 5.12867 28.5649 5.12867C28.6013 5.12867 28.6742 5.1732 28.7268 5.22987L28.828 5.32701V6.60606C28.828 7.85272 28.828 7.88106 28.747 7.88106C28.7025 7.88106 28.6661 7.90129 28.6661 7.92153C28.6661 7.94582 28.6296 7.96201 28.5851 7.96201C28.5406 7.96201 28.5042 7.98225 28.5042 8.00248C28.5042 8.02677 28.4718 8.04296 28.4313 8.04296C28.3908 8.04296 28.3342 8.07939 28.3018 8.12391C28.2694 8.16844 28.2127 8.20487 28.1723 8.20487C28.1318 8.20487 28.0994 8.2251 28.0994 8.24534C28.0994 8.26963 28.063 8.28582 28.0184 8.28582C27.9739 8.28582 27.9375 8.30606 27.9375 8.32629C27.9375 8.35058 27.9051 8.36677 27.8646 8.36677C27.8242 8.36677 27.7675 8.4032 27.7351 8.44772C27.7027 8.49225 27.6461 8.52868 27.6056 8.52868C27.5651 8.52868 27.5327 8.54891 27.5327 8.56915C27.5327 8.59344 27.4963 8.60963 27.4518 8.60963C27.4073 8.60963 27.3708 8.62987 27.3708 8.6501C27.3708 8.67439 27.3384 8.69058 27.298 8.69058C27.2575 8.69058 27.2008 8.72701 27.1684 8.77153C27.1361 8.81606 27.0794 8.85248 27.0389 8.85248C26.9984 8.85248 26.9661 8.87272 26.9661 8.89296C26.9661 8.91725 26.9337 8.93344 26.8932 8.93344C26.8527 8.93344 26.7961 8.96987 26.7637 9.01439C26.703 9.09939 26.6423 9.11963 26.6423 9.05487Z" fill="#F14C1C"/>
</svg>
