<svg width="36" height="36" viewBox="0 0 36 36" fill="none" xmlns="http://www.w3.org/2000/svg" id="advatage-3">
  <path d="M-1 17.5597V31.1195H10.7075H22.415V30.2178C22.415 29.442 22.394 29.2952 22.2822 29.1484C21.9886 28.778 21.6392 28.093 21.4225 27.4779C21.2058 26.8489 21.1918 26.779 21.1918 25.7375C21.1918 24.8009 21.2198 24.5842 21.3596 24.1299C22.6666 19.9502 27.7061 18.5802 30.8444 21.5578C32.0256 22.6831 32.6197 24.074 32.6197 25.7305C32.6197 26.9188 32.3402 27.8833 31.7041 28.8549L31.3616 29.3791V30.2458V31.1195H33.0741H34.7865V17.5597V4.00002H16.8932H-1V17.5597ZM29.9497 9.39595L29.9707 10.4304H16.8932H3.82279V9.4309C3.82279 8.87873 3.84376 8.40344 3.87172 8.38247C3.89269 8.35451 9.7709 8.34053 16.9212 8.34752L29.9288 8.36849L29.9497 9.39595ZM29.9637 14.9037V15.9522H16.8932H3.82279V14.9037V13.8553H16.8932H29.9637V14.9037ZM16.8932 20.4255V21.4739L10.379 21.4599L3.85774 21.4389L3.83677 20.4045L3.8158 19.377H10.358H16.8932V20.4255Z" fill="#F14C1C"/>
  <path d="M26.1335 22.1379C24.8194 22.4244 23.7011 23.5008 23.3586 24.7939C22.6946 27.3661 24.9732 29.7914 27.5943 29.3022C28.8454 29.0645 30.0406 27.9742 30.4111 26.716C30.5509 26.2547 30.5578 25.2762 30.425 24.7939C30.0756 23.4799 28.9572 22.4244 27.6222 22.1379C27.0281 22.0121 26.7136 22.0121 26.1335 22.1379Z" fill="#F14C1C"/>
  <path d="M24.5118 32.4685C24.5118 33.2933 24.5328 33.9782 24.5538 33.9992C24.5747 34.0202 25.106 33.8664 25.735 33.6567L26.8813 33.2793L28.0555 33.6637L29.2298 34.0481L29.2508 32.5384C29.2577 31.7066 29.2577 31.0217 29.2438 31.0077C29.2298 30.9937 29.0061 31.0566 28.7335 31.1545C27.5243 31.5738 26.0426 31.5598 24.9172 31.1125C24.7285 31.0426 24.5608 30.9797 24.5468 30.9797C24.5258 30.9797 24.5118 31.6507 24.5118 32.4685Z" fill="#F14C1C"/>
</svg>
