<svg width="36" height="36" viewBox="0 0 36 36" fill="none" xmlns="http://www.w3.org/2000/svg" id="aside-icon" >
    <path d="M0 10.3711V20.7422H1.77891H3.55078L8.70469 15.5883L13.8516 10.4414V5.21719V0H6.92578H0V10.3711Z" fill="#F14C1C"/>
    <path d="M13.9922 12.1992L5.44922 20.7422H15.2578H25.0664L28.7227 17.0859L32.3789 13.4297L27.4922 8.54297C24.8062 5.85703 22.5914 3.65625 22.5703 3.65625C22.5492 3.65625 18.6891 7.50234 13.9922 12.1992Z" fill="#F14C1C"/>
    <path d="M0 29.0742V36H18H36V29.0742V22.1484H18H0V29.0742ZM7.88203 26.1562C9.26016 26.6203 10.0406 27.7805 9.97031 29.257C9.94219 29.7914 9.90703 29.9391 9.68203 30.3961C9.08437 31.6055 7.73438 32.3156 6.46172 32.0766C5.12578 31.8305 4.16953 30.8742 3.92344 29.5312C3.81797 28.9898 3.92344 28.2867 4.19766 27.7172C4.53516 27 5.43516 26.2687 6.20859 26.0859C6.65859 25.9734 7.44609 26.0086 7.88203 26.1562Z" fill="#F14C1C"/>
</svg>
