<svg id="chat-2" viewBox="0 0 36 37" fill="none" xmlns="http://www.w3.org/2000/svg">
  <path d="M3.59998 9.42092C3.59998 8.46614 3.97926 7.55047 4.65439 6.87534C5.32952 6.20021 6.2452 5.82092 7.19998 5.82092H19.8C20.7548 5.82092 21.6704 6.20021 22.3456 6.87534C23.0207 7.55047 23.4 8.46614 23.4 9.42092V16.6209C23.4 17.5757 23.0207 18.4914 22.3456 19.1665C21.6704 19.8416 20.7548 20.2209 19.8 20.2209H16.2L10.8 25.6209V20.2209H7.19998C6.2452 20.2209 5.32952 19.8416 4.65439 19.1665C3.97926 18.4914 3.59998 17.5757 3.59998 16.6209V9.42092Z" fill="white"/>
  <path d="M27 13.0209V16.6209C27 18.5304 26.2414 20.3618 24.8912 21.712C23.5409 23.0623 21.7096 23.8209 19.8 23.8209H17.6904L14.5116 27.0015C15.0156 27.2697 15.5898 27.4209 16.2 27.4209H19.8L25.2 32.8209V27.4209H28.8C29.7548 27.4209 30.6704 27.0416 31.3456 26.3665C32.0207 25.6913 32.4 24.7757 32.4 23.8209V16.6209C32.4 15.6661 32.0207 14.7504 31.3456 14.0753C30.6704 13.4002 29.7548 13.0209 28.8 13.0209H27Z" fill="white"/>
</svg>
