<svg id="direct-2" width="105" height="130" viewBox="0 0 105 130" fill="none" xmlns="http://www.w3.org/2000/svg">
<path d="M23.8859 0.548828C23.7793 0.6707 23.4898 0.777344 23.2461 0.777344C22.9871 0.777344 22.7891 0.838287 22.7891 0.929688C22.7891 1.00586 22.6215 1.1125 22.4082 1.17343C22.1949 1.21915 22.0273 1.35625 22.0273 1.47812C22.0273 1.60001 21.9664 1.69141 21.8902 1.69141C21.8141 1.69141 21.6922 1.84375 21.6313 2.02657C21.5703 2.22461 21.4484 2.42265 21.357 2.4836C21.2352 2.55977 21.1895 10.2684 21.1895 30.9871C21.1895 58.8051 21.1895 59.384 21.4789 59.6734C21.7379 59.9172 22.0426 59.9629 23.825 60.0086C24.9523 60.0391 26.034 60.0238 26.232 59.9781L26.5977 59.8867L26.6281 33.7445C26.6586 14.732 26.7195 7.58711 26.8414 7.51094C26.9328 7.45 27.0547 7.25195 27.1156 7.06914C27.1766 6.90157 27.3898 6.70351 27.5879 6.65781C27.8012 6.59688 27.9688 6.49023 27.9688 6.41406C27.9688 6.32265 28.182 6.26172 28.4258 6.26172C28.6848 6.26172 28.8828 6.18555 28.8828 6.10938C28.8828 6.00273 40.2629 5.95703 62.7031 5.95703C85.1434 5.95703 96.5234 6.00273 96.5234 6.10938C96.5234 6.18555 96.7977 6.26172 97.1328 6.26172C97.5746 6.26172 97.7422 6.32265 97.7422 6.49023C97.7422 6.61211 97.8488 6.71875 97.9707 6.71875C98.0926 6.71875 98.1992 6.79492 98.1992 6.88633C98.1992 6.97774 98.3059 7.14531 98.4277 7.26719C98.5496 7.4043 98.6562 7.70898 98.6562 7.95274C98.6562 8.19649 98.7324 8.39453 98.8086 8.39453C98.9152 8.39453 98.9609 27.3918 98.9609 65.0664C98.9609 102.741 98.9152 121.738 98.8086 121.738C98.7324 121.738 98.6562 121.936 98.6562 122.18C98.6562 122.424 98.5496 122.729 98.4277 122.866C98.3059 122.988 98.1992 123.155 98.1992 123.246C98.1992 123.338 98.0926 123.414 97.9707 123.414C97.8488 123.414 97.7422 123.521 97.7422 123.643C97.7422 123.81 97.5746 123.871 97.1328 123.871C96.7977 123.871 96.5234 123.932 96.5234 124.023C96.5234 124.13 87.398 124.191 69.6805 124.206L42.8223 124.252L42.7766 126.187C42.7613 127.314 42.6699 128.137 42.5938 128.137C42.5023 128.137 42.4414 128.243 42.4414 128.365C42.4414 128.487 42.5176 128.594 42.5938 128.594C42.6852 128.594 42.7461 128.746 42.7461 128.929C42.7461 129.188 42.9137 129.355 43.3402 129.554C43.8887 129.797 45.5188 129.813 72.6816 129.782C95.5332 129.752 101.459 129.691 101.52 129.538C101.551 129.447 101.81 129.355 102.099 129.355C102.465 129.355 102.739 129.234 102.983 128.975C103.181 128.761 103.409 128.594 103.516 128.594C103.607 128.594 103.684 128.487 103.684 128.35C103.684 128.228 103.79 128.015 103.912 127.893C104.034 127.756 104.141 127.451 104.141 127.207C104.141 126.964 104.217 126.766 104.293 126.766C104.4 126.766 104.445 106.093 104.445 65.0664C104.445 24.0402 104.4 3.36719 104.293 3.36719C104.217 3.36719 104.141 3.16914 104.141 2.92539C104.141 2.68164 104.034 2.37695 103.912 2.23985C103.79 2.11797 103.684 1.90469 103.684 1.78281C103.684 1.64571 103.607 1.53906 103.516 1.53906C103.409 1.53906 103.181 1.37149 102.983 1.1582C102.739 0.883987 102.465 0.777344 102.084 0.777344C101.718 0.777344 101.551 0.7164 101.551 0.548828C101.551 0.350784 97.148 0.320312 62.825 0.320312C29.0352 0.335541 24.0535 0.366013 23.8859 0.548828Z" fill="#C2BEBE"/>
<path d="M28.8828 20.6582V32.9219H45.1836H61.4844V20.6582V8.39453H45.1836H28.8828V20.6582Z" fill="#C2BEBE"/>
<path d="M63.9219 20.6582V32.9219H80.2227H96.5234V20.6582V8.39453H80.2227H63.9219V20.6582Z" fill="#C2BEBE"/>
<path d="M29.0809 35.466C28.9285 35.527 28.8828 38.1168 28.8828 47.6992C28.8828 58.6375 28.9133 59.8563 29.1266 59.9477C29.2637 59.9934 34.9461 60.0391 41.7711 60.0391C49.8301 60.0391 54.1719 60.0848 54.1719 60.1914C54.1719 60.2676 54.4461 60.3895 54.7812 60.4352C55.1164 60.4961 55.3906 60.5875 55.3906 60.6637C55.3906 60.7398 55.4973 60.8008 55.6191 60.8008C55.7563 60.8008 55.8934 60.9074 55.9391 61.0293C56 61.1512 56.198 61.2578 56.3961 61.2578C56.6246 61.2578 56.7617 61.3492 56.7617 61.4863C56.7617 61.6082 56.8379 61.7148 56.9293 61.7148C57.0207 61.7148 57.1883 61.8063 57.3102 61.9281C57.432 62.05 57.5234 62.2176 57.5234 62.309C57.5234 62.4004 57.6301 62.4766 57.752 62.4766C57.8738 62.4766 57.9805 62.5832 57.9805 62.7051C57.9805 62.827 58.0871 62.9336 58.209 62.9336C58.3461 62.9336 58.4375 63.0707 58.4375 63.2992C58.4375 63.4973 58.5441 63.6953 58.666 63.7563C58.7879 63.802 58.8945 64.0152 58.8945 64.2285C58.8945 64.4418 58.9555 64.6094 59.0469 64.6094C59.123 64.6094 59.2449 64.8836 59.2906 65.2188C59.3516 65.5539 59.443 65.8281 59.5191 65.8281C59.5953 65.8281 59.6562 65.9195 59.6562 66.0414C59.6562 66.2242 60.2352 66.2699 62.9621 66.3156C65.4301 66.3461 66.268 66.407 66.3289 66.5441C66.3594 66.6508 66.5879 66.7422 66.8316 66.7422C67.1211 66.7422 67.2734 66.8184 67.2734 66.9707C67.2734 67.0926 67.3496 67.1992 67.441 67.1992C67.7762 67.1992 68.9492 68.5398 68.9492 68.9207C68.9492 69.134 69.0559 69.4082 69.1777 69.5453C69.2996 69.6672 69.4062 69.9414 69.4062 70.1547V70.5508H75.4695C80.5426 70.566 81.5633 70.5965 81.807 70.7793C81.9746 70.9012 82.2945 71.0078 82.5383 71.0078C82.8125 71.0078 82.9648 71.084 82.9648 71.2363C82.9648 71.3582 83.041 71.4648 83.1324 71.4648C83.3457 71.4648 84.1836 72.3027 84.1836 72.516C84.1836 72.6074 84.2902 72.6836 84.4121 72.6836C84.5949 72.6836 84.6406 72.973 84.6406 74.3594C84.6406 75.7457 84.5949 76.0352 84.4121 76.0352C84.2902 76.0352 84.1836 76.1113 84.1836 76.2027C84.1836 76.2941 83.8637 76.6902 83.4676 77.0711L82.7668 77.7871L76.2008 77.8328C69.2996 77.8785 69.4062 77.8785 69.4062 78.5793C69.4062 78.7621 69.3301 78.9297 69.2387 78.9602C69.1625 78.9906 69.0406 79.2953 68.9949 79.6609C68.9492 80.057 68.8273 80.3008 68.7055 80.3008C68.5836 80.3008 68.4922 80.377 68.4922 80.4684C68.4922 80.6816 67.6543 81.5195 67.441 81.5195C67.3496 81.5195 67.2734 81.6262 67.2734 81.748C67.2734 81.9156 67.1059 81.9766 66.6793 81.9766C66.2984 81.9766 66.0547 82.0527 65.9938 82.2051C65.9328 82.4031 65.4301 82.4336 62.7793 82.4336C60.098 82.4336 59.6562 82.4641 59.6562 82.6621C59.6562 82.784 59.5953 82.8906 59.5039 82.8906C59.4277 82.8906 59.3059 83.1648 59.2602 83.5C59.1992 83.8352 59.1078 84.1094 59.0316 84.1094C58.9555 84.1094 58.8945 84.277 58.8945 84.4902C58.8945 84.7035 58.7879 84.9168 58.666 84.9625C58.5441 85.0234 58.4375 85.2215 58.4375 85.4195C58.4375 85.648 58.3461 85.7852 58.209 85.7852C58.0871 85.7852 57.9805 85.8918 57.9805 86.0137C57.9805 86.1355 57.8738 86.2422 57.752 86.2422C57.6301 86.2422 57.5234 86.3488 57.5234 86.4707C57.5234 86.5926 57.4473 86.6992 57.3559 86.6992C57.2492 86.6992 57.0207 86.8668 56.8227 87.0801C56.6246 87.2934 56.3656 87.4609 56.2285 87.4609C56.0914 87.4609 55.9543 87.5676 55.9086 87.6895C55.8477 87.8113 55.6648 87.918 55.4668 87.918C55.2688 87.918 55.0859 88.0246 55.025 88.1465C54.9793 88.2988 54.7355 88.375 54.3242 88.375C53.9891 88.375 53.7148 88.4359 53.7148 88.5273C53.7148 88.6188 51.0184 88.6949 46.1434 88.7102L38.5566 88.7559L38.5109 90.0051C38.4805 90.7059 38.4043 91.2695 38.3281 91.2695C38.2367 91.2695 38.1758 91.4676 38.1758 91.7113C38.1758 91.9551 38.0691 92.2598 37.9473 92.3969C37.8254 92.5188 37.7188 92.793 37.7188 93.0063C37.7188 93.25 37.6273 93.4023 37.4902 93.4023C37.3684 93.4023 37.2617 93.509 37.2617 93.6309C37.2617 93.7527 37.2008 93.8594 37.1246 93.8594C37.0484 93.8594 36.9266 93.9965 36.8809 94.1641C36.759 94.5754 35.7992 95.5352 35.525 95.5352C35.4031 95.5352 35.2812 95.6418 35.2203 95.7637C35.1746 95.8855 35.0375 95.9922 34.9004 95.9922C34.7785 95.9922 34.6719 96.0531 34.6719 96.1445C34.6719 96.2207 34.5043 96.3273 34.291 96.3883C34.0777 96.434 33.9102 96.5406 33.9102 96.6016C33.9102 96.6625 33.5598 96.7539 33.118 96.7844C32.6762 96.8301 32.2953 96.952 32.2648 97.0434C32.2344 97.15 31.6402 97.2109 30.5434 97.2109H28.8828V104.356V111.501L34.093 111.562C38.0844 111.592 39.3031 111.653 39.3641 111.79C39.3945 111.897 39.5926 111.988 39.7906 111.988C40.0039 111.988 40.202 112.095 40.2477 112.217C40.3086 112.339 40.5066 112.445 40.7047 112.445C40.9332 112.445 41.0703 112.537 41.0703 112.674C41.0703 112.796 41.177 112.902 41.2988 112.902C41.4207 112.902 41.5273 113.009 41.5273 113.131C41.5273 113.253 41.6035 113.359 41.6797 113.359C41.7711 113.359 41.832 113.451 41.832 113.573C41.832 113.695 41.9234 113.893 42.0301 113.999C42.152 114.106 42.2891 114.471 42.3348 114.807C42.3957 115.142 42.5023 115.431 42.5938 115.462C42.6852 115.492 42.7461 116.635 42.7461 118.63V121.738H52.1152H61.4844V109.475V97.2109H51.2773C42.3043 97.2109 41.0703 97.1805 41.0703 96.9824C41.0703 96.8605 40.9941 96.7539 40.9027 96.7539C40.6133 96.7539 40.3086 96.3273 40.3086 95.9313C40.3086 95.718 40.3848 95.5352 40.4609 95.5352C40.5523 95.5352 40.6133 95.4285 40.6133 95.3066C40.6133 95.1848 40.7199 95.0781 40.8418 95.0781C40.9637 95.0781 41.0703 95.0172 41.0703 94.9258C41.0703 94.8344 44.6352 94.7582 51.2469 94.743L61.4082 94.6973L61.4539 91.0715C61.4691 88.8473 61.5453 87.4609 61.6367 87.4609C61.7281 87.4609 61.7891 87.2934 61.7891 87.0801C61.7891 86.8363 61.8805 86.6992 62.0176 86.6992C62.1395 86.6992 62.2461 86.5926 62.2461 86.4707C62.2461 86.3336 62.3832 86.2422 62.627 86.2422C62.8402 86.2422 63.0078 86.3031 63.0078 86.3945C63.0078 86.4707 63.1145 86.5469 63.2363 86.5469C63.3582 86.5469 63.4648 86.6535 63.4648 86.7754C63.4648 86.8973 63.5715 87.0039 63.6934 87.0039C63.8914 87.0039 63.9219 87.5371 63.9219 90.8887V94.7734H80.2227H96.5234V78.7164C96.5234 69.8805 96.4777 62.5527 96.432 62.4156C96.3406 62.2023 94.7105 62.1719 79.4 62.1719C70.0918 62.1719 62.3223 62.1262 62.1395 62.0805C61.8957 62.0195 61.7891 61.8672 61.7891 61.6234C61.7891 61.4254 61.7281 61.2578 61.6367 61.2578C61.5453 61.2578 61.4691 56.7789 61.4539 48.3391L61.4082 35.4355L45.3359 35.4051C36.5 35.3898 29.1723 35.4203 29.0809 35.466Z" fill="#C2BEBE"/>
<path d="M63.9219 47.6992V60.0391H80.2227H96.5234L96.493 47.7297L96.4473 35.4355L80.1922 35.3898L63.9219 35.3594V47.6992Z" fill="#C2BEBE"/>
<path d="M8.46875 62.3242C8.46875 62.4156 8.01172 62.4766 7.41758 62.4766C6.67109 62.4766 6.29023 62.5527 6.12266 62.7051C6.00078 62.827 5.72656 62.9336 5.51328 62.9336C5.26953 62.9336 5.11719 63.025 5.11719 63.1621C5.11719 63.3145 4.96484 63.3906 4.66016 63.3906C4.35547 63.3906 4.20312 63.4668 4.20312 63.6191C4.20312 63.741 4.12695 63.8477 4.03555 63.8477C3.89844 63.8477 3.36523 64.2895 2.77109 64.8988C2.67969 65.0055 2.48164 65.2035 2.34453 65.3406C2.19219 65.4777 2.07031 65.6758 2.07031 65.7824C2.07031 65.8891 2.00938 65.9805 1.9332 65.9805C1.85703 65.9805 1.75039 66.148 1.70469 66.3613C1.64375 66.5746 1.53711 66.7422 1.46094 66.7422C1.36953 66.7422 1.30859 66.9098 1.30859 67.123C1.30859 67.3363 1.20195 67.5496 1.08008 67.5953C0.9125 67.6715 0.851562 67.9152 0.851562 68.5094C0.851562 68.9664 0.790625 69.332 0.699219 69.332C0.607813 69.332 0.546875 71.1145 0.546875 74.3594C0.546875 77.6043 0.607813 79.3867 0.699219 79.3867C0.790625 79.3867 0.851562 79.7523 0.851562 80.2094C0.851562 80.8035 0.9125 81.0473 1.08008 81.1234C1.20195 81.1691 1.30859 81.3672 1.30859 81.5805C1.30859 81.7785 1.41523 81.9766 1.53711 82.0375C1.65898 82.0832 1.76562 82.2203 1.76562 82.3574C1.76562 82.4945 1.9332 82.7535 2.14648 82.9516C2.35977 83.1496 2.52734 83.3629 2.52734 83.4391C2.52734 83.6219 3.09102 84.1094 3.28906 84.1094C3.38047 84.1094 3.44141 84.216 3.44141 84.3379C3.44141 84.4598 3.51758 84.5664 3.60898 84.5664C3.71563 84.5664 3.94414 84.734 4.14219 84.9473C4.34023 85.1605 4.62969 85.3281 4.8125 85.3281C4.98008 85.3281 5.11719 85.4348 5.11719 85.5566C5.11719 85.7242 5.28477 85.7852 5.72656 85.7852C6.16836 85.7852 6.33594 85.8461 6.33594 86.0137C6.33594 86.2117 8.92578 86.2422 28.7305 86.2422H51.125V74.4203C51.125 64.3809 51.0945 62.568 50.9117 62.3852C50.7137 62.2023 47.6668 62.1719 29.5836 62.1719C15.6137 62.1719 8.46875 62.2176 8.46875 62.3242ZM12.2773 67.8086C12.2773 67.8848 12.4602 67.9609 12.6734 67.9609C12.9324 67.9609 13.1 68.0523 13.1457 68.2656C13.1914 68.4332 13.2828 68.5703 13.359 68.5703C13.4352 68.5703 13.4961 68.7379 13.4961 68.9512C13.4961 69.1645 13.4352 69.332 13.3438 69.332C13.2676 69.332 13.1914 69.4387 13.1914 69.5605C13.1914 69.6824 13.0848 69.7891 12.9629 69.7891C12.841 69.7891 12.7344 69.85 12.7344 69.9414C12.7344 70.0328 11.1805 70.0938 8.39258 70.0938C4.24883 70.0938 4.03555 70.0785 3.74609 69.7891C3.57852 69.6215 3.44141 69.2863 3.44141 69.0273C3.44141 68.5398 3.8375 67.9609 4.15742 67.9609C4.26406 67.9609 4.35547 67.8848 4.35547 67.8086C4.35547 67.7172 5.77227 67.6562 8.31641 67.6562C10.8605 67.6562 12.2773 67.7172 12.2773 67.8086ZM12.7344 73.293C12.7344 73.3691 12.841 73.4453 12.9629 73.4453C13.0848 73.4453 13.1914 73.552 13.1914 73.6738C13.1914 73.7957 13.2676 73.9023 13.3438 73.9023C13.4352 73.9023 13.4961 74.1004 13.4961 74.3594C13.4961 74.6031 13.4352 74.8164 13.3438 74.8164C13.2676 74.8164 13.1914 74.923 13.1914 75.0449C13.1914 75.1668 13.0543 75.2734 12.8867 75.2734C12.7191 75.2734 12.582 75.3344 12.582 75.4258C12.582 75.5172 11.0891 75.5781 8.39258 75.5781C6.04648 75.5781 4.20312 75.5172 4.20312 75.441C4.20312 75.3648 4.03555 75.2582 3.82227 75.2125C3.48711 75.1211 3.44141 75.0297 3.44141 74.4355C3.44141 73.1406 3.35 73.1711 8.36211 73.1559C11.1805 73.1406 12.7344 73.2016 12.7344 73.293ZM13.1305 79.0059C13.1762 79.2191 13.2828 79.3867 13.359 79.3867C13.6027 79.3867 13.5113 80.1332 13.2371 80.4531C12.9781 80.7426 12.7953 80.7578 8.46875 80.7578C4.14219 80.7578 3.95938 80.7426 3.70039 80.4531C3.36523 80.057 3.36523 79.3105 3.71563 78.9449C3.95938 78.6707 4.24883 78.6555 8.49922 78.6402L13.0391 78.625L13.1305 79.0059Z" fill="#C2BEBE"/>
<path d="M53.6844 62.5832C53.4254 62.6441 53.4102 63.3449 53.4102 74.4508V86.2422H53.791C54.0348 86.2422 54.1719 86.1508 54.1719 86.0137C54.1719 85.8766 54.309 85.7852 54.5375 85.7852C54.7355 85.7852 54.9336 85.6785 54.9945 85.5566C55.0402 85.4348 55.1469 85.3281 55.2383 85.3281C55.4668 85.3281 55.8477 84.9473 55.8477 84.734C55.8477 84.6426 55.9543 84.5664 56.0762 84.5664C56.198 84.5664 56.3047 84.4598 56.3047 84.3379C56.3047 84.216 56.4113 84.1094 56.5332 84.1094C56.6855 84.1094 56.7617 83.957 56.7617 83.6676C56.7617 83.4238 56.8379 83.1953 56.9445 83.1648C57.0512 83.1191 57.1578 82.6773 57.1883 82.0832C57.2188 81.5195 57.3102 81.0625 57.3863 81.0625C57.4625 81.0625 57.5234 78.1375 57.5234 74.3594C57.5234 70.5813 57.4625 67.6562 57.3863 67.6562C57.3102 67.6562 57.2188 67.1992 57.1883 66.6355C57.1578 66.0414 57.0512 65.5996 56.9445 65.5539C56.8379 65.5234 56.7617 65.2949 56.7617 65.0512C56.7617 64.7617 56.6855 64.6094 56.5332 64.6094C56.4113 64.6094 56.3047 64.5332 56.3047 64.4418C56.3047 64.3504 56.1066 64.0762 55.8629 63.8324C55.6191 63.5887 55.3449 63.3906 55.2535 63.3906C55.1621 63.3906 55.0859 63.284 55.0859 63.1621C55.0859 63.0098 54.9336 62.9336 54.6289 62.9336C54.3242 62.9336 54.1719 62.8574 54.1719 62.7051C54.1719 62.4766 54.1414 62.4613 53.6844 62.5832Z" fill="#C2BEBE"/>
<path d="M59.6562 74.3594V79.8438H62.7945H65.9328L66.4051 79.3562L66.8926 78.884L66.9383 75.0602C66.9992 70.7793 66.9078 69.332 66.5727 69.332C66.4508 69.332 66.3594 69.2254 66.3594 69.1035C66.3594 68.9055 65.8871 68.875 63.0078 68.875H59.6562V74.3594Z" fill="#C2BEBE"/>
<path d="M69.4062 74.3594V75.5781H75.5152H81.6242L82.066 75.1363C82.4926 74.7098 82.6906 73.9023 82.3555 73.9023C82.2793 73.9023 82.1727 73.7348 82.1117 73.5215L82.0203 73.1406H75.7133H69.4062V74.3594Z" fill="#C2BEBE"/>
<path d="M14.2578 88.7864C13.7246 88.9997 13.5723 89.3348 13.5875 90.2641C13.6028 90.7973 13.6789 91.2086 13.7856 91.2391C13.877 91.2696 13.9532 91.5895 13.9532 91.9551C13.9532 92.336 14.0446 92.7168 14.1817 92.854C14.3035 92.9758 14.4102 93.3262 14.4102 93.6309C14.4102 93.9356 14.5168 94.286 14.6387 94.4079C14.791 94.5602 14.8672 94.9411 14.8672 95.459C14.8672 95.977 14.9434 96.2969 15.0653 96.3426C15.2024 96.3883 15.2481 97.2872 15.2481 100.182C15.2481 103.076 15.2024 103.975 15.0653 104.036C14.9434 104.066 14.8672 104.371 14.8672 104.843C14.8672 105.377 14.8063 105.62 14.6387 105.681C14.4711 105.742 14.4102 106.001 14.4102 106.534C14.4102 107.007 14.3188 107.372 14.1817 107.509C14.0446 107.647 13.9532 108.027 13.9532 108.408C13.9532 108.774 13.877 109.094 13.7856 109.124C13.6789 109.155 13.6028 109.566 13.5875 110.099C13.5571 111.623 13.1 111.531 20.3364 111.531H26.5977V100.197C26.5977 90.0051 26.5672 88.8626 26.3539 88.7711C26.0492 88.6493 14.5625 88.6797 14.2578 88.7864Z" fill="#C2BEBE"/>
<path d="M28.8828 91.7417V94.8191L30.8937 94.7125C32.0059 94.6515 32.9504 94.5449 32.9961 94.4839C33.0418 94.4078 33.2246 94.3164 33.4227 94.2554C33.6055 94.1945 33.7578 94.0726 33.7578 93.9964C33.7578 93.9203 33.834 93.8593 33.9254 93.8593C34.1387 93.8593 35.1289 92.8386 35.1289 92.6253C35.1289 92.5492 35.1898 92.4882 35.266 92.4882C35.3422 92.4882 35.4641 92.3359 35.525 92.1378C35.5859 91.955 35.7078 91.757 35.7992 91.696C35.9059 91.6199 35.9668 91.041 35.9668 90.1726V88.7558L32.4324 88.7101L28.8828 88.6796V91.7417Z" fill="#C2BEBE"/>
<path d="M63.9219 109.475V121.738H80.2227H96.5234V109.475V97.2109H80.2227H63.9219V109.475Z" fill="#C2BEBE"/>
<path d="M10.2969 113.969C10.2969 114.045 10.0531 114.121 9.76367 114.121C9.39805 114.121 9.23047 114.197 9.23047 114.35C9.23047 114.471 9.1543 114.578 9.06289 114.578C8.77344 114.578 8.46875 115.005 8.46875 115.401C8.46875 115.614 8.40781 115.797 8.31641 115.797C8.24023 115.797 8.16406 115.964 8.16406 116.178C8.16406 116.391 8.24023 116.559 8.31641 116.559C8.40781 116.559 8.46875 116.696 8.46875 116.863C8.46875 117.031 8.57539 117.168 8.69727 117.168C8.81914 117.168 8.92578 117.229 8.92578 117.32C8.92578 117.427 14.2273 117.473 24.541 117.473H40.1562L40.2477 117.092C40.3695 116.589 40.1715 115.035 39.9887 115.035C39.9125 115.035 39.8516 114.929 39.8516 114.807C39.8516 114.685 39.7449 114.578 39.623 114.578C39.5012 114.578 39.3945 114.471 39.3945 114.35C39.3945 114.182 39.227 114.121 38.7852 114.121C38.45 114.121 38.1758 114.045 38.1758 113.969C38.1758 113.862 33.4227 113.816 24.2363 113.816C15.05 113.816 10.2969 113.862 10.2969 113.969Z" fill="#C2BEBE"/>
<path d="M9.01719 119.834C8.89531 119.956 8.72773 120.062 8.63633 120.062C8.54492 120.062 8.46875 120.169 8.46875 120.291C8.46875 120.413 8.40781 120.52 8.31641 120.52C8.225 120.52 8.16406 121.814 8.16406 124.1C8.16406 126.385 8.225 127.68 8.31641 127.68C8.40781 127.68 8.46875 127.878 8.46875 128.121C8.46875 128.365 8.57539 128.67 8.69727 128.807C8.81914 128.929 8.92578 129.096 8.92578 129.188C8.92578 129.279 9.12383 129.355 9.36758 129.355C9.61133 129.355 9.91602 129.462 10.0531 129.584C10.2512 129.782 12.0336 129.812 24.2211 129.812C36.4086 129.812 38.1758 129.782 38.3891 129.584C38.5109 129.462 38.7852 129.355 38.9984 129.355C39.2422 129.355 39.3945 129.264 39.3945 129.127C39.3945 129.005 39.5012 128.898 39.623 128.898C39.7449 128.898 39.8516 128.807 39.8516 128.685C39.8516 128.563 39.943 128.441 40.0496 128.411C40.1867 128.35 40.2477 127.39 40.2781 124.465C40.3086 122.332 40.2781 120.367 40.2324 120.093L40.141 119.605H24.6934C11.1652 119.605 9.23047 119.636 9.01719 119.834Z" fill="#C2BEBE"/>
</svg>
