<svg id="direct-1" width="108" height="129" viewBox="0 0 108 129" fill="none" xmlns="http://www.w3.org/2000/svg">
<path d="M53.0156 0.167969C53.0156 0.259375 52.3605 0.320312 51.3398 0.320312C50.3191 0.320312 49.6641 0.381248 49.6641 0.472656C49.6641 0.564062 49.2527 0.625 48.75 0.625C48.2473 0.625 47.8359 0.685936 47.8359 0.777344C47.8359 0.853516 47.5617 0.929688 47.2266 0.929688C46.8914 0.929688 46.6172 0.990625 46.6172 1.08203C46.6172 1.1582 46.4801 1.23438 46.3125 1.23438C46.0078 1.23438 46.0078 1.34101 46.0078 12.6602V24.0859H53.7773H61.5469V12.6602C61.5469 1.34101 61.5469 1.23438 61.2422 1.23438C61.0746 1.23438 60.9375 1.1582 60.9375 1.08203C60.9375 0.990625 60.6633 0.929688 60.3281 0.929688C59.993 0.929688 59.7188 0.853516 59.7188 0.777344C59.7188 0.685936 59.3836 0.625 58.957 0.625C58.5457 0.625 58.1953 0.548828 58.1953 0.472656C58.1953 0.381248 57.4793 0.320312 56.3672 0.320312C55.2551 0.320312 54.5391 0.259375 54.5391 0.167969C54.5391 0.076561 54.2039 0.015625 53.7773 0.015625C53.366 0.015625 53.0156 0.076561 53.0156 0.167969Z" fill="#C2BEBE"/>
<path d="M43.2656 2.30078C43.2656 2.37695 43.0676 2.45312 42.8086 2.45312C42.5648 2.45312 42.3516 2.51406 42.3516 2.60547C42.3516 2.68164 42.2145 2.75781 42.0469 2.75781C41.8793 2.75781 41.7422 2.81875 41.7422 2.91016C41.7422 2.98633 41.6051 3.0625 41.4375 3.0625C41.2699 3.0625 41.1328 3.12344 41.1328 3.21484C41.1328 3.29102 40.9957 3.36719 40.8281 3.36719C40.6605 3.36719 40.5234 3.42813 40.5234 3.51953C40.5234 3.5957 40.4016 3.67188 40.2492 3.67188C40.0969 3.67188 39.8836 3.80898 39.7617 3.97656C39.6398 4.14414 39.4266 4.28125 39.2742 4.28125C39.1219 4.28125 39 4.34219 39 4.43359C39 4.50977 38.8934 4.58594 38.7563 4.58594C38.6191 4.58594 38.3145 4.78398 38.0859 5.04297C37.8574 5.28672 37.5832 5.5 37.4766 5.5C37.3699 5.5 37.0957 5.69805 36.8672 5.95703C36.6387 6.20078 36.3645 6.41406 36.273 6.41406C36.0445 6.41406 31.6875 10.7711 31.6875 10.9996C31.6875 11.091 31.4895 11.3652 31.2305 11.5938C30.9867 11.8223 30.7734 12.1117 30.7734 12.2336C30.7734 12.3402 30.6363 12.5383 30.4688 12.6602C30.3012 12.782 30.1641 12.9801 30.1641 13.1172C30.1641 13.2543 30.027 13.4523 29.8594 13.5742C29.6918 13.6961 29.5547 13.9094 29.5547 14.0617C29.5547 14.2141 29.4938 14.3359 29.4023 14.3359C29.3262 14.3359 29.25 14.4578 29.25 14.6102C29.25 14.7625 29.1129 14.9758 28.9453 15.0977C28.7777 15.2195 28.6406 15.4328 28.6406 15.5852C28.6406 15.7375 28.5797 15.8594 28.4883 15.8594C28.4121 15.8594 28.3359 15.9965 28.3359 16.1641C28.3359 16.3316 28.275 16.4688 28.1836 16.4688C28.1074 16.4688 28.0312 16.6668 28.0312 16.9258C28.0312 17.1695 27.9703 17.3828 27.8789 17.3828C27.8027 17.3828 27.7266 17.5199 27.7266 17.6875C27.7266 17.8551 27.6656 17.9922 27.5742 17.9922C27.498 17.9922 27.4219 18.1293 27.4219 18.2969C27.4219 18.4645 27.3609 18.6016 27.2695 18.6016C27.1934 18.6016 27.1172 18.7996 27.1172 19.0586C27.1172 19.3023 27.0562 19.5156 26.9648 19.5156C26.8887 19.5156 26.8125 19.7137 26.8125 19.9727C26.8125 20.2164 26.7516 20.4297 26.6602 20.4297C26.584 20.4297 26.5078 20.7039 26.5078 21.0391C26.5078 21.3742 26.4469 21.6484 26.3555 21.6484C26.2793 21.6484 26.2031 21.9227 26.2031 22.2578C26.2031 22.593 26.1422 22.8672 26.0508 22.8672C25.9746 22.8672 25.8984 23.1414 25.8984 23.4766V24.0859H34.7344H43.5703V13.1172C43.5703 5.91133 43.5246 2.14844 43.418 2.14844C43.3418 2.14844 43.2656 2.20938 43.2656 2.30078Z" fill="#C2BEBE"/>
<path d="M63.9844 13.1172V24.0859H72.8203H81.6562V23.4766C81.6562 23.1414 81.5953 22.8672 81.5039 22.8672C81.4277 22.8672 81.3516 22.593 81.3516 22.2578C81.3516 21.9227 81.2906 21.6484 81.1992 21.6484C81.123 21.6484 81.0469 21.3742 81.0469 21.0391C81.0469 20.7039 80.9859 20.4297 80.8945 20.4297C80.8184 20.4297 80.7422 20.2164 80.7422 19.9727C80.7422 19.7137 80.6812 19.5156 80.5898 19.5156C80.5137 19.5156 80.4375 19.3023 80.4375 19.0586C80.4375 18.7996 80.3766 18.6016 80.2852 18.6016C80.209 18.6016 80.1328 18.4645 80.1328 18.2969C80.1328 18.1293 80.0719 17.9922 79.9805 17.9922C79.9043 17.9922 79.8281 17.7789 79.8281 17.5352C79.8281 17.2762 79.7672 17.0781 79.6758 17.0781C79.5996 17.0781 79.5234 16.941 79.5234 16.7734C79.5234 16.6059 79.4625 16.4688 79.3711 16.4688C79.2949 16.4688 79.2188 16.3316 79.2188 16.1641C79.2188 15.9965 79.1578 15.8594 79.0664 15.8594C78.9902 15.8594 78.9141 15.7223 78.9141 15.5547C78.9141 15.3871 78.8531 15.25 78.7617 15.25C78.6855 15.25 78.6094 15.1281 78.6094 14.9758C78.6094 14.8234 78.4723 14.6102 78.3047 14.4883C78.1371 14.3664 78 14.1531 78 14.0008C78 13.8484 77.9391 13.7266 77.8477 13.7266C77.7715 13.7266 77.6953 13.6047 77.6953 13.4523C77.6953 13.3 77.5582 13.0867 77.3906 12.9648C77.223 12.843 77.0859 12.6449 77.0859 12.5383C77.0859 12.4164 76.8879 12.127 76.6289 11.8984C76.3852 11.6699 76.1719 11.3957 76.1719 11.2891C76.1719 11.1977 75.7605 10.7102 75.2578 10.2227C74.7551 9.73516 74.3438 9.24766 74.3438 9.15625C74.3438 8.94297 73.0336 7.63281 72.8203 7.63281C72.7289 7.63281 72.3176 7.28242 71.9062 6.87109C71.4949 6.44453 71.0836 6.10938 70.9922 6.10938C70.8855 6.10938 70.6113 5.89609 70.3828 5.65234C70.1543 5.39336 69.8648 5.19531 69.743 5.19531C69.6363 5.19531 69.4383 5.0582 69.3164 4.89062C69.1945 4.72305 68.9965 4.58594 68.8594 4.58594C68.7223 4.58594 68.5242 4.44883 68.4023 4.28125C68.2805 4.11367 68.0672 3.97656 67.9148 3.97656C67.7625 3.97656 67.6406 3.90039 67.6406 3.82422C67.6406 3.73281 67.5035 3.67188 67.3359 3.67188C67.1684 3.67188 67.0312 3.5957 67.0312 3.51953C67.0312 3.42813 66.8941 3.36719 66.7266 3.36719C66.559 3.36719 66.4219 3.29102 66.4219 3.21484C66.4219 3.12344 66.2848 3.0625 66.1172 3.0625C65.9496 3.0625 65.8125 2.98633 65.8125 2.91016C65.8125 2.81875 65.6754 2.75781 65.5078 2.75781C65.3402 2.75781 65.2031 2.68164 65.2031 2.60547C65.2031 2.51406 65.066 2.45312 64.8984 2.45312C64.7309 2.45312 64.5938 2.37695 64.5938 2.30078C64.5938 2.20938 64.4566 2.14844 64.2891 2.14844C63.9844 2.14844 63.9844 2.25508 63.9844 13.1172Z" fill="#C2BEBE"/>
<path d="M26.2031 26.6758C26.2031 26.752 26.0051 26.8281 25.7461 26.8281C25.5023 26.8281 25.2891 26.8891 25.2891 26.9805C25.2891 27.0566 25.1824 27.1328 25.0453 27.1328C24.9082 27.1328 24.6035 27.3309 24.375 27.5898C24.1465 27.8336 23.8418 28.0469 23.7047 28.0469C23.5676 28.0469 23.4609 28.1535 23.4609 28.2906C23.4609 28.4277 23.2629 28.7324 23.0039 28.9609C22.7602 29.1895 22.5469 29.4941 22.5469 29.6312C22.5469 29.7684 22.4859 29.875 22.3945 29.875C22.3184 29.875 22.2422 30.073 22.2422 30.332C22.2422 30.5758 22.1813 30.7891 22.0898 30.7891C21.9984 30.7891 21.9375 31.4441 21.9375 32.4648C21.9375 33.4855 21.9984 34.1406 22.0898 34.1406C22.1813 34.1406 22.2422 34.3387 22.2422 34.5672C22.2422 34.8109 22.3641 35.0852 22.5469 35.207C22.7145 35.3289 22.8516 35.5117 22.8516 35.6184C22.8516 35.9078 24.4664 37.4922 24.7559 37.4922C24.8777 37.4922 24.9844 37.5531 24.9844 37.6445C24.9844 37.7207 25.1215 37.7969 25.2891 37.7969C25.4566 37.7969 25.5938 37.8578 25.5938 37.9492C25.5938 38.0254 25.807 38.1016 26.0508 38.1016C26.3098 38.1016 26.5078 38.1625 26.5078 38.2539C26.5078 38.3453 27.1172 38.4062 28.0313 38.4062H29.5547V45.8711C29.5547 50.7461 29.6004 53.3359 29.707 53.3359C29.7984 53.3359 29.8594 53.793 29.8594 54.4023C29.8594 55.0117 29.9203 55.4688 30.0117 55.4688C30.1031 55.4688 30.1641 55.8039 30.1641 56.2305C30.1641 56.6418 30.2402 56.9922 30.3164 56.9922C30.4078 56.9922 30.4688 57.2664 30.4688 57.6016C30.4688 57.9367 30.5449 58.2109 30.6211 58.2109C30.7125 58.2109 30.7734 58.409 30.7734 58.668C30.7734 58.9117 30.8496 59.125 30.9258 59.125C31.0172 59.125 31.0781 59.323 31.0781 59.582C31.0781 59.8258 31.1543 60.0391 31.2305 60.0391C31.3219 60.0391 31.3828 60.1762 31.3828 60.3438C31.3828 60.5113 31.459 60.6484 31.5352 60.6484C31.6266 60.6484 31.6875 60.7855 31.6875 60.9531C31.6875 61.1207 31.7637 61.2578 31.8398 61.2578C31.9313 61.2578 31.9922 61.3949 31.9922 61.5625C31.9922 61.7301 32.0684 61.8672 32.1445 61.8672C32.2359 61.8672 32.2969 62.0043 32.2969 62.1719C32.2969 62.3395 32.373 62.4766 32.4492 62.4766C32.5406 62.4766 32.6016 62.6137 32.6016 62.7812C32.6016 62.9488 32.6777 63.0859 32.7539 63.0859C32.8453 63.0859 32.9063 63.223 32.9063 63.3906C32.9063 63.5582 32.9824 63.6953 33.0586 63.6953C33.15 63.6953 33.2109 63.8172 33.2109 63.9695C33.2109 64.1219 33.348 64.3352 33.5156 64.457C33.6832 64.5789 33.8203 64.777 33.8203 64.8836C33.8203 65.0055 34.0184 65.2949 34.2773 65.5234C34.5363 65.752 34.7344 66.0262 34.7344 66.1176C34.7344 66.3461 38.482 70.0938 38.7105 70.0938C38.802 70.0938 39.0762 70.2918 39.3047 70.5508C39.5332 70.7945 39.8227 71.0078 39.9445 71.0078C40.0512 71.0078 40.2492 71.1449 40.3711 71.3125C40.493 71.4801 40.691 71.6172 40.8281 71.6172C40.9652 71.6172 41.1633 71.7543 41.2852 71.9219C41.407 72.0895 41.6203 72.2266 41.7727 72.2266C41.925 72.2266 42.0469 72.2875 42.0469 72.3789C42.0469 72.4551 42.184 72.5312 42.3516 72.5312C42.5191 72.5312 42.6563 72.5922 42.6563 72.6836C42.6563 72.7598 42.7934 72.8359 42.9609 72.8359C43.1285 72.8359 43.2656 72.8969 43.2656 72.9883C43.2656 73.0645 43.4027 73.1406 43.5703 73.1406C43.7379 73.1406 43.875 73.2016 43.875 73.293C43.875 73.3691 44.0121 73.4453 44.1797 73.4453C44.3473 73.4453 44.4844 73.5062 44.4844 73.5977C44.4844 73.6738 44.6977 73.75 44.9414 73.75C45.2004 73.75 45.3984 73.8109 45.3984 73.9023C45.3984 73.9785 45.6117 74.0547 45.8555 74.0547C46.1145 74.0547 46.3125 74.1156 46.3125 74.207C46.3125 74.2832 46.5258 74.3594 46.7695 74.3594C47.0285 74.3594 47.2266 74.4203 47.2266 74.5117C47.2266 74.5879 47.5008 74.6641 47.8359 74.6641C48.1711 74.6641 48.4453 74.725 48.4453 74.8164C48.4453 74.8926 48.7957 74.9688 49.207 74.9688C49.6336 74.9688 49.9688 75.0297 49.9688 75.1211C49.9688 75.2125 51.3398 75.2734 53.7773 75.2734C56.2148 75.2734 57.5859 75.2125 57.5859 75.1211C57.5859 75.0297 57.9363 74.9688 58.3477 74.9688C58.7742 74.9688 59.1094 74.8926 59.1094 74.8164C59.1094 74.725 59.3836 74.6641 59.7188 74.6641C60.0539 74.6641 60.3281 74.5879 60.3281 74.5117C60.3281 74.4203 60.5414 74.3594 60.7852 74.3594C61.0441 74.3594 61.2422 74.2832 61.2422 74.207C61.2422 74.1156 61.4555 74.0547 61.6992 74.0547C61.9582 74.0547 62.1563 73.9785 62.1563 73.9023C62.1563 73.8109 62.3695 73.75 62.6133 73.75C62.8723 73.75 63.0703 73.6738 63.0703 73.5977C63.0703 73.5062 63.2074 73.4453 63.375 73.4453C63.5426 73.4453 63.6797 73.3691 63.6797 73.293C63.6797 73.2016 63.8168 73.1406 63.9844 73.1406C64.152 73.1406 64.2891 73.0645 64.2891 72.9883C64.2891 72.8969 64.4262 72.8359 64.5938 72.8359C64.7613 72.8359 64.8984 72.7598 64.8984 72.6836C64.8984 72.5922 65.0356 72.5312 65.2031 72.5312C65.3707 72.5312 65.5078 72.4551 65.5078 72.3789C65.5078 72.2875 65.6449 72.2266 65.8125 72.2266C65.9801 72.2266 66.1172 72.1504 66.1172 72.0742C66.1172 71.9828 66.2238 71.9219 66.3609 71.9219C66.4981 71.9219 66.8027 71.7086 67.0313 71.4648C67.2598 71.2059 67.5492 71.0078 67.6711 71.0078C67.7777 71.0078 67.9758 70.8707 68.0977 70.7031C68.2195 70.5355 68.4024 70.3984 68.509 70.3984C68.7527 70.3984 72.8203 66.3613 72.8203 66.1176C72.8203 66.0262 73.0336 65.752 73.2774 65.5234C73.5363 65.2949 73.7344 65.0055 73.7344 64.8836C73.7344 64.777 73.8715 64.5789 74.0391 64.457C74.2066 64.3352 74.3438 64.1219 74.3438 63.9695C74.3438 63.8172 74.4199 63.6953 74.4961 63.6953C74.5875 63.6953 74.6484 63.5734 74.6484 63.4211C74.6484 63.2687 74.7856 63.0555 74.9531 62.9336C75.1207 62.8117 75.2578 62.5984 75.2578 62.4461C75.2578 62.2937 75.334 62.1719 75.4102 62.1719C75.5016 62.1719 75.5625 62.0348 75.5625 61.8672C75.5625 61.6996 75.6387 61.5625 75.7149 61.5625C75.8063 61.5625 75.8672 61.3492 75.8672 61.1055C75.8672 60.8465 75.9434 60.6484 76.0195 60.6484C76.1109 60.6484 76.1719 60.5113 76.1719 60.3438C76.1719 60.1762 76.2481 60.0391 76.3242 60.0391C76.4156 60.0391 76.4766 59.8258 76.4766 59.582C76.4766 59.323 76.5527 59.125 76.6289 59.125C76.7203 59.125 76.7813 58.9117 76.7813 58.668C76.7813 58.409 76.8574 58.2109 76.9336 58.2109C77.025 58.2109 77.0859 57.9977 77.0859 57.7539C77.0859 57.4949 77.1621 57.2969 77.2383 57.2969C77.3297 57.2969 77.3906 56.9465 77.3906 56.5352C77.3906 56.1086 77.4668 55.7734 77.543 55.7734C77.6344 55.7734 77.6953 55.3164 77.6953 54.707C77.6953 54.0977 77.7563 53.6406 77.8477 53.6406C77.9543 53.6406 78 51.0051 78 46.0234V38.4062H79.5234C80.4375 38.4062 81.0469 38.3453 81.0469 38.2539C81.0469 38.1625 81.2602 38.1016 81.5039 38.1016C81.7629 38.1016 81.9609 38.0254 81.9609 37.9492C81.9609 37.8578 82.0981 37.7969 82.2656 37.7969C82.4332 37.7969 82.5703 37.7207 82.5703 37.6445C82.5703 37.5531 82.677 37.4922 82.7988 37.4922C83.1035 37.4922 85.0078 35.5879 85.0078 35.2832C85.0078 35.1613 85.084 35.0547 85.1602 35.0547C85.2516 35.0547 85.3125 34.8414 85.3125 34.5977C85.3125 34.3387 85.3887 34.1406 85.4649 34.1406C85.5563 34.1406 85.6172 33.4246 85.6172 32.3125C85.6172 31.2004 85.5563 30.4844 85.4649 30.4844C85.3887 30.4844 85.3125 30.3473 85.3125 30.1797C85.3125 30.0121 85.2516 29.875 85.1602 29.875C85.084 29.875 85.0078 29.7531 85.0078 29.6008C85.0078 29.4484 84.8707 29.2352 84.7031 29.1133C84.5356 28.9914 84.3984 28.8086 84.3984 28.6867C84.3984 28.4277 83.7129 27.7422 83.4539 27.7422C83.332 27.7422 83.1492 27.6051 83.0274 27.4375C82.9055 27.2699 82.6922 27.1328 82.5399 27.1328C82.3875 27.1328 82.2656 27.0566 82.2656 26.9805C82.2656 26.8891 82.0676 26.8281 81.8086 26.8281C81.5649 26.8281 81.3516 26.752 81.3516 26.6758C81.3516 26.5691 72.0586 26.5234 53.7773 26.5234C35.4961 26.5234 26.2031 26.5691 26.2031 26.6758ZM73.7344 46.3281C73.7344 51.5078 73.6887 54.25 73.582 54.25C73.5059 54.25 73.4297 54.5852 73.4297 55.0117C73.4297 55.423 73.3688 55.7734 73.2774 55.7734C73.2012 55.7734 73.125 56.0477 73.125 56.3828C73.125 56.718 73.0641 56.9922 72.9727 56.9922C72.8965 56.9922 72.8203 57.1902 72.8203 57.4492C72.8203 57.693 72.7594 57.9062 72.668 57.9062C72.5918 57.9062 72.5156 58.1043 72.5156 58.3633C72.5156 58.607 72.4547 58.8203 72.3633 58.8203C72.2871 58.8203 72.2109 58.9574 72.2109 59.125C72.2109 59.2926 72.15 59.4297 72.0586 59.4297C71.9824 59.4297 71.9063 59.5668 71.9063 59.7344C71.9063 59.902 71.8453 60.0391 71.7539 60.0391C71.6777 60.0391 71.6016 60.1762 71.6016 60.3438C71.6016 60.5113 71.5406 60.6484 71.4492 60.6484C71.3731 60.6484 71.2969 60.7855 71.2969 60.9531C71.2969 61.1207 71.2359 61.2578 71.1445 61.2578C71.0684 61.2578 70.9922 61.3797 70.9922 61.532C70.9922 61.6844 70.8551 61.8977 70.6875 62.0195C70.5199 62.1414 70.3828 62.3395 70.3828 62.4461C70.3828 62.568 70.1848 62.8574 69.9258 63.0859C69.682 63.3145 69.4688 63.5887 69.4688 63.6801C69.4688 63.9238 66.3152 67.0469 66.0715 67.0469C65.9649 67.0469 65.782 67.184 65.6602 67.3516C65.5383 67.5191 65.3402 67.6562 65.2031 67.6562C65.066 67.6562 64.868 67.7934 64.7461 67.9609C64.6242 68.1285 64.4262 68.2656 64.2891 68.2656C64.152 68.2656 63.9539 68.4027 63.832 68.5703C63.7102 68.7379 63.4969 68.875 63.3445 68.875C63.1922 68.875 63.0703 68.9359 63.0703 69.0273C63.0703 69.1035 62.9332 69.1797 62.7656 69.1797C62.5981 69.1797 62.4609 69.2406 62.4609 69.332C62.4609 69.4082 62.3238 69.4844 62.1563 69.4844C61.9887 69.4844 61.8516 69.5453 61.8516 69.6367C61.8516 69.7129 61.6535 69.7891 61.3945 69.7891C61.1508 69.7891 60.9375 69.85 60.9375 69.9414C60.9375 70.0176 60.7395 70.0938 60.4805 70.0938C60.2367 70.0938 60.0234 70.1547 60.0234 70.2461C60.0234 70.3223 59.8254 70.3984 59.5664 70.3984C59.3227 70.3984 59.1094 70.4594 59.1094 70.5508C59.1094 70.627 58.8352 70.7031 58.5 70.7031C58.1648 70.7031 57.8906 70.7641 57.8906 70.8555C57.8906 70.9469 57.4793 71.0078 56.9766 71.0078C56.4738 71.0078 56.0625 71.0687 56.0625 71.1602C56.0625 71.2516 55.1941 71.3125 53.7773 71.3125C52.3606 71.3125 51.4922 71.2516 51.4922 71.1602C51.4922 71.0687 51.0809 71.0078 50.5781 71.0078C50.0754 71.0078 49.6641 70.9469 49.6641 70.8555C49.6641 70.7641 49.3898 70.7031 49.0547 70.7031C48.7195 70.7031 48.4453 70.627 48.4453 70.5508C48.4453 70.4594 48.2473 70.3984 47.9883 70.3984C47.7445 70.3984 47.5313 70.3223 47.5313 70.2461C47.5313 70.1547 47.3332 70.0938 47.0742 70.0938C46.8305 70.0938 46.6172 70.0176 46.6172 69.9414C46.6172 69.85 46.4191 69.7891 46.1602 69.7891C45.9164 69.7891 45.7031 69.7129 45.7031 69.6367C45.7031 69.5453 45.566 69.4844 45.3984 69.4844C45.2309 69.4844 45.0938 69.4082 45.0938 69.332C45.0938 69.2406 44.9566 69.1797 44.7891 69.1797C44.6215 69.1797 44.4844 69.1035 44.4844 69.0273C44.4844 68.9359 44.3625 68.875 44.2102 68.875C44.0578 68.875 43.8445 68.7379 43.7227 68.5703C43.6008 68.4027 43.4027 68.2656 43.2656 68.2656C43.1285 68.2656 42.9305 68.1285 42.8086 67.9609C42.6867 67.7934 42.4887 67.6562 42.382 67.6562C42.2602 67.6562 41.9707 67.443 41.7422 67.1992C41.5137 66.9402 41.2395 66.7422 41.1481 66.7422C40.9195 66.7422 38.0859 63.9086 38.0859 63.6801C38.0859 63.5887 37.8879 63.3145 37.6289 63.0859C37.3699 62.8574 37.1719 62.5527 37.1719 62.4156C37.1719 62.2785 37.1109 62.1719 37.0195 62.1719C36.9434 62.1719 36.8672 62.05 36.8672 61.8977C36.8672 61.7453 36.7301 61.532 36.5625 61.4102C36.3949 61.2883 36.2578 61.075 36.2578 60.9227C36.2578 60.7703 36.1969 60.6484 36.1055 60.6484C36.0293 60.6484 35.9531 60.5113 35.9531 60.3438C35.9531 60.1762 35.8922 60.0391 35.8008 60.0391C35.7246 60.0391 35.6484 59.902 35.6484 59.7344C35.6484 59.5668 35.5875 59.4297 35.4961 59.4297C35.4199 59.4297 35.3438 59.2926 35.3438 59.125C35.3438 58.9574 35.2828 58.8203 35.1914 58.8203C35.1152 58.8203 35.0391 58.607 35.0391 58.3633C35.0391 58.1043 34.9781 57.9062 34.8867 57.9062C34.8105 57.9062 34.7344 57.693 34.7344 57.4492C34.7344 57.1902 34.6734 56.9922 34.582 56.9922C34.5059 56.9922 34.4297 56.718 34.4297 56.3828C34.4297 56.0477 34.3688 55.7734 34.2773 55.7734C34.2012 55.7734 34.125 55.423 34.125 55.0117C34.125 54.5852 34.0641 54.25 33.9727 54.25C33.866 54.25 33.8203 51.5078 33.8203 46.3281V38.4062H53.7773H73.7344V46.3281Z" fill="#C2BEBE"/>
<path d="M28.8387 76.1113C28.6863 76.2789 28.6406 79.8742 28.6406 92.9453C28.6406 107.159 28.6711 109.612 28.8539 109.795C29.0215 109.947 29.509 110.008 30.8344 110.008H32.6016V92.9453V75.8828H30.8191C29.4633 75.898 28.9758 75.9437 28.8387 76.1113Z" fill="#C2BEBE"/>
<path d="M35.0391 92.9453V110.008H53.7773H72.5156V92.9453V75.8828H69.1641C67.0312 75.8828 65.8125 75.9437 65.8125 76.0352C65.8125 76.1113 65.7059 76.1875 65.584 76.1875C65.1879 76.1875 64.2891 77.193 64.2891 77.6348C64.2891 77.848 64.2281 78.0156 64.1367 78.0156C64.0605 78.0156 63.9844 78.1527 63.9844 78.3203C63.9844 78.4879 63.9234 78.625 63.832 78.625C63.7559 78.625 63.6797 78.7621 63.6797 78.9297C63.6797 79.0973 63.6188 79.2344 63.5273 79.2344C63.4512 79.2344 63.375 79.3715 63.375 79.5391C63.375 79.7066 63.3141 79.8437 63.2227 79.8437C63.1465 79.8437 63.0703 79.9809 63.0703 80.1484C63.0703 80.316 63.0094 80.4531 62.918 80.4531C62.8418 80.4531 62.7656 80.5902 62.7656 80.7578C62.7656 80.9254 62.7047 81.0625 62.6133 81.0625C62.5371 81.0625 62.4609 81.1996 62.4609 81.3672C62.4609 81.5348 62.4 81.6719 62.3086 81.6719C62.2324 81.6719 62.1562 81.809 62.1562 81.9766C62.1562 82.1441 62.0953 82.2812 62.0039 82.2812C61.9277 82.2812 61.8516 82.4184 61.8516 82.5859C61.8516 82.7535 61.7906 82.8906 61.6992 82.8906C61.623 82.8906 61.5469 83.0277 61.5469 83.1953C61.5469 83.3629 61.4859 83.5 61.3945 83.5C61.3184 83.5 61.2422 83.6371 61.2422 83.8047C61.2422 83.9723 61.1813 84.1094 61.0898 84.1094C61.0137 84.1094 60.9375 84.2465 60.9375 84.4141C60.9375 84.5816 60.8766 84.7187 60.7852 84.7187C60.709 84.7187 60.6328 84.8559 60.6328 85.0234C60.6328 85.191 60.5719 85.3281 60.4805 85.3281C60.4043 85.3281 60.3281 85.4652 60.3281 85.6328C60.3281 85.8004 60.2672 85.9375 60.1758 85.9375C60.0996 85.9375 60.0234 86.0746 60.0234 86.2422C60.0234 86.4098 59.9625 86.5469 59.8711 86.5469C59.7949 86.5469 59.7188 86.684 59.7188 86.8516C59.7188 87.0191 59.6578 87.1562 59.5664 87.1562C59.4902 87.1562 59.4141 87.2934 59.4141 87.4609C59.4141 87.6285 59.3531 87.7656 59.2617 87.7656C59.1855 87.7656 59.1094 87.9027 59.1094 88.0703C59.1094 88.2379 59.0484 88.375 58.957 88.375C58.8809 88.375 58.8047 88.5121 58.8047 88.6797C58.8047 88.8473 58.7438 88.9844 58.6523 88.9844C58.5762 88.9844 58.5 89.1215 58.5 89.2891C58.5 89.4566 58.4391 89.5937 58.3477 89.5937C58.2715 89.5937 58.1953 89.7309 58.1953 89.8984C58.1953 90.066 58.1344 90.2031 58.043 90.2031C57.9668 90.2031 57.8906 90.3402 57.8906 90.5078C57.8906 90.6754 57.8297 90.8125 57.7383 90.8125C57.6621 90.8125 57.5859 90.9496 57.5859 91.1172C57.5859 91.2848 57.525 91.4219 57.4336 91.4219C57.3574 91.4219 57.2812 91.559 57.2812 91.7266C57.2812 91.8941 57.2203 92.0312 57.1289 92.0312C57.0527 92.0312 56.9766 92.1684 56.9766 92.3359C56.9766 92.5035 56.9156 92.6406 56.8242 92.6406C56.748 92.6406 56.6719 92.8387 56.6719 93.0977C56.6719 93.3414 56.6109 93.5547 56.5195 93.5547C56.4434 93.5547 56.3672 93.6918 56.3672 93.8594C56.3672 94.027 56.3062 94.1641 56.2148 94.1641C56.1387 94.1641 56.0625 94.3012 56.0625 94.4687C56.0625 94.6363 56.0016 94.7734 55.9102 94.7734C55.834 94.7734 55.7578 94.9105 55.7578 95.0781C55.7578 95.2457 55.6969 95.3828 55.6055 95.3828C55.5293 95.3828 55.4531 95.5199 55.4531 95.6875C55.4531 95.8551 55.3922 95.9922 55.3008 95.9922C55.2246 95.9922 55.1484 96.1293 55.1484 96.2969C55.1484 96.4645 55.0875 96.6016 54.9961 96.6016C54.9199 96.6016 54.8438 96.7387 54.8438 96.9062C54.8438 97.0738 54.7828 97.2109 54.6914 97.2109C54.6152 97.2109 54.5391 97.348 54.5391 97.5156C54.5391 97.6832 54.4781 97.8203 54.3867 97.8203C54.3105 97.8203 54.2344 97.927 54.2344 98.0641C54.2344 98.1859 54.1277 98.3992 54.0059 98.5211C53.8078 98.7344 53.7469 98.7344 53.5488 98.5211C53.427 98.3992 53.3203 98.1859 53.3203 98.0641C53.3203 97.927 53.2594 97.8203 53.168 97.8203C53.0918 97.8203 53.0156 97.607 53.0156 97.3633C53.0156 97.1043 52.9547 96.9062 52.8633 96.9062C52.7871 96.9062 52.7109 96.7691 52.7109 96.6016C52.7109 96.434 52.65 96.2969 52.5586 96.2969C52.4824 96.2969 52.4062 96.1598 52.4062 95.9922C52.4062 95.8246 52.3453 95.6875 52.2539 95.6875C52.1777 95.6875 52.1016 95.5504 52.1016 95.3828C52.1016 95.2152 52.0406 95.0781 51.9492 95.0781C51.873 95.0781 51.7969 94.941 51.7969 94.7734C51.7969 94.6059 51.7359 94.4687 51.6445 94.4687C51.5684 94.4687 51.4922 94.3316 51.4922 94.1641C51.4922 93.9965 51.4312 93.8594 51.3398 93.8594C51.2637 93.8594 51.1875 93.7223 51.1875 93.5547C51.1875 93.3871 51.1266 93.25 51.0352 93.25C50.959 93.25 50.8828 93.1129 50.8828 92.9453C50.8828 92.7777 50.8219 92.6406 50.7305 92.6406C50.6543 92.6406 50.5781 92.5035 50.5781 92.3359C50.5781 92.1684 50.5172 92.0312 50.4258 92.0312C50.3496 92.0312 50.2734 91.8941 50.2734 91.7266C50.2734 91.559 50.2125 91.4219 50.1211 91.4219C50.0449 91.4219 49.9688 91.2848 49.9688 91.1172C49.9688 90.9496 49.9078 90.8125 49.8164 90.8125C49.7402 90.8125 49.6641 90.6754 49.6641 90.5078C49.6641 90.3402 49.6031 90.2031 49.5117 90.2031C49.4355 90.2031 49.3594 90.066 49.3594 89.8984C49.3594 89.7309 49.2984 89.5937 49.207 89.5937C49.1309 89.5937 49.0547 89.4566 49.0547 89.2891C49.0547 89.1215 48.9938 88.9844 48.9023 88.9844C48.8262 88.9844 48.75 88.8473 48.75 88.6797C48.75 88.5121 48.6891 88.375 48.5977 88.375C48.5215 88.375 48.4453 88.2379 48.4453 88.0703C48.4453 87.9027 48.3844 87.7656 48.293 87.7656C48.2168 87.7656 48.1406 87.6285 48.1406 87.4609C48.1406 87.2934 48.0797 87.1562 47.9883 87.1562C47.9121 87.1562 47.8359 87.0191 47.8359 86.8516C47.8359 86.684 47.775 86.5469 47.6836 86.5469C47.6074 86.5469 47.5312 86.4098 47.5312 86.2422C47.5312 86.0746 47.4703 85.9375 47.3789 85.9375C47.3027 85.9375 47.2266 85.8004 47.2266 85.6328C47.2266 85.4652 47.1656 85.3281 47.0742 85.3281C46.998 85.3281 46.9219 85.191 46.9219 85.0234C46.9219 84.8559 46.8609 84.7187 46.7695 84.7187C46.6934 84.7187 46.6172 84.5816 46.6172 84.4141C46.6172 84.2465 46.5563 84.1094 46.4648 84.1094C46.3887 84.1094 46.3125 83.9723 46.3125 83.8047C46.3125 83.6371 46.2516 83.5 46.1602 83.5C46.084 83.5 46.0078 83.3629 46.0078 83.1953C46.0078 83.0277 45.9469 82.8906 45.8555 82.8906C45.7793 82.8906 45.7031 82.7535 45.7031 82.5859C45.7031 82.4184 45.6422 82.2812 45.5508 82.2812C45.4746 82.2812 45.3984 82.1441 45.3984 81.9766C45.3984 81.809 45.3375 81.6719 45.2461 81.6719C45.1699 81.6719 45.0938 81.5348 45.0938 81.3672C45.0938 81.1996 45.0328 81.0625 44.9414 81.0625C44.8652 81.0625 44.7891 80.9254 44.7891 80.7578C44.7891 80.5902 44.7281 80.4531 44.6367 80.4531C44.5605 80.4531 44.4844 80.316 44.4844 80.1484C44.4844 79.9809 44.4234 79.8437 44.332 79.8437C44.2559 79.8437 44.1797 79.7066 44.1797 79.5391C44.1797 79.3715 44.1188 79.2344 44.0273 79.2344C43.9512 79.2344 43.875 79.0211 43.875 78.7773C43.875 78.5184 43.8141 78.3203 43.7227 78.3203C43.6465 78.3203 43.5703 78.1832 43.5703 78.0156C43.5703 77.848 43.5094 77.7109 43.418 77.7109C43.3418 77.7109 43.2656 77.6043 43.2656 77.4824C43.2656 77.1777 42.2754 76.1875 41.9707 76.1875C41.8488 76.1875 41.7422 76.1113 41.7422 76.0352C41.7422 75.9437 40.5234 75.8828 38.3906 75.8828H35.0391V92.9453Z" fill="#C2BEBE"/>
<path d="M74.9531 92.9453V110.008H76.7203C78.0457 110.008 78.5332 109.947 78.7008 109.795C79.0207 109.459 79.0207 76.4312 78.7008 76.0961C78.5332 75.9437 78.0457 75.8828 76.7203 75.8828H74.9531V92.9453Z" fill="#C2BEBE"/>
<path d="M25.8984 76.3398C25.8984 76.4312 25.4871 76.4922 24.9844 76.4922C24.4816 76.4922 24.0703 76.5531 24.0703 76.6445C24.0703 76.7207 23.7961 76.7969 23.4609 76.7969C23.1258 76.7969 22.8516 76.8578 22.8516 76.9492C22.8516 77.0254 22.5773 77.1016 22.2422 77.1016C21.907 77.1016 21.6328 77.1625 21.6328 77.2539C21.6328 77.3301 21.3586 77.4062 21.0234 77.4062C20.6883 77.4062 20.4141 77.4672 20.4141 77.5586C20.4141 77.6348 20.216 77.7109 19.957 77.7109C19.7133 77.7109 19.5 77.7719 19.5 77.8633C19.5 77.9395 19.302 78.0156 19.043 78.0156C18.7992 78.0156 18.5859 78.0766 18.5859 78.168C18.5859 78.2441 18.4488 78.3203 18.2812 78.3203C18.1137 78.3203 17.9766 78.3812 17.9766 78.4727C17.9766 78.5488 17.7785 78.625 17.5195 78.625C17.2758 78.625 17.0625 78.6859 17.0625 78.7773C17.0625 78.8535 16.9254 78.9297 16.7578 78.9297C16.5902 78.9297 16.4531 78.9906 16.4531 79.082C16.4531 79.1582 16.316 79.2344 16.1484 79.2344C15.9809 79.2344 15.8438 79.2953 15.8438 79.3867C15.8438 79.4629 15.7066 79.5391 15.5391 79.5391C15.3715 79.5391 15.2344 79.6 15.2344 79.6914C15.2344 79.7676 15.0973 79.8438 14.9297 79.8438C14.7621 79.8438 14.625 79.9047 14.625 79.9961C14.625 80.0723 14.4879 80.1484 14.3203 80.1484C14.1527 80.1484 14.0156 80.2094 14.0156 80.3008C14.0156 80.377 13.8938 80.4531 13.7414 80.4531C13.5891 80.4531 13.3758 80.5902 13.2539 80.7578C13.132 80.9254 12.9188 81.0625 12.7664 81.0625C12.6141 81.0625 12.4922 81.1234 12.4922 81.2148C12.4922 81.291 12.3703 81.3672 12.218 81.3672C12.0656 81.3672 11.8523 81.5043 11.7305 81.6719C11.6086 81.8395 11.4105 81.9766 11.3039 81.9766C11.182 81.9766 10.8926 82.1746 10.6641 82.4336C10.4355 82.6773 10.1613 82.8906 10.0547 82.8906C9.96328 82.8906 9.47578 83.302 8.98828 83.8047C8.50078 84.3074 8.01328 84.7188 7.92188 84.7188C7.70859 84.7188 6.70312 85.7242 6.70312 85.9375C6.70312 86.0289 6.2918 86.5164 5.78906 87.0039C5.28633 87.4914 4.875 87.9941 4.875 88.1008C4.875 88.2227 4.73789 88.4055 4.57031 88.5273C4.40273 88.6492 4.26562 88.8473 4.26562 88.9844C4.26562 89.1215 4.12852 89.3195 3.96094 89.4414C3.79336 89.5633 3.65625 89.7613 3.65625 89.8984C3.65625 90.0355 3.51914 90.2336 3.35156 90.3555C3.18398 90.4773 3.04688 90.6906 3.04688 90.843C3.04688 90.9953 2.98594 91.1172 2.89453 91.1172C2.81836 91.1172 2.74219 91.2543 2.74219 91.4219C2.74219 91.5895 2.68125 91.7266 2.58984 91.7266C2.51367 91.7266 2.4375 91.8637 2.4375 92.0312C2.4375 92.1988 2.37656 92.3359 2.28516 92.3359C2.20898 92.3359 2.13281 92.473 2.13281 92.6406C2.13281 92.8082 2.07188 92.9453 1.98047 92.9453C1.9043 92.9453 1.82812 93.0824 1.82812 93.25C1.82812 93.4176 1.76719 93.5547 1.67578 93.5547C1.59961 93.5547 1.52344 93.7527 1.52344 94.0117C1.52344 94.2555 1.4625 94.4688 1.37109 94.4688C1.29492 94.4688 1.21875 94.6668 1.21875 94.9258C1.21875 95.1695 1.15781 95.3828 1.06641 95.3828C0.990234 95.3828 0.914062 95.657 0.914062 95.9922C0.914062 96.3273 0.853125 96.6016 0.761719 96.6016C0.685547 96.6016 0.609375 96.8758 0.609375 97.2109C0.609375 97.5461 0.548438 97.8203 0.457031 97.8203C0.365625 97.8203 0.304688 98.2773 0.304688 98.8867C0.304688 99.4961 0.24375 99.9531 0.152344 99.9531C0.0457031 99.9531 0 104.478 0 113.207C0 121.936 0.0457031 126.461 0.152344 126.461C0.24375 126.461 0.304688 126.568 0.304688 126.689C0.304688 127.07 1.00547 127.68 1.44727 127.68C1.66055 127.68 1.82812 127.741 1.82812 127.832C1.82812 127.923 3.96094 127.984 7.92188 127.984H14.0156V116.33V104.661L14.3965 104.295C14.7621 103.914 15.5391 103.762 15.5391 104.066C15.5391 104.143 15.6762 104.219 15.8438 104.219C16.0418 104.219 16.1484 104.325 16.1484 104.523C16.1484 104.691 16.2246 104.828 16.3008 104.828C16.4074 104.828 16.4531 108.789 16.4531 116.406V127.984H20.0484C22.9582 127.984 23.6742 127.939 23.857 127.771C24.0398 127.588 24.0703 126.202 24.0703 118.996C24.0703 111.79 24.1008 110.404 24.2836 110.221C24.4359 110.084 24.8473 110.008 25.5023 110.008H26.5078V93.0977C26.5078 76.2941 26.5078 76.1875 26.2031 76.1875C26.0355 76.1875 25.8984 76.2484 25.8984 76.3398Z" fill="#C2BEBE"/>
<path d="M81.0469 93.0976V110.008H82.0523C82.7074 110.008 83.1188 110.084 83.2711 110.221C83.4539 110.404 83.4844 111.79 83.4844 118.996C83.4844 126.202 83.5148 127.588 83.6977 127.771C84.0176 128.091 90.873 128.091 91.193 127.771C91.3758 127.588 91.4062 125.791 91.4062 115.888C91.4062 104.325 91.4062 104.219 91.7109 104.219C91.8785 104.219 92.0156 104.143 92.0156 104.066C92.0156 103.762 92.7926 103.914 93.1582 104.295L93.5391 104.661V116.33V127.984H99.7852C103.853 127.984 106.031 127.939 106.031 127.832C106.031 127.741 106.138 127.68 106.26 127.68C106.564 127.68 107.25 126.994 107.25 126.689C107.25 126.568 107.326 126.461 107.402 126.461C107.509 126.461 107.555 121.936 107.555 113.207C107.555 104.478 107.509 99.9531 107.402 99.9531C107.311 99.9531 107.25 99.496 107.25 98.8867C107.25 98.2773 107.189 97.8203 107.098 97.8203C107.021 97.8203 106.945 97.546 106.945 97.2109C106.945 96.8757 106.884 96.6015 106.793 96.6015C106.717 96.6015 106.641 96.3273 106.641 95.9921C106.641 95.657 106.58 95.3828 106.488 95.3828C106.412 95.3828 106.336 95.1695 106.336 94.9257C106.336 94.6668 106.275 94.4687 106.184 94.4687C106.107 94.4687 106.031 94.2554 106.031 94.0117C106.031 93.7527 105.97 93.5546 105.879 93.5546C105.803 93.5546 105.727 93.4175 105.727 93.25C105.727 93.0824 105.666 92.9453 105.574 92.9453C105.498 92.9453 105.422 92.8082 105.422 92.6406C105.422 92.473 105.361 92.3359 105.27 92.3359C105.193 92.3359 105.117 92.1988 105.117 92.0312C105.117 91.8636 105.056 91.7265 104.965 91.7265C104.889 91.7265 104.812 91.5894 104.812 91.4218C104.812 91.2543 104.752 91.1171 104.66 91.1171C104.584 91.1171 104.508 90.9953 104.508 90.8429C104.508 90.6906 104.371 90.4773 104.203 90.3554C104.036 90.2336 103.898 90.0355 103.898 89.8984C103.898 89.7613 103.761 89.5632 103.594 89.4414C103.426 89.3195 103.289 89.1214 103.289 88.9843C103.289 88.8472 103.152 88.6492 102.984 88.5273C102.817 88.4054 102.68 88.2226 102.68 88.1007C102.68 87.9941 102.345 87.5675 101.918 87.1562C101.507 86.7449 101.156 86.3336 101.156 86.2421C101.156 86.0289 99.5414 84.414 99.3281 84.414C99.2367 84.414 98.8254 84.0636 98.4141 83.6523C98.0027 83.2257 97.5914 82.8906 97.5 82.8906C97.3934 82.8906 97.1191 82.6773 96.8906 82.4336C96.6621 82.1746 96.3727 81.9765 96.2508 81.9765C96.1441 81.9765 95.9461 81.8394 95.8242 81.6718C95.7023 81.5043 95.5043 81.3671 95.3672 81.3671C95.2301 81.3671 95.032 81.23 94.9102 81.0625C94.7883 80.8949 94.575 80.7578 94.4227 80.7578C94.2703 80.7578 94.1484 80.6816 94.1484 80.6054C94.1484 80.514 94.0113 80.4531 93.8438 80.4531C93.6762 80.4531 93.5391 80.3769 93.5391 80.3007C93.5391 80.2093 93.402 80.1484 93.2344 80.1484C93.0668 80.1484 92.9297 80.0722 92.9297 79.9961C92.9297 79.9046 92.7926 79.8437 92.625 79.8437C92.4574 79.8437 92.3203 79.7675 92.3203 79.6914C92.3203 79.6 92.1832 79.539 92.0156 79.539C91.848 79.539 91.7109 79.4628 91.7109 79.3867C91.7109 79.2953 91.5738 79.2343 91.4062 79.2343C91.2387 79.2343 91.1016 79.1582 91.1016 79.082C91.1016 78.9906 90.9645 78.9296 90.7969 78.9296C90.6293 78.9296 90.4922 78.8535 90.4922 78.7773C90.4922 78.6859 90.2941 78.625 90.0352 78.625C89.7914 78.625 89.5781 78.5488 89.5781 78.4726C89.5781 78.3812 89.441 78.3203 89.2734 78.3203C89.1059 78.3203 88.9688 78.2441 88.9688 78.1679C88.9688 78.0765 88.7707 78.0156 88.5117 78.0156C88.268 78.0156 88.0547 77.9394 88.0547 77.8632C88.0547 77.7718 87.8566 77.7109 87.5977 77.7109C87.3539 77.7109 87.1406 77.6347 87.1406 77.5586C87.1406 77.4671 86.8664 77.4062 86.5312 77.4062C86.1961 77.4062 85.9219 77.33 85.9219 77.2539C85.9219 77.1625 85.7238 77.1015 85.4648 77.1015C85.2211 77.1015 85.0078 77.0253 85.0078 76.9492C85.0078 76.8578 84.6727 76.7968 84.2461 76.7968C83.8348 76.7968 83.4844 76.7207 83.4844 76.6445C83.4844 76.5531 83.073 76.4921 82.5703 76.4921C82.0676 76.4921 81.6562 76.4312 81.6562 76.3398C81.6562 76.2484 81.5191 76.1875 81.3516 76.1875C81.0469 76.1875 81.0469 76.2941 81.0469 93.0976Z" fill="#C2BEBE"/>
<path d="M45.7031 77.1016C45.7031 77.2691 45.7793 77.4062 45.8555 77.4062C45.9469 77.4062 46.0078 77.5434 46.0078 77.7109C46.0078 77.8785 46.084 78.0156 46.1602 78.0156C46.2516 78.0156 46.3125 78.1527 46.3125 78.3203C46.3125 78.4879 46.3887 78.625 46.4648 78.625C46.5563 78.625 46.6172 78.7621 46.6172 78.9297C46.6172 79.0973 46.6934 79.2344 46.7695 79.2344C46.8609 79.2344 46.9219 79.3715 46.9219 79.5391C46.9219 79.7066 46.998 79.8438 47.0742 79.8438C47.1656 79.8438 47.2266 79.9809 47.2266 80.1484C47.2266 80.316 47.3027 80.4531 47.3789 80.4531C47.4703 80.4531 47.5313 80.5902 47.5313 80.7578C47.5313 80.9254 47.6074 81.0625 47.6836 81.0625C47.775 81.0625 47.8359 81.1996 47.8359 81.3672C47.8359 81.5348 47.9121 81.6719 47.9883 81.6719C48.0797 81.6719 48.1406 81.809 48.1406 81.9766C48.1406 82.1441 48.2168 82.2812 48.293 82.2812C48.3844 82.2812 48.4453 82.4184 48.4453 82.5859C48.4453 82.7535 48.5215 82.8906 48.5977 82.8906C48.6891 82.8906 48.75 83.0277 48.75 83.1953C48.75 83.3629 48.8262 83.5 48.9023 83.5C48.9938 83.5 49.0547 83.6371 49.0547 83.8047C49.0547 83.9723 49.1309 84.1094 49.207 84.1094C49.2984 84.1094 49.3594 84.2465 49.3594 84.4141C49.3594 84.5816 49.4355 84.7188 49.5117 84.7188C49.6031 84.7188 49.6641 84.8559 49.6641 85.0234C49.6641 85.191 49.7402 85.3281 49.8164 85.3281C49.9078 85.3281 49.9688 85.4652 49.9688 85.6328C49.9688 85.8004 50.0449 85.9375 50.1211 85.9375C50.2125 85.9375 50.2734 86.0746 50.2734 86.2422C50.2734 86.4098 50.3496 86.5469 50.4258 86.5469C50.5172 86.5469 50.5781 86.684 50.5781 86.8516C50.5781 87.0191 50.6543 87.1562 50.7305 87.1562C50.8219 87.1562 50.8828 87.2934 50.8828 87.4609C50.8828 87.6285 50.959 87.7656 51.0352 87.7656C51.1266 87.7656 51.1875 87.9027 51.1875 88.0703C51.1875 88.2379 51.2637 88.375 51.3398 88.375C51.4313 88.375 51.4922 88.5121 51.4922 88.6797C51.4922 88.8473 51.5684 88.9844 51.6445 88.9844C51.7359 88.9844 51.7969 89.1215 51.7969 89.2891C51.7969 89.4566 51.873 89.5938 51.9492 89.5938C52.0406 89.5938 52.1016 89.7309 52.1016 89.8984C52.1016 90.066 52.1777 90.2031 52.2539 90.2031C52.3453 90.2031 52.4063 90.3402 52.4063 90.5078C52.4063 90.6754 52.4824 90.8125 52.5586 90.8125C52.65 90.8125 52.7109 90.9496 52.7109 91.1172C52.7109 91.2848 52.7871 91.4219 52.8633 91.4219C52.9547 91.4219 53.0156 91.559 53.0156 91.7266C53.0156 91.8941 53.0918 92.0312 53.168 92.0312C53.2594 92.0312 53.3203 92.1684 53.3203 92.3359C53.3203 92.5035 53.3965 92.6406 53.4727 92.6406C53.5641 92.6406 53.625 92.7777 53.625 92.9453C53.625 93.1129 53.6707 93.25 53.7164 93.25C53.884 93.25 54.2344 92.8082 54.2344 92.5797C54.2344 92.4426 54.3105 92.3359 54.3867 92.3359C54.4781 92.3359 54.5391 92.1988 54.5391 92.0312C54.5391 91.8637 54.6152 91.7266 54.6914 91.7266C54.7828 91.7266 54.8438 91.5895 54.8438 91.4219C54.8438 91.2543 54.9199 91.1172 54.9961 91.1172C55.0875 91.1172 55.1484 90.9801 55.1484 90.8125C55.1484 90.6449 55.2246 90.5078 55.3008 90.5078C55.3922 90.5078 55.4531 90.2945 55.4531 90.0508C55.4531 89.7918 55.5293 89.5938 55.6055 89.5938C55.6969 89.5938 55.7578 89.4566 55.7578 89.2891C55.7578 89.1215 55.834 88.9844 55.9102 88.9844C56.0016 88.9844 56.0625 88.8473 56.0625 88.6797C56.0625 88.5121 56.1387 88.375 56.2148 88.375C56.3063 88.375 56.3672 88.2379 56.3672 88.0703C56.3672 87.9027 56.4434 87.7656 56.5195 87.7656C56.6109 87.7656 56.6719 87.6285 56.6719 87.4609C56.6719 87.2934 56.748 87.1562 56.8242 87.1562C56.9156 87.1562 56.9766 87.0191 56.9766 86.8516C56.9766 86.684 57.0527 86.5469 57.1289 86.5469C57.2203 86.5469 57.2813 86.4098 57.2813 86.2422C57.2813 86.0746 57.3574 85.9375 57.4336 85.9375C57.525 85.9375 57.5859 85.8004 57.5859 85.6328C57.5859 85.4652 57.6621 85.3281 57.7383 85.3281C57.8297 85.3281 57.8906 85.191 57.8906 85.0234C57.8906 84.8559 57.9668 84.7188 58.043 84.7188C58.1344 84.7188 58.1953 84.5816 58.1953 84.4141C58.1953 84.2465 58.2715 84.1094 58.3477 84.1094C58.4391 84.1094 58.5 83.9723 58.5 83.8047C58.5 83.6371 58.5762 83.5 58.6523 83.5C58.7438 83.5 58.8047 83.3629 58.8047 83.1953C58.8047 83.0277 58.8809 82.8906 58.957 82.8906C59.0484 82.8906 59.1094 82.7535 59.1094 82.5859C59.1094 82.4184 59.1855 82.2812 59.2617 82.2812C59.3531 82.2812 59.4141 82.1441 59.4141 81.9766C59.4141 81.809 59.4902 81.6719 59.5664 81.6719C59.6578 81.6719 59.7188 81.5348 59.7188 81.3672C59.7188 81.1996 59.7949 81.0625 59.8711 81.0625C59.9625 81.0625 60.0234 80.9254 60.0234 80.7578C60.0234 80.5902 60.0996 80.4531 60.1758 80.4531C60.2672 80.4531 60.3281 80.316 60.3281 80.1484C60.3281 79.9809 60.4043 79.8438 60.4805 79.8438C60.5719 79.8438 60.6328 79.7066 60.6328 79.5391C60.6328 79.3715 60.709 79.2344 60.7852 79.2344C60.8766 79.2344 60.9375 79.0973 60.9375 78.9297C60.9375 78.7621 61.0137 78.625 61.0898 78.625C61.1813 78.625 61.2422 78.4879 61.2422 78.3203C61.2422 78.1527 61.3184 78.0156 61.3945 78.0156C61.4859 78.0156 61.5469 77.8785 61.5469 77.7109C61.5469 77.5434 61.623 77.4062 61.6992 77.4062C61.7906 77.4062 61.8516 77.2691 61.8516 77.1016C61.8516 76.8426 61.7449 76.7969 61.2422 76.7969C60.907 76.7969 60.6328 76.8578 60.6328 76.9492C60.6328 77.0254 60.3586 77.1016 60.0234 77.1016C59.6883 77.1016 59.4141 77.1625 59.4141 77.2539C59.4141 77.3301 59.0789 77.4062 58.6523 77.4062C58.241 77.4062 57.8906 77.4672 57.8906 77.5586C57.8906 77.65 57.1289 77.7109 55.9254 77.7109C54.4934 77.7109 53.9297 77.7566 53.8688 77.8937C53.7926 78.0461 53.7621 78.0461 53.6859 77.8937C53.625 77.7566 53.0613 77.7109 51.6293 77.7109C50.4258 77.7109 49.6641 77.65 49.6641 77.5586C49.6641 77.4672 49.3289 77.4062 48.9023 77.4062C48.491 77.4062 48.1406 77.3301 48.1406 77.2539C48.1406 77.1625 47.8664 77.1016 47.5313 77.1016C47.1961 77.1016 46.9219 77.0254 46.9219 76.9492C46.9219 76.8578 46.6477 76.7969 46.3125 76.7969C45.8098 76.7969 45.7031 76.8426 45.7031 77.1016Z" fill="#C2BEBE"/>
<path d="M26.4012 112.369C26.0965 112.704 26.1118 127.466 26.4165 127.771C26.6145 127.954 30.484 127.984 53.9907 127.984H81.3516V120.276C81.3516 113.801 81.3211 112.537 81.1383 112.354C80.8032 112.034 26.6754 112.034 26.4012 112.369Z" fill="#C2BEBE"/>
</svg>
