<svg width="220" height="55" viewBox="0 0 220 55" fill="none" xmlns="http://www.w3.org/2000/svg" id="logo-w" >
<path d="M69.3407 30.2803C69.0462 31.0952 68.4653 32.2883 67.7161 32.812H73.6942L77.0021 21.4051H72.9976L69.3407 30.2803ZM61.4944 32.6955C63.017 32.6955 63.5274 31.9971 64.308 30.1056L69.6625 16.8369C73.8921 16.8369 79.4311 16.8369 83.6887 16.8369L79.0733 32.6955H81.0474L79.0529 39.5918H74.4165L75.0981 37.2057H64.0447L63.3632 39.5918H58.7666L60.7614 32.6955H61.4944Z" fill="white"/>
<path d="M101.219 37.1436H114.192L115.595 32.3632H108.07L108.941 29.2921H115.539L116.888 24.6275H110.288L111.187 21.4984H118.712L120.03 16.8619H107.032L101.219 37.1436Z" fill="white"/>
<path d="M91.2135 26.0753L92.5045 21.4968H94.9744C95.9294 21.4968 96.4083 21.9892 96.4083 22.8008C96.4083 24.6834 95.5097 26.0753 93.6276 26.0753H91.2135ZM82.6216 37.1436H88.0681L89.951 30.7101C89.951 30.7101 90.5537 30.7101 91.4386 30.7101C98.198 30.7101 100.247 28.9291 101.539 24.4084C101.875 23.2217 102.136 21.381 102.136 20.7449C102.136 18.2818 100.732 16.8619 97.2219 16.8619H88.4327L82.6216 37.1436Z" fill="white"/>
<path d="M185.393 16.8619H190.897L188.622 24.7413H194.012L196.288 16.8619H201.793L195.978 37.1436H190.476L192.693 29.4079H187.303L185.086 37.1436H179.58L185.393 16.8619Z" fill="white"/>
<path d="M124.731 16.8619H130.234L127.109 27.6689L136.637 16.8619H141.129L135.315 37.1436H129.813L132.82 26.4622L123.729 37.1436H118.917L124.731 16.8619Z" fill="white"/>
<path d="M164.967 16.8619H170.47L167.346 27.6689L176.873 16.8619H181.366L175.552 37.1436H170.049L173.056 26.4622L163.966 37.1436H159.154L164.967 16.8619Z" fill="white"/>
<path d="M219.007 16.8619H206.017L200.204 37.1436H205.71L210.188 21.5129H217.675L219.007 16.8619Z" fill="white"/>
<path d="M149.711 21.4625L148.642 25.0984H151.855C152.842 25.0984 153.661 24.08 153.927 23.2659C154.201 22.364 153.967 21.4625 152.925 21.4625H149.711ZM147.532 28.8801L146.488 32.545H150.491C151.478 32.545 152.162 31.7888 152.457 30.9742C152.756 30.1017 152.55 28.8801 151.506 28.8801H147.532ZM156.379 26.6108C157.449 27.2799 157.9 28.618 157.779 30.0436C157.466 33.7378 154.271 37.1699 149.507 37.1699H139.454L145.378 16.8371H154.641C157.799 16.8371 159.574 18.8445 159.319 21.8403C159.142 23.9349 157.779 25.7093 156.379 26.6108Z" fill="white"/>
<path d="M132.282 15.1282L130.331 21.7871L136.202 15.1282H132.282Z" fill="#F14C1C"/>
<path d="M81.7764 42.3743H85.7761L85.4917 43.1207H83.9483L82.3756 47.3096H81.5254L83.098 43.1207H81.4995L81.7764 42.3743Z" fill="#F14C1C"/>
<path d="M87.443 42.3743H90.9795L90.7026 43.1207H88.0028L87.5164 44.413H90.0197L89.7564 45.1182H87.2457L86.707 46.5627H89.4279L89.151 47.3096H85.5928L87.443 42.3743Z" fill="#F14C1C"/>
<path d="M93.2736 44.7173L92.524 42.3743H93.4559L93.9497 44.1434L95.6394 42.3743H96.6393L94.2205 44.7855L94.9932 47.3096H94.0824L93.5382 45.3951L91.6805 47.3096H90.667L93.2736 44.7173Z" fill="#F14C1C"/>
<path d="M98.401 42.3743H99.2513L98.5146 44.3376H100.786L101.523 42.3743H102.373L100.523 47.3096H99.673L100.509 45.0839H98.2371L97.4011 47.3096H96.5508L98.401 42.3743Z" fill="#F14C1C"/>
<path d="M104.074 45.2419C103.995 45.7035 104.049 46.0654 104.236 46.3278C104.422 46.5905 104.728 46.7221 105.154 46.7221C105.435 46.7221 105.693 46.6549 105.926 46.5211C106.16 46.3875 106.367 46.2121 106.547 45.9955C106.726 45.7797 106.875 45.5353 106.992 45.2633C107.108 44.991 107.19 44.7171 107.237 44.4402C107.316 43.9801 107.269 43.6182 107.093 43.3554C106.918 43.0931 106.618 42.9614 106.191 42.9614C105.901 42.9614 105.637 43.0278 105.399 43.1616C105.16 43.2954 104.952 43.4701 104.772 43.6867C104.592 43.9033 104.442 44.1479 104.323 44.4202C104.204 44.6922 104.121 44.9658 104.074 45.2419ZM103.219 45.2702C103.306 44.7539 103.459 44.3056 103.676 43.9258C103.893 43.545 104.146 43.2315 104.435 42.9856C104.725 42.7393 105.035 42.5556 105.366 42.4358C105.697 42.3157 106.021 42.2559 106.339 42.2559C106.656 42.2559 106.937 42.3088 107.182 42.4153C107.427 42.5208 107.625 42.6694 107.776 42.8613C107.927 43.0519 108.031 43.279 108.088 43.5414C108.145 43.8046 108.147 44.0947 108.092 44.4128C108.003 44.9338 107.854 45.3832 107.645 45.761C107.435 46.1388 107.189 46.4514 106.907 46.6974C106.624 46.9442 106.318 47.1273 105.989 47.2472C105.661 47.3664 105.333 47.4268 105.006 47.4268C104.657 47.4268 104.359 47.3711 104.11 47.2609C103.861 47.1498 103.663 46.9985 103.514 46.8043C103.366 46.611 103.266 46.3834 103.216 46.1202C103.166 45.8578 103.167 45.5746 103.219 45.2702Z" fill="#F14C1C"/>
<path d="M111.91 47.3094L113.475 43.1205H111.884L110.732 45.9201C110.618 46.192 110.496 46.4237 110.368 46.6143C110.241 46.8057 110.106 46.962 109.962 47.0813C109.819 47.2011 109.668 47.2883 109.509 47.3439C109.351 47.3993 109.187 47.4268 109.019 47.4268C108.828 47.4268 108.662 47.3925 108.52 47.3226L108.784 46.6521C108.88 46.6988 108.978 46.7221 109.078 46.7221C109.164 46.7221 109.246 46.707 109.323 46.6768C109.402 46.6475 109.477 46.5932 109.552 46.5142C109.627 46.4355 109.7 46.33 109.773 46.1962C109.846 46.0626 109.925 45.8926 110.01 45.6851L111.345 42.3741H114.61L112.76 47.3094H111.91Z" fill="#F14C1C"/>
<path d="M116.31 45.2419C116.232 45.7035 116.286 46.0654 116.472 46.3278C116.658 46.5905 116.965 46.7221 117.39 46.7221C117.672 46.7221 117.929 46.6549 118.163 46.5211C118.397 46.3875 118.604 46.2121 118.783 45.9955C118.963 45.7797 119.112 45.5353 119.228 45.2633C119.345 44.991 119.427 44.7171 119.474 44.4402C119.553 43.9801 119.506 43.6182 119.33 43.3554C119.155 43.0931 118.854 42.9614 118.428 42.9614C118.138 42.9614 117.874 43.0278 117.636 43.1616C117.397 43.2954 117.188 43.4701 117.008 43.6867C116.828 43.9033 116.679 44.1479 116.559 44.4202C116.441 44.6922 116.357 44.9658 116.31 45.2419ZM115.455 45.2702C115.543 44.7539 115.696 44.3056 115.913 43.9258C116.13 43.545 116.383 43.2315 116.672 42.9856C116.962 42.7393 117.271 42.5556 117.603 42.4358C117.934 42.3157 118.258 42.2559 118.575 42.2559C118.893 42.2559 119.174 42.3088 119.419 42.4153C119.664 42.5208 119.862 42.6694 120.014 42.8613C120.164 43.0519 120.268 43.279 120.325 43.5414C120.382 43.8046 120.384 44.0947 120.329 44.4128C120.24 44.9338 120.091 45.3832 119.881 45.761C119.672 46.1388 119.425 46.4514 119.143 46.6974C118.86 46.9442 118.555 47.1273 118.226 47.2472C117.897 47.3664 117.57 47.4268 117.242 47.4268C116.894 47.4268 116.596 47.3711 116.347 47.2609C116.098 47.1498 115.9 46.9985 115.751 46.8043C115.602 46.611 115.504 46.3834 115.453 46.1202C115.402 45.8578 115.403 45.5746 115.455 45.2702Z" fill="#F14C1C"/>
<path d="M123.073 42.3743H126.412L126.135 43.1207H123.645L122.072 47.3096H121.222L123.073 42.3743Z" fill="#F14C1C"/>
<path d="M128.031 42.3743H128.881L127.466 46.1623L130.915 42.3743H132.003L130.153 47.3096H129.303L130.719 43.521L127.269 47.3096H126.181L128.031 42.3743Z" fill="#F14C1C"/>
<path d="M134.098 42.3743H134.949L133.533 46.1623L136.982 42.3743H138.07L136.221 47.3096H135.37L136.786 43.521L133.336 47.3096H132.248L134.098 42.3743Z" fill="#F14C1C"/>
<path d="M145.865 45.2419C145.787 45.7035 145.841 46.0654 146.028 46.3278C146.213 46.5905 146.52 46.7221 146.945 46.7221C147.227 46.7221 147.485 46.6549 147.718 46.5211C147.953 46.3875 148.159 46.2121 148.338 45.9955C148.518 45.7797 148.667 45.5353 148.784 45.2633C148.9 44.991 148.982 44.7171 149.029 44.4402C149.108 43.9801 149.061 43.6182 148.885 43.3554C148.71 43.0931 148.41 42.9614 147.983 42.9614C147.693 42.9614 147.429 43.0278 147.191 43.1616C146.952 43.2954 146.743 43.4701 146.564 43.6867C146.383 43.9033 146.234 44.1479 146.115 44.4202C145.996 44.6922 145.913 44.9658 145.865 45.2419ZM145.011 45.2702C145.099 44.7539 145.251 44.3056 145.468 43.9258C145.685 43.545 145.938 43.2315 146.228 42.9856C146.517 42.7393 146.827 42.5556 147.158 42.4358C147.489 42.3157 147.813 42.2559 148.131 42.2559C148.448 42.2559 148.729 42.3088 148.974 42.4153C149.219 42.5208 149.417 42.6694 149.569 42.8613C149.719 43.0519 149.823 43.279 149.88 43.5414C149.937 43.8046 149.939 44.0947 149.884 44.4128C149.795 44.9338 149.646 45.3832 149.436 45.761C149.227 46.1388 148.981 46.4514 148.699 46.6974C148.416 46.9442 148.11 47.1273 147.781 47.2472C147.453 47.3664 147.125 47.4268 146.798 47.4268C146.449 47.4268 146.151 47.3711 145.902 47.2609C145.653 47.1498 145.455 46.9985 145.306 46.8043C145.158 46.611 145.059 46.3834 145.008 46.1202C144.958 45.8578 144.958 45.5746 145.011 45.2702Z" fill="#F14C1C"/>
<path d="M152.628 42.3743H155.968L155.69 43.1207H153.2L151.627 47.3096H150.777L152.628 42.3743Z" fill="#F14C1C"/>
<path d="M157.586 42.3743H158.436L157.699 44.3376H159.971L160.708 42.3743H161.558L159.708 47.3096H158.858L159.694 45.0839H157.422L156.586 47.3096H155.735L157.586 42.3743Z" fill="#F14C1C"/>
<path d="M163.701 42.3743H167.237L166.961 43.1207H164.26L163.774 44.413H166.277L166.014 45.1182H163.504L162.965 46.5627H165.686L165.408 47.3096H161.85L163.701 42.3743Z" fill="#F14C1C"/>
<path d="M172.173 43.5482C172.146 43.7059 172.095 43.8449 172.02 43.9669C171.944 44.0892 171.854 44.1967 171.747 44.2885C171.641 44.3813 171.522 44.4577 171.391 44.5194C171.26 44.582 171.129 44.6294 170.996 44.6615L170.993 44.6829C171.234 44.7511 171.404 44.8767 171.5 45.0591C171.596 45.2414 171.621 45.4635 171.576 45.7262C171.53 45.9982 171.434 46.2395 171.289 46.4487C171.145 46.6582 170.967 46.8359 170.756 46.9812C170.546 47.1265 170.308 47.2362 170.043 47.313C169.779 47.3889 169.503 47.4268 169.218 47.4268C168.596 47.4268 168.147 47.2883 167.871 47.0119C167.594 46.7358 167.501 46.3327 167.591 45.803L167.599 45.7541L167.616 45.6985H168.445C168.382 46.0673 168.427 46.3349 168.581 46.5005C168.734 46.6664 168.998 46.7495 169.374 46.7495C169.547 46.7495 169.709 46.7289 169.862 46.687C170.013 46.6458 170.149 46.5822 170.268 46.4972C170.386 46.4122 170.485 46.3045 170.564 46.1756C170.643 46.0467 170.697 45.8967 170.726 45.7262C170.763 45.5096 170.717 45.3475 170.588 45.2386C170.46 45.1309 170.27 45.0761 170.021 45.0761H169.328L169.56 44.427H170.153C170.474 44.427 170.738 44.3495 170.943 44.1953C171.149 44.0404 171.272 43.8416 171.315 43.5971C171.349 43.3947 171.303 43.2343 171.175 43.1164C171.048 42.999 170.843 42.94 170.562 42.94C170.264 42.94 169.991 43.0067 169.747 43.1378C169.502 43.2694 169.317 43.4915 169.19 43.8046H168.381C168.464 43.5332 168.584 43.2987 168.742 43.1027C168.901 42.9075 169.082 42.7467 169.287 42.622C169.492 42.4981 169.714 42.4054 169.953 42.3459C170.192 42.2864 170.437 42.2559 170.686 42.2559C171.244 42.2559 171.648 42.3741 171.898 42.6086C172.148 42.8435 172.24 43.1566 172.173 43.5482Z" fill="#F14C1C"/>
<path d="M176.34 43.2446H176.327L174.797 45.3466H176.28L176.34 43.2446ZM176.196 42.3743H177.095V47.3096H176.23L176.256 46.003H174.324L173.353 47.3096H172.442L176.196 42.3743Z" fill="#F14C1C"/>
<path d="M185.391 46.5632L184.662 48.4854H183.859L184.304 47.3101H178.625L180.475 42.3749H181.325L179.753 46.5632H181.466L183.032 42.3749H183.882L182.31 46.5632H184.031L185.597 42.3749H186.448L184.874 46.5632H185.391Z" fill="#F14C1C"/>
<path d="M188.624 42.3743H189.474L188.058 46.1623L191.508 42.3743H192.596L190.746 47.3096H189.896L191.312 43.521L187.862 47.3096H186.773L188.624 42.3743Z" fill="#F14C1C"/>
<path d="M194.263 42.3743H198.262L197.978 43.1207H196.434L194.861 47.3096H194.011L195.584 43.1207H193.986L194.263 42.3743Z" fill="#F14C1C"/>
<path d="M204.166 42.3743H205.016L203.159 47.3096H202.309L204.166 42.3743ZM201.556 45.6296C201.596 45.3993 201.556 45.232 201.438 45.1283C201.319 45.025 201.092 44.9728 200.757 44.9728H199.804L199.194 46.5975H200.282C200.622 46.5975 200.906 46.5188 201.132 46.3622C201.358 46.2062 201.5 45.9613 201.556 45.6296ZM202.389 45.5679C202.349 45.8069 202.274 46.0326 202.165 46.2451C202.057 46.4568 201.913 46.6414 201.734 46.7976C201.555 46.9548 201.34 47.0792 201.089 47.1714C200.837 47.2638 200.547 47.3096 200.222 47.3096H198.078L199.929 42.3743H200.779L200.068 44.2677H201.068C201.295 44.2677 201.498 44.292 201.677 44.3403C201.857 44.3888 202.007 44.4648 202.125 44.5684C202.243 44.6718 202.327 44.807 202.376 44.9728C202.425 45.1393 202.43 45.3367 202.389 45.5679Z" fill="#F14C1C"/>
<path d="M36.2081 39.0282H23.2168L16.7215 27.4187L23.2168 15.8086H36.2081L42.7034 27.4187L36.2081 39.0282ZM39.3211 10.2443H20.1038L10.4951 27.4187L20.1038 44.5928H39.3211L48.9298 27.4187L39.3211 10.2443Z" fill="#F14C1C"/>
<path d="M38.1959 53.0869L33.4439 44.5934H39.3212L39.6233 44.0535L41.4365 47.2945L38.1959 53.0869ZM36.2081 39.0288H30.3305L26.4195 32.0384H28.8035V26.206H24.5142L30.3308 15.8092H36.2081L36.5102 16.3494L30.317 27.419L36.5102 38.4889L36.2081 39.0288ZM39.6233 10.785L39.3212 10.2449H33.4439L38.1959 1.75163L41.4365 7.5443L39.6233 10.785Z" fill="#D9D9D9"/>
<path d="M39.3212 44.5928H33.4439L30.3306 39.0282H36.2082L36.5103 38.4883L39.6234 44.0529L39.3212 44.5928ZM36.5103 16.3488L36.2082 15.8086H30.3308L33.4439 10.2443H39.3212L39.6234 10.7844L36.5103 16.3488Z" fill="#F14C1C"/>
<path d="M13.0791 32.0391H5.28125V26.2066H11.1737L10.4948 27.4199L13.0791 32.0391Z" fill="#D9D9D9"/>
<path d="M19.3058 32.0391H13.0794L10.4951 27.4199L11.174 26.2066H17.4004L16.7215 27.4199L19.3058 32.0391Z" fill="#F14C1C"/>
<path d="M28.8036 32.0391H19.306L16.7217 27.4199L17.4005 26.2066H24.5142H28.8036V32.0391Z" fill="#D9D9D9"/>
<path fill-rule="evenodd" clip-rule="evenodd" d="M44.0732 53.0867H40.7538L40.7537 53.0869L40.7536 53.0867H15.3519L0.991211 27.4191L15.3519 1.75142H44.0732L58.4339 27.4191L44.0732 53.0867ZM18.5928 47.294H37.5127L28.0248 30.3359H9.10476L18.5928 47.294ZM9.10438 24.5034L18.5928 7.54381H37.5131L28.0244 24.5034H9.10438ZM51.9521 27.4193L42.4135 10.3697L32.8748 27.419L42.4133 44.4686L51.9521 27.4193Z" fill="#171615"/>
<path d="M40.7538 53.0867L40.4874 52.937L40.575 52.7812H40.7538V53.0867ZM44.0732 53.0867L44.3399 53.2359L44.2524 53.3923H44.0732V53.0867ZM40.7537 53.0869L41.0201 53.2366L40.7537 53.7105L40.4873 53.2366L40.7537 53.0869ZM40.7536 53.0867V52.7812H40.9324L41.02 52.937L40.7536 53.0867ZM15.3519 53.0867V53.3923H15.1727L15.0852 53.2359L15.3519 53.0867ZM0.991211 27.4191L0.724553 27.5683L0.641083 27.4191L0.724553 27.2699L0.991211 27.4191ZM15.3519 1.75142L15.0852 1.60223L15.1727 1.44587H15.3519V1.75142ZM44.0732 1.75142V1.44587H44.2524L44.3399 1.60223L44.0732 1.75142ZM58.4339 27.4191L58.7005 27.2699L58.784 27.4191L58.7005 27.5683L58.4339 27.4191ZM37.5127 47.294L37.7793 47.1448L38.0337 47.5996H37.5127V47.294ZM18.5928 47.294V47.5996H18.4136L18.3261 47.4432L18.5928 47.294ZM28.0248 30.3359V30.0303H28.204L28.2915 30.1867L28.0248 30.3359ZM9.10476 30.3359L8.83811 30.485L8.58368 30.0303H9.10476V30.3359ZM9.10438 24.5034V24.8089H8.58331L8.83772 24.3542L9.10438 24.5034ZM18.5928 7.54381L18.3261 7.39462L18.4136 7.23825H18.5928V7.54381ZM37.5131 7.54381V7.23825H38.0341L37.7797 7.693L37.5131 7.54381ZM28.0244 24.5034L28.2911 24.6526L28.2036 24.8089H28.0244V24.5034ZM42.4135 10.3697L42.1469 10.2205L42.4135 9.74387L42.6802 10.2205L42.4135 10.3697ZM51.9521 27.4193L52.2188 27.2702L52.3022 27.4193L52.2188 27.5685L51.9521 27.4193ZM32.8748 27.419L32.6082 27.5682L32.5247 27.419L32.6082 27.2698L32.8748 27.419ZM42.4133 44.4686L42.68 44.6178L42.4133 45.0944L42.1467 44.6178L42.4133 44.4686ZM40.7538 52.7812H44.0732V53.3923H40.7538V52.7812ZM40.4873 52.9372L40.4874 52.937L41.0202 53.2364L41.0201 53.2366L40.4873 52.9372ZM41.02 52.937L41.0201 52.9372L40.4873 53.2366L40.4872 53.2364L41.02 52.937ZM15.3519 52.7812H40.7536V53.3923H15.3519V52.7812ZM1.25787 27.2699L15.6185 52.9375L15.0852 53.2359L0.724553 27.5683L1.25787 27.2699ZM15.6185 1.90061L1.25787 27.5683L0.724553 27.2699L15.0852 1.60223L15.6185 1.90061ZM44.0732 2.05698H15.3519V1.44587H44.0732V2.05698ZM58.1672 27.5683L43.8066 1.90061L44.3399 1.60223L58.7005 27.2699L58.1672 27.5683ZM43.8066 52.9375L58.1672 27.2699L58.7005 27.5683L44.3399 53.2359L43.8066 52.9375ZM37.5127 47.5996H18.5928V46.9885H37.5127V47.5996ZM28.2915 30.1867L37.7793 47.1448L37.246 47.4432L27.7582 30.485L28.2915 30.1867ZM28.0248 30.6414H9.10476V30.0303H28.0248V30.6414ZM18.3261 47.4432L8.83811 30.485L9.37142 30.1867L18.8594 47.1448L18.3261 47.4432ZM8.83772 24.3542L18.3261 7.39462L18.8594 7.693L9.37104 24.6526L8.83772 24.3542ZM18.5928 7.23825H37.5131V7.84937H18.5928V7.23825ZM37.7797 7.693L28.2911 24.6526L27.7578 24.3542L37.2464 7.39462L37.7797 7.693ZM9.10438 24.1978H28.0244V24.8089H9.10438V24.1978ZM42.6802 10.2205L52.2188 27.2702L51.6854 27.5685L42.1469 10.5189L42.6802 10.2205ZM32.6082 27.2698L42.1469 10.2205L42.6802 10.5189L33.1415 27.5682L32.6082 27.2698ZM42.1467 44.6178L32.6082 27.5682L33.1415 27.2698L42.68 44.3194L42.1467 44.6178ZM52.2188 27.5685L42.68 44.6178L42.1467 44.3194L51.6854 27.2702L52.2188 27.5685Z" fill="white"/>
</svg>
