<svg width="180" height="42" viewBox="0 0 180 42" fill="none" xmlns="http://www.w3.org/2000/svg">
<g clip-path="url(#clip0_926_16554)">
<path d="M56.4304 23.34C56.1872 24.0068 55.7077 24.9829 55.0891 25.4114H60.0247L62.7558 16.0784H59.4496L56.4304 23.34ZM49.9523 25.316C51.2094 25.316 51.6308 24.7446 52.2753 23.1971L56.696 12.3409C60.1881 12.3409 64.7612 12.3409 68.2763 12.3409L64.4658 25.316H66.0956L64.449 30.9585H60.6211L61.1838 29.0063H52.0579L51.4952 30.9585H47.7002L49.3471 25.316H49.9523Z" fill="#171615"/>
<path d="M82.7495 28.9561H93.4604L94.619 25.0448H88.406L89.1254 22.5322H94.5724L95.6861 18.7156H90.2374L90.9793 16.1554H97.1923L98.2807 12.362H87.549L82.7495 28.9561Z" fill="#171615"/>
<path d="M74.4891 19.9002L75.5551 16.1541H77.5943C78.3827 16.1541 78.7781 16.557 78.7781 17.2211C78.7781 18.7614 78.0362 19.9002 76.4823 19.9002H74.4891ZM67.3955 28.9561H71.8923L73.4468 23.6923C73.4468 23.6923 73.9444 23.6923 74.675 23.6923C80.2557 23.6923 81.9472 22.2351 83.0143 18.5364C83.2917 17.5655 83.5074 16.0594 83.5074 15.539C83.5074 13.5237 82.3477 12.362 79.4498 12.362H72.1933L67.3955 28.9561Z" fill="#171615"/>
<path d="M152.246 12.362H156.79L154.912 18.8087H159.362L161.241 12.362H165.786L160.985 28.9561H156.443L158.273 22.6269H153.823L151.992 28.9561H147.447L152.246 12.362Z" fill="#171615"/>
<path d="M102.162 12.362H106.706L104.126 21.2041L111.992 12.362H115.701L110.9 28.9561H106.358L108.84 20.2167L101.335 28.9561H97.3623L102.162 12.362Z" fill="#171615"/>
<path d="M135.381 12.362H139.925L137.346 21.2041L145.212 12.362H148.921L144.121 28.9561H139.578L142.06 20.2167L134.555 28.9561H130.583L135.381 12.362Z" fill="#171615"/>
<path d="M179.998 12.362H169.273L164.474 28.9561H169.019L172.717 16.1673H178.898L179.998 12.362Z" fill="#171615"/>
<path d="M122.786 16.1253L121.903 19.1001H124.556C125.371 19.1001 126.047 18.2669 126.267 17.6008C126.493 16.8629 126.3 16.1253 125.439 16.1253H122.786ZM120.986 22.1943L120.125 25.1928H123.43C124.244 25.1928 124.809 24.5741 125.052 23.9076C125.3 23.1937 125.129 22.1943 124.268 22.1943H120.986ZM128.291 20.3375C129.175 20.885 129.546 21.9798 129.446 23.1461C129.188 26.1687 126.551 28.9768 122.617 28.9768H114.317L119.208 12.3408H126.856C129.463 12.3408 130.929 13.9833 130.718 16.4344C130.572 18.1482 129.447 19.5999 128.291 20.3375Z" fill="#171615"/>
<path d="M108.396 10.9432L106.785 16.3914L111.632 10.9432H108.396Z" fill="#F14C1C"/>
<path d="M66.6978 33.2347H70L69.7653 33.8454H68.491L67.1926 37.2727H66.4906L67.789 33.8454H66.4692L66.6978 33.2347Z" fill="#F14C1C"/>
<path d="M71.3762 33.2347H74.296L74.0674 33.8454H71.8384L71.4369 34.9027H73.5036L73.2862 35.4798H71.2133L70.7685 36.6616H73.015L72.7864 37.2727H69.8486L71.3762 33.2347Z" fill="#F14C1C"/>
<path d="M76.1902 35.1518L75.5713 33.2347H76.3407L76.7484 34.6822L78.1434 33.2347H78.969L76.9719 35.2076L77.6099 37.2727H76.8579L76.4086 35.7063L74.8749 37.2727H74.0381L76.1902 35.1518Z" fill="#F14C1C"/>
<path d="M80.4236 33.2347H81.1256L80.5173 34.8411H82.3925L83.0008 33.2347H83.7028L82.1758 37.2727H81.4738L82.164 35.4517H80.2882L79.598 37.2727H78.896L80.4236 33.2347Z" fill="#F14C1C"/>
<path d="M85.1066 35.5811C85.0415 35.9587 85.0864 36.2548 85.2403 36.4695C85.3942 36.6844 85.6469 36.7921 85.9984 36.7921C86.2309 36.7921 86.4432 36.7371 86.6359 36.6276C86.8291 36.5184 86.9998 36.3748 87.1486 36.1976C87.2969 36.021 87.4199 35.8211 87.5159 35.5986C87.6119 35.3758 87.6799 35.1517 87.7186 34.9251C87.7838 34.5487 87.7445 34.2525 87.5996 34.0376C87.4547 33.8229 87.207 33.7152 86.8549 33.7152C86.6151 33.7152 86.3972 33.7695 86.2006 33.879C86.0035 33.9885 85.8316 34.1314 85.6828 34.3086C85.5346 34.4858 85.4104 34.6859 85.3122 34.9087C85.2139 35.1313 85.1454 35.3552 85.1066 35.5811ZM84.4007 35.6042C84.4731 35.1817 84.5995 34.815 84.7786 34.5042C84.9578 34.1926 85.1661 33.9362 85.4054 33.735C85.6446 33.5335 85.9002 33.3832 86.1737 33.2852C86.4472 33.1869 86.7145 33.138 86.9768 33.138C87.2385 33.138 87.471 33.1813 87.6731 33.2683C87.8753 33.3547 88.0387 33.4763 88.1634 33.6333C88.2881 33.7892 88.374 33.975 88.4212 34.1897C88.4684 34.4051 88.4695 34.6424 88.4246 34.9027C88.351 35.3289 88.228 35.6966 88.055 36.0058C87.8815 36.3149 87.6788 36.5707 87.4457 36.7719C87.2121 36.9738 86.9593 37.1237 86.6881 37.2217C86.4168 37.3193 86.1461 37.3687 85.8766 37.3687C85.5885 37.3687 85.3419 37.3231 85.1364 37.2329C84.9314 37.1421 84.7674 37.0182 84.6444 36.8594C84.522 36.7012 84.44 36.515 84.3984 36.2997C84.3574 36.085 84.358 35.8532 84.4007 35.6042Z" fill="#F14C1C"/>
<path d="M91.5763 37.2726L92.8691 33.8454H91.555L90.6042 36.1359C90.5098 36.3584 90.4093 36.548 90.3037 36.7039C90.1987 36.8605 90.0869 36.9884 89.9684 37.086C89.8505 37.184 89.7258 37.2554 89.5944 37.3009C89.4635 37.3462 89.3282 37.3687 89.1895 37.3687C89.0322 37.3687 88.8952 37.3406 88.7778 37.2834L88.9957 36.7349C89.0749 36.773 89.1564 36.7921 89.2383 36.7921C89.3097 36.7921 89.3771 36.7798 89.4411 36.7551C89.5062 36.7311 89.568 36.6866 89.6298 36.622C89.6921 36.5576 89.7522 36.4713 89.8123 36.3618C89.8724 36.2526 89.9375 36.1135 90.0083 35.9436L91.1102 33.2347H93.8059L92.2783 37.2726H91.5763Z" fill="#F14C1C"/>
<path d="M95.2096 35.5811C95.145 35.9587 95.1899 36.2548 95.3438 36.4695C95.4971 36.6844 95.7504 36.7921 96.1014 36.7921C96.3339 36.7921 96.5468 36.7371 96.7394 36.6276C96.9331 36.5184 97.1033 36.3748 97.2516 36.1976C97.4004 36.021 97.5228 35.8211 97.6189 35.5986C97.7154 35.3758 97.7828 35.1517 97.8222 34.9251C97.8873 34.5487 97.848 34.2525 97.7031 34.0376C97.5582 33.8229 97.31 33.7152 96.9584 33.7152C96.7186 33.7152 96.5007 33.7695 96.3041 33.879C96.107 33.9885 95.9346 34.1314 95.7863 34.3086C95.6375 34.4858 95.514 34.6859 95.4157 34.9087C95.318 35.1313 95.2489 35.3552 95.2096 35.5811ZM94.5036 35.6042C94.5766 35.1817 94.703 34.815 94.8816 34.5042C95.0613 34.1926 95.2697 33.9362 95.5089 33.735C95.7476 33.5335 96.0031 33.3832 96.2772 33.2852C96.5507 33.1869 96.818 33.138 97.0797 33.138C97.342 33.138 97.5745 33.1813 97.7767 33.2683C97.9788 33.3547 98.1423 33.4763 98.2675 33.6333C98.3916 33.7892 98.4775 33.975 98.5247 34.1897C98.5719 34.4051 98.573 34.6424 98.5275 34.9027C98.4545 35.3289 98.3315 35.6966 98.158 36.0058C97.985 36.3149 97.7817 36.5707 97.5487 36.7719C97.315 36.9738 97.0629 37.1237 96.7916 37.2217C96.5204 37.3193 96.2497 37.3687 95.9795 37.3687C95.692 37.3687 95.4454 37.3231 95.2399 37.2329C95.0343 37.1421 94.8709 37.0182 94.7479 36.8594C94.6255 36.7012 94.5441 36.515 94.5019 36.2997C94.4604 36.085 94.4609 35.8532 94.5036 35.6042Z" fill="#F14C1C"/>
<path d="M100.793 33.2347H103.55L103.321 33.8454H101.265L99.9667 37.2727H99.2646L100.793 33.2347Z" fill="#F14C1C"/>
<path d="M104.886 33.2347H105.588L104.42 36.334L107.268 33.2347H108.166L106.639 37.2727H105.937L107.106 34.173L104.257 37.2727H103.359L104.886 33.2347Z" fill="#F14C1C"/>
<path d="M109.896 33.2347H110.598L109.429 36.334L112.277 33.2347H113.175L111.648 37.2727H110.946L112.115 34.173L109.267 37.2727H108.368L109.896 33.2347Z" fill="#F14C1C"/>
<path d="M119.61 35.5811C119.546 35.9587 119.591 36.2548 119.745 36.4695C119.898 36.6844 120.151 36.7921 120.502 36.7921C120.735 36.7921 120.948 36.7371 121.14 36.6276C121.334 36.5184 121.505 36.3748 121.652 36.1976C121.801 36.021 121.924 35.8211 122.02 35.5986C122.116 35.3758 122.184 35.1517 122.223 34.9251C122.288 34.5487 122.249 34.2525 122.104 34.0376C121.959 33.8229 121.711 33.7152 121.359 33.7152C121.119 33.7152 120.902 33.7695 120.705 33.879C120.508 33.9885 120.335 34.1314 120.187 34.3086C120.038 34.4858 119.915 34.6859 119.817 34.9087C119.719 35.1313 119.65 35.3552 119.61 35.5811ZM118.905 35.6042C118.978 35.1817 119.104 34.815 119.282 34.5042C119.462 34.1926 119.67 33.9362 119.91 33.735C120.148 33.5335 120.404 33.3832 120.678 33.2852C120.951 33.1869 121.219 33.138 121.481 33.138C121.743 33.138 121.975 33.1813 122.177 33.2683C122.38 33.3547 122.543 33.4763 122.668 33.6333C122.792 33.7892 122.878 33.975 122.926 34.1897C122.973 34.4051 122.974 34.6424 122.929 34.9027C122.855 35.3289 122.732 35.6966 122.559 36.0058C122.386 36.3149 122.183 36.5707 121.95 36.7719C121.716 36.9738 121.464 37.1237 121.192 37.2217C120.921 37.3193 120.65 37.3687 120.381 37.3687C120.093 37.3687 119.846 37.3231 119.641 37.2329C119.435 37.1421 119.272 37.0182 119.149 36.8594C119.026 36.7012 118.945 36.515 118.903 36.2997C118.861 36.085 118.862 35.8532 118.905 35.6042Z" fill="#F14C1C"/>
<path d="M125.194 33.2347H127.952L127.722 33.8454H125.667L124.368 37.2727H123.666L125.194 33.2347Z" fill="#F14C1C"/>
<path d="M129.288 33.2347H129.99L129.382 34.8411H131.257L131.866 33.2347H132.568L131.04 37.2727H130.338L131.029 35.4517H129.153L128.462 37.2727H127.76L129.288 33.2347Z" fill="#F14C1C"/>
<path d="M134.336 33.2347H137.256L137.027 33.8454H134.798L134.397 34.9027H136.463L136.246 35.4798H134.173L133.729 36.6616H135.975L135.746 37.2727H132.808L134.336 33.2347Z" fill="#F14C1C"/>
<path d="M141.331 34.1953C141.309 34.3243 141.267 34.438 141.205 34.5379C141.142 34.6379 141.068 34.7259 140.979 34.801C140.892 34.8769 140.794 34.9394 140.686 34.9899C140.577 35.0411 140.469 35.0799 140.359 35.1062L140.357 35.1237C140.556 35.1795 140.696 35.2822 140.775 35.4314C140.854 35.5807 140.876 35.7624 140.839 35.9773C140.8 36.1998 140.721 36.3972 140.602 36.5684C140.482 36.7398 140.335 36.8852 140.161 37.0041C139.988 37.123 139.791 37.2127 139.573 37.2755C139.354 37.3377 139.127 37.3687 138.891 37.3687C138.378 37.3687 138.008 37.2554 137.779 37.0292C137.55 36.8033 137.473 36.4735 137.548 36.0401L137.555 36.0001L137.568 35.9546H138.253C138.201 36.2563 138.238 36.4753 138.365 36.6108C138.492 36.7465 138.709 36.8145 139.02 36.8145C139.163 36.8145 139.297 36.7977 139.423 36.7634C139.547 36.7297 139.66 36.6777 139.758 36.6081C139.856 36.5386 139.938 36.4504 140.003 36.345C140.067 36.2395 140.112 36.1168 140.137 35.9773C140.167 35.8 140.129 35.6674 140.023 35.5784C139.916 35.4902 139.76 35.4453 139.554 35.4453H138.982L139.174 34.9143H139.663C139.928 34.9143 140.146 34.8509 140.316 34.7247C140.485 34.598 140.588 34.4353 140.622 34.2353C140.65 34.0697 140.613 33.9384 140.507 33.842C140.402 33.7459 140.233 33.6977 140.001 33.6977C139.755 33.6977 139.529 33.7523 139.328 33.8595C139.126 33.9672 138.973 34.1489 138.868 34.4051H138.201C138.269 34.183 138.368 33.9912 138.498 33.8308C138.63 33.671 138.779 33.5395 138.948 33.4375C139.118 33.3361 139.301 33.2602 139.499 33.2116C139.696 33.1629 139.898 33.138 140.103 33.138C140.564 33.138 140.898 33.2347 141.104 33.4265C141.31 33.6187 141.386 33.8749 141.331 34.1953Z" fill="#F14C1C"/>
<path d="M144.772 33.9468H144.761L143.498 35.6666H144.722L144.772 33.9468ZM144.653 33.2347H145.395V37.2727H144.681L144.702 36.2037H143.107L142.306 37.2727H141.553L144.653 33.2347Z" fill="#F14C1C"/>
<path d="M152.244 36.6615L151.642 38.2341H150.979L151.347 37.2726H146.658L148.185 33.2346H148.887L147.589 36.6615H149.004L150.297 33.2346H150.999L149.701 36.6615H151.121L152.415 33.2346H153.117L151.818 36.6615H152.244Z" fill="#F14C1C"/>
<path d="M154.913 33.2347H155.615L154.447 36.334L157.295 33.2347H158.193L156.666 37.2727H155.964L157.133 34.173L154.284 37.2727H153.386L154.913 33.2347Z" fill="#F14C1C"/>
<path d="M159.569 33.2347H162.871L162.636 33.8454H161.362L160.063 37.2727H159.361L160.66 33.8454H159.34L159.569 33.2347Z" fill="#F14C1C"/>
<path d="M167.745 33.2347H168.447L166.914 37.2727H166.212L167.745 33.2347ZM165.59 35.8982C165.623 35.7097 165.59 35.5729 165.493 35.488C165.395 35.4035 165.207 35.3608 164.93 35.3608H164.144L163.64 36.6901H164.538C164.819 36.6901 165.053 36.6257 165.24 36.4976C165.427 36.3699 165.544 36.1696 165.59 35.8982ZM166.278 35.8477C166.245 36.0433 166.183 36.2279 166.093 36.4018C166.004 36.575 165.885 36.726 165.737 36.8539C165.59 36.9824 165.412 37.0843 165.204 37.1596C164.997 37.2352 164.757 37.2727 164.488 37.2727H162.719L164.247 33.2347H164.949L164.361 34.7839H165.187C165.375 34.7839 165.543 34.8038 165.69 34.8433C165.839 34.883 165.963 34.9451 166.06 35.03C166.157 35.1145 166.227 35.2251 166.267 35.3608C166.307 35.4971 166.311 35.6586 166.278 35.8477Z" fill="#F14C1C"/>
<path d="M29.0758 30.498H18.35L12.9873 20.9992L18.35 11.5001H29.0758L34.4384 20.9992L29.0758 30.498ZM31.646 6.94748H15.7798L7.84668 20.9992L15.7798 35.0508H31.646L39.5791 20.9992L31.646 6.94748Z" fill="#F14C1C"/>
<path d="M30.7168 42L26.7935 35.0507H31.6459L31.8953 34.609L33.3923 37.2607L30.7168 42ZM29.0757 30.4979H24.223L20.994 24.7785H22.9623V20.0065H19.4209L24.2232 11.5H29.0757L29.3251 11.942L24.2118 20.999L29.3251 30.0562L29.0757 30.4979ZM31.8953 7.38937L31.6459 6.94744H26.7935L30.7168 -0.00160217L33.3923 4.73786L31.8953 7.38937Z" fill="#D9D9D9"/>
<path d="M31.646 35.0508H26.7936L24.2231 30.498H29.0758L29.3252 30.0562L31.8955 34.6091L31.646 35.0508ZM29.3252 11.9421L29.0758 11.5001H24.2234L26.7936 6.94748H31.646L31.8955 7.38942L29.3252 11.9421Z" fill="#F14C1C"/>
<path d="M9.98005 24.7783H3.54199V20.0063H8.40688L7.8464 20.999L9.98005 24.7783Z" fill="#D9D9D9"/>
<path d="M15.121 24.7783H9.98033L7.84668 20.999L8.40716 20.0063H13.5478L12.9873 20.999L15.121 24.7783Z" fill="#F14C1C"/>
<path d="M22.9624 24.7783H15.121L12.9873 20.999L13.5478 20.0063H19.421H22.9624V24.7783Z" fill="#D9D9D9"/>
<path d="M32.8938 37.2605H14.5322L5.35148 20.9994L14.5322 4.73763H32.8938L42.0743 20.9994L32.8938 37.2605ZM35.5694 -0.00160217H11.8564L0 20.9992L11.8564 42H35.5694L47.4258 20.9992L35.5694 -0.00160217Z" fill="#171615"/>
<path d="M35.5041 37.2607L26.3236 20.999L35.5041 4.73786L32.8286 -0.00160217L20.9722 20.9992L32.8286 42L35.5041 37.2607Z" fill="#171615"/>
<path d="M25.0742 23.3848H2.63525V18.6127H25.0742V23.3848Z" fill="#171615"/>
</g>
</svg>
