<svg id="mail" viewBox="0 0 36 37" fill="none" xmlns="http://www.w3.org/2000/svg">
<path d="M3.60541 11.012L18 18.2084L32.3946 11.012C32.3413 10.0948 31.9394 9.23273 31.2711 8.60226C30.6028 7.97179 29.7188 7.62068 28.8 7.62085H7.20001C6.28126 7.62068 5.39721 7.97179 4.72893 8.60226C4.06064 9.23273 3.6587 10.0948 3.60541 11.012Z" fill="white"/>
<path d="M32.4 15.0333L18 22.2333L3.60001 15.0333V25.6209C3.60001 26.5757 3.97929 27.4914 4.65442 28.1665C5.32955 28.8416 6.24523 29.2209 7.20001 29.2209H28.8C29.7548 29.2209 30.6705 28.8416 31.3456 28.1665C32.0207 27.4914 32.4 26.5757 32.4 25.6209V15.0333Z" fill="white"/>
</svg>
