<svg width="25" height="22" viewBox="0 0 25 22" fill="none" xmlns="http://www.w3.org/2000/svg">
<path d="M6.08722 6.10352e-05H18.008L24.0952 10.6527L18.008 21.3053H6.08722L0 10.6527L6.08722 6.10352e-05Z" fill="white"/>
<path d="M14.6911 15.4717H9.27178L6.56223 10.6533L9.27178 5.83466H14.6911L17.4007 10.6533L14.6911 15.4717ZM15.9898 3.52528H7.97316L3.96484 10.6533L7.97316 17.7812H15.9898L19.9981 10.6533L15.9898 3.52528Z" fill="#F14C1C"/>
<path d="M15.5199 21.3063L13.5376 17.7811H15.9893L16.1154 17.5571L16.8718 18.9022L15.5199 21.3063ZM14.6907 15.4716H12.2388L10.6073 12.5704H11.6018V10.1497H9.8125L12.2389 5.8346H14.6907L14.8167 6.05881L12.2332 10.6531L14.8167 15.2475L14.6907 15.4716ZM16.1154 3.7494L15.9893 3.52522H13.5376L15.5199 0.000198364L16.8718 2.40438L16.1154 3.7494Z" fill="#D9D9D9"/>
<path d="M15.9888 17.7812H13.537L12.2383 15.4717H14.6902L14.8162 15.2476L16.1148 17.5571L15.9888 17.7812ZM14.8162 6.05887L14.6902 5.83466H12.2384L13.537 3.52528H15.9888L16.1148 3.74946L14.8162 6.05887Z" fill="#F14C1C"/>
<path d="M5.04198 12.5703H1.78906V10.1496H4.24711L3.96392 10.6531L5.04198 12.5703Z" fill="#D9D9D9"/>
<path d="M7.64028 12.5703H5.0429L3.96484 10.6531L4.24803 10.1496H6.84542L6.56223 10.6531L7.64028 12.5703Z" fill="#F14C1C"/>
<path d="M11.6025 12.5703H7.64055L6.5625 10.6531L6.84569 10.1496H9.81321H11.6025V12.5703Z" fill="#D9D9D9"/>
<path d="M16.62 18.9021H7.34259L2.70391 10.6534L7.34259 2.40426H16.62L21.2586 10.6534L16.62 18.9021ZM17.9719 0.000198364H5.99062L0 10.6532L5.99062 21.3063H17.9719L23.9625 10.6532L17.9719 0.000198364Z" fill="#171615"/>
<path d="M17.9381 18.9022L13.2996 10.6531L17.9381 2.40438L16.5863 0.000198364L10.5957 10.6532L16.5863 21.3063L17.9381 18.9022Z" fill="#171615"/>
<path d="M12.6696 11.8634H1.33203V9.44271H12.6696V11.8634Z" fill="#171615"/>
</svg>
