<svg width="102" height="103" viewBox="0 0 102 103" fill="none" xmlns="http://www.w3.org/2000/svg">
  <circle cx="47" cy="45.4209" r="21" fill="white"/>
  <path d="M41.0872 34.4209H53.008L59.0952 45.0735L53.008 55.7262H41.0872L35 45.0735L41.0872 34.4209Z" fill="white"/>
  <path d="M49.691 49.8924H44.2716L41.562 45.074L44.2716 40.2554H49.691L52.4005 45.074L49.691 49.8924ZM50.9896 37.946H42.973L38.9647 45.074L42.973 52.2019H50.9896L54.9979 45.074L50.9896 37.946Z" fill="#F14C1C"/>
  <path d="M50.5201 55.7271L48.5378 52.2019H50.9896L51.1156 51.9778L51.872 53.323L50.5201 55.7271ZM49.6909 49.8924H47.2391L45.6076 46.9911H46.6021V44.5704H44.8127L47.2392 40.2554H49.6909L49.817 40.4796L47.2334 45.0739L49.817 49.6683L49.6909 49.8924ZM51.1156 38.1702L50.9896 37.946H48.5378L50.5201 34.421L51.872 36.8252L51.1156 38.1702Z" fill="#D9D9D9"/>
  <path d="M50.9896 52.2019H48.5378L47.2391 49.8924H49.6909L49.817 49.6683L51.1156 51.9778L50.9896 52.2019ZM49.817 40.4796L49.6909 40.2554H47.2392L48.5378 37.946H50.9896L51.1156 38.1702L49.817 40.4796Z" fill="#F14C1C"/>
  <path d="M40.0427 46.991H36.7898V44.5703H39.2478L38.9647 45.0738L40.0427 46.991Z" fill="#D9D9D9"/>
  <path d="M42.6401 46.991H40.0427L38.9647 45.0738L39.2479 44.5703H41.8452L41.562 45.0738L42.6401 46.991Z" fill="#F14C1C"/>
  <path d="M46.602 46.991H42.6401L41.562 45.0738L41.8452 44.5703H44.8127H46.602V46.991Z" fill="#D9D9D9"/>
  <path d="M51.62 53.3229H42.3426L37.7039 45.0741L42.3426 36.825H51.62L56.2586 45.0741L51.62 53.3229ZM52.9719 34.421H40.9906L35 45.074L40.9906 55.7271H52.9719L58.9625 45.074L52.9719 34.421Z" fill="#171615"/>
  <path d="M52.939 53.323L48.3005 45.0739L52.939 36.8252L51.5872 34.421L45.5966 45.074L51.5872 55.7271L52.939 53.323Z" fill="#171615"/>
  <path d="M47.669 46.2842H36.3314V43.8635H47.669V46.2842Z" fill="#171615"/>
</svg>
