<svg width="24" height="25" viewBox="0 0 24 25" fill="none" xmlns="http://www.w3.org/2000/svg" id="tablet" >
  <path d="M9 3.42163H7C6.46957 3.42163 5.96086 3.63235 5.58579 4.00742C5.21071 4.38249 5 4.8912 5 5.42163V19.4216C5 19.9521 5.12493 20.5468 5.5 20.9219C5.87507 21.2969 6.46957 21.4219 7 21.4219H17C17.5304 21.4219 18.1249 21.2969 18.5 20.9219C18.8751 20.5468 19 19.9523 19 19.4219V5.42163C19 4.8912 18.7893 4.38249 18.4142 4.00742C18.0391 3.63235 17.5304 3.42163 17 3.42163H15M9 3.42163C8.5 3.42163 9.21071 4.46077 9.58579 4.83585C9.96086 5.21092 10.4696 5.42163 11 5.42163H13C13.5304 5.42163 14.0391 5.21092 14.4142 4.83585C14.7893 4.46077 15 3.95207 15 3.42163M9 3.42163C9.5 3.42163 9.5 3.42163 10 3.42163C10.5 3.42163 10.9696 3.42163 11.5 3.42163L13 3.42155C13.5304 3.42155 14 3.42164 14.5 3.4212C15 3.42033 15 3.42163 15 3.42163M8.5 18.4219H15" stroke="#F14C1C" stroke-width="2" stroke-linecap="round" stroke-linejoin="round"/>
</svg>
