<svg id="zoom" viewBox="0 0 60 60" fill="none" xmlns="http://www.w3.org/2000/svg">
<path fill-rule="evenodd" clip-rule="evenodd" d="M41.0867 38.4496C47.0883 31.1248 46.6705 20.299 39.8332 13.4617C32.5509 6.17943 20.744 6.17943 13.4617 13.4617C6.17943 20.744 6.17943 32.5509 13.4617 39.8332C20.299 46.6705 31.1248 47.0883 38.4496 41.0867L49.0633 51.7004C49.7915 52.4286 50.9722 52.4286 51.7004 51.7004C52.4286 50.9722 52.4286 49.7915 51.7004 49.0633L41.0867 38.4496ZM37.1961 16.0989C43.0219 21.9247 43.0219 31.3702 37.1961 37.1961C31.3702 43.0219 21.9247 43.0219 16.0989 37.1961C10.273 31.3702 10.273 21.9247 16.0989 16.0989C21.9247 10.273 31.3702 10.273 37.1961 16.0989Z" fill="white"/>
</svg>
